<svg width="142" height="142" viewBox="0 0 142 142" fill="none" xmlns="http://www.w3.org/2000/svg">
<g clip-path="url(#clip0_77_14192)">
<circle cx="71" cy="71" r="71" fill="#000E3A"/>
<path d="M95.249 76.5995L98.855 78.7625C99.0775 78.8957 99.2616 79.0842 99.3895 79.3098C99.5173 79.5353 99.5845 79.7902 99.5845 80.0495C99.5845 80.3088 99.5173 80.5636 99.3895 80.7892C99.2616 81.0147 99.0775 81.2033 98.855 81.3365L72.545 97.1225C72.0784 97.4028 71.5444 97.5509 71 97.5509C70.4557 97.5509 69.9216 97.4028 69.455 97.1225L43.145 81.3365C42.9226 81.2033 42.7384 81.0147 42.6106 80.7892C42.4827 80.5636 42.4155 80.3088 42.4155 80.0495C42.4155 79.7902 42.4827 79.5353 42.6106 79.3098C42.7384 79.0842 42.9226 78.8957 43.145 78.7625L46.751 76.5995L71 91.1495L95.249 76.5995ZM95.249 62.4995L98.855 64.6625C99.0775 64.7957 99.2616 64.9842 99.3895 65.2098C99.5173 65.4353 99.5845 65.6902 99.5845 65.9495C99.5845 66.2088 99.5173 66.4636 99.3895 66.6892C99.2616 66.9147 99.0775 67.1033 98.855 67.2365L71 83.9495L43.145 67.2365C42.9226 67.1033 42.7384 66.9147 42.6106 66.6892C42.4827 66.4636 42.4155 66.2088 42.4155 65.9495C42.4155 65.6902 42.4827 65.4353 42.6106 65.2098C42.7384 64.9842 42.9226 64.7957 43.145 64.6625L46.751 62.4995L71 77.0495L95.249 62.4995ZM72.542 34.9265L98.855 50.7125C99.0775 50.8457 99.2616 51.0342 99.3895 51.2598C99.5173 51.4853 99.5845 51.7402 99.5845 51.9995C99.5845 52.2588 99.5173 52.5136 99.3895 52.7392C99.2616 52.9647 99.0775 53.1533 98.855 53.2865L71 69.9995L43.145 53.2865C42.9226 53.1533 42.7384 52.9647 42.6106 52.7392C42.4827 52.5136 42.4155 52.2588 42.4155 51.9995C42.4155 51.7402 42.4827 51.4853 42.6106 51.2598C42.7384 51.0342 42.9226 50.8457 43.145 50.7125L69.455 34.9265C69.9216 34.6461 70.4557 34.498 71 34.498C71.5444 34.498 72.0784 34.6461 72.545 34.9265H72.542ZM71 40.9955L52.661 51.9995L71 63.0035L89.339 51.9995L71 40.9955Z" fill="#13E0A0"/>
</g>
<defs>
<clipPath id="clip0_77_14192">
<rect width="142" height="142" fill="white"/>
</clipPath>
</defs>
</svg>
