<svg width="44" height="44" viewBox="0 0 44 44" fill="none" xmlns="http://www.w3.org/2000/svg">
<rect width="44" height="44" rx="22" fill="#16A34A" fill-opacity="0.08"/>
<path d="M20.8571 23.1429H15.1429C14.8191 23.1429 14.5478 23.0331 14.3291 22.8137C14.1105 22.5943 14.0008 22.323 14 22C13.9992 21.677 14.109 21.4057 14.3291 21.1863C14.5493 20.9669 14.8206 20.8571 15.1429 20.8571H20.8571V15.1429C20.8571 14.8191 20.9669 14.5478 21.1863 14.3291C21.4057 14.1105 21.677 14.0008 22 14C22.323 13.9992 22.5947 14.109 22.8149 14.3291C23.035 14.5493 23.1444 14.8206 23.1429 15.1429V20.8571H28.8571C29.1809 20.8571 29.4526 20.9669 29.672 21.1863C29.8914 21.4057 30.0008 21.677 30 22C29.9992 22.323 29.8895 22.5947 29.6709 22.8149C29.4522 23.035 29.1809 23.1444 28.8571 23.1429H23.1429V28.8571C23.1429 29.1809 23.0331 29.4526 22.8137 29.672C22.5943 29.8914 22.323 30.0008 22 30C21.677 29.9992 21.4057 29.8895 21.1863 29.6709C20.9669 29.4522 20.8571 29.1809 20.8571 28.8571V23.1429Z" fill="#16A34A"/>
</svg>
