<svg width="20" height="20" viewBox="0 0 20 20" fill="none" xmlns="http://www.w3.org/2000/svg">
<path d="M14.9998 10.8332H10.8332V14.9998C10.8332 15.4582 10.4582 15.8332 9.99984 15.8332C9.5415 15.8332 9.1665 15.4582 9.1665 14.9998V10.8332H4.99984C4.5415 10.8332 4.1665 10.4582 4.1665 9.99984C4.1665 9.5415 4.5415 9.1665 4.99984 9.1665H9.1665V4.99984C9.1665 4.5415 9.5415 4.1665 9.99984 4.1665C10.4582 4.1665 10.8332 4.5415 10.8332 4.99984V9.1665H14.9998C15.4582 9.1665 15.8332 9.5415 15.8332 9.99984C15.8332 10.4582 15.4582 10.8332 14.9998 10.8332Z" fill="#13E0A0"/>
</svg>
