<svg width="44" height="44" viewBox="0 0 44 44" fill="none" xmlns="http://www.w3.org/2000/svg">
<rect width="44" height="44" rx="8" fill="#AC7F5E" fill-opacity="0.08"/>
<path d="M29.941 29.941L27.2945 24.8019L30.4026 21.6938L27.8484 19.1396V15.5392H24.248L21.6938 12.985L19.1396 15.5392H15.5392V19.1396L12.985 21.6938L15.5392 24.248V27.8484H19.1396L21.6938 30.4026L24.7711 27.3253L29.941 29.941ZM33.6338 33.6338C33.4697 33.7979 33.2592 33.9108 33.0023 33.9723C32.7455 34.0339 32.4841 33.9928 32.2182 33.8492L25.2635 30.3103L22.5555 33.0183C22.3093 33.2645 22.0221 33.3876 21.6938 33.3876C21.3656 33.3876 21.0783 33.2645 20.8322 33.0183L18.1241 30.3103H14.3082C13.9595 30.3103 13.6673 30.1921 13.4318 29.9558C13.1963 29.7195 13.0781 29.4273 13.0773 29.0794V25.2635L10.3693 22.5555C10.1231 22.3093 10 22.0221 10 21.6938C10 21.3656 10.1231 21.0783 10.3693 20.8322L13.0773 18.1241V14.3082C13.0773 13.9595 13.1955 13.6673 13.4318 13.4318C13.6682 13.1963 13.9603 13.0781 14.3082 13.0773H18.1241L20.8322 10.3693C21.0783 10.1231 21.3656 10 21.6938 10C22.0221 10 22.3093 10.1231 22.5555 10.3693L25.2635 13.0773H29.0794C29.4281 13.0773 29.7207 13.1955 29.957 13.4318C30.1934 13.6682 30.3111 13.9603 30.3103 14.3082V18.1241L33.0183 20.8322C33.2645 21.0783 33.3876 21.3656 33.3876 21.6938C33.3876 22.0221 33.2645 22.3093 33.0183 22.5555L30.3103 25.2635L33.8492 32.2182C33.9928 32.4849 34.0339 32.7463 33.9723 33.0023C33.9108 33.2584 33.7979 33.4689 33.6338 33.6338Z" fill="#AC7F5E"/>
</svg>
