<svg width="40" height="40" viewBox="0 0 40 40" fill="none" xmlns="http://www.w3.org/2000/svg">
<rect x="0.25" y="0.25" width="39.5" height="39.5" rx="19.75" stroke="#ADADAD" stroke-width="0.5"/>
<path d="M24.6647 27.6418C23.7601 28.5187 22.7724 28.3802 21.8217 27.9649C20.8156 27.5403 19.8925 27.5218 18.831 27.9649C17.5018 28.5372 16.8003 28.371 16.0065 27.6418C11.502 22.9989 12.1666 15.9283 17.2803 15.6698C18.5264 15.7344 19.3941 16.3529 20.1233 16.4083C21.2125 16.1867 22.2555 15.5498 23.4186 15.6329C24.8124 15.7437 25.8646 16.2975 26.5569 17.2944C23.677 19.0205 24.3601 22.8142 27 23.8758C26.4739 25.2603 25.7908 26.6357 24.6554 27.651L24.6647 27.6418ZM20.031 15.6144C19.8925 13.556 21.5632 11.8576 23.4832 11.6915C23.7509 14.0729 21.3232 15.8452 20.031 15.6144Z" fill="black"/>
</svg>
