<svg width="24" height="24" viewBox="0 0 24 24" fill="none" xmlns="http://www.w3.org/2000/svg">
<path opacity="0.4" d="M12 22C6.47715 22 2 17.5228 2 12C2 6.47715 6.47715 2 12 2C17.5228 2 22 6.47715 22 12C22 17.5228 17.5228 22 12 22Z" fill="#C4C4C4"/>
<path d="M13.2599 16.2802C13.4499 16.2802 13.6399 16.2102 13.7899 16.0602C14.0799 15.7702 14.0799 15.2902 13.7899 15.0002L10.7899 12.0002L13.7899 9.00016C14.0799 8.71016 14.0799 8.23016 13.7899 7.94016C13.4999 7.65016 13.0199 7.65016 12.7299 7.94016L9.19995 11.4702C8.90995 11.7602 8.90995 12.2402 9.19995 12.5302L12.7299 16.0602C12.8799 16.2102 13.0699 16.2802 13.2599 16.2802Z" fill="#666666"/>
</svg>
