<svg width="14" height="14" viewBox="0 0 14 14" fill="none" xmlns="http://www.w3.org/2000/svg">
<path d="M13 6C13.5523 6 14 6.44772 14 7C14 7.55228 13.5523 8 13 8L1 8C0.447715 8 0 7.55228 0 7C0 6.44772 0.447715 6 1 6L13 6Z" fill="black"/>
<path d="M7.70711 12.2929C8.09763 12.6834 8.09763 13.3166 7.70711 13.7071C7.31658 14.0976 6.68342 14.0976 6.29289 13.7071L0.292895 7.70711C-0.0856844 7.32853 -0.09893 6.71894 0.262847 6.32428L5.76285 0.324276C6.13604 -0.0828428 6.76861 -0.110347 7.17573 0.262846C7.58284 0.636039 7.61035 1.26861 7.23716 1.67572L2.38414 6.96992L7.70711 12.2929Z" fill="black"/>
</svg>
