<svg width="19" height="24" viewBox="0 0 19 24" fill="none" xmlns="http://www.w3.org/2000/svg">
<g opacity="0.8" clip-path="url(#clip0_359_11842)">
<path d="M13.5 13.5C13.5 12.3065 13.0259 11.1619 12.182 10.318C11.3381 9.47411 10.1935 9 9 9C7.80653 9 6.66193 9.47411 5.81802 10.318C4.97411 11.1619 4.5 12.3065 4.5 13.5V19.5H13.5V13.5ZM15 20.0002L15.3 20.4C15.3418 20.4557 15.3672 20.522 15.3735 20.5913C15.3797 20.6607 15.3666 20.7304 15.3354 20.7927C15.3043 20.855 15.2564 20.9074 15.1971 20.944C15.1379 20.9806 15.0696 21 15 21H3C2.93036 21 2.86209 20.9806 2.80285 20.944C2.74361 20.9074 2.69573 20.855 2.66459 20.7927C2.63345 20.7304 2.62026 20.6607 2.62652 20.5913C2.63277 20.522 2.65821 20.4557 2.7 20.4L3 20.0002V13.5C3 11.9087 3.63214 10.3826 4.75736 9.25736C5.88258 8.13214 7.4087 7.5 9 7.5C10.5913 7.5 12.1174 8.13214 13.2426 9.25736C14.3679 10.3826 15 11.9087 15 13.5V20.0002ZM7.125 21.75H10.875C10.875 22.2473 10.6775 22.7242 10.3258 23.0758C9.97419 23.4275 9.49728 23.625 9 23.625C8.50272 23.625 8.02581 23.4275 7.67417 23.0758C7.32254 22.7242 7.125 22.2473 7.125 21.75V21.75Z" fill="#000268"/>
</g>
<rect x="9.84998" y="1.5" width="7.65" height="9" rx="3.825" fill="#E84D4D" stroke="#FBFBFB" stroke-width="1.125"/>
<defs>
<clipPath id="clip0_359_11842">
<rect width="18" height="18" fill="white" transform="translate(0 6)"/>
</clipPath>
</defs>
</svg>
