<svg width="12" height="16" viewBox="0 0 12 16" fill="none" xmlns="http://www.w3.org/2000/svg">
<path d="M6 0C4.75376 0 3.55856 0.540937 2.67734 1.50381C1.79611 2.46668 1.30105 3.77262 1.30105 5.13433V7.72203C1.30114 7.83582 1.27701 7.94806 1.23056 8.0499L0.0779776 10.5679C0.0216751 10.6909 -0.0049105 10.8276 0.000745984 10.965C0.00640247 11.1025 0.0441131 11.236 0.110296 11.353C0.17648 11.47 0.268938 11.5666 0.37889 11.6335C0.488842 11.7005 0.612637 11.7356 0.738516 11.7356H11.2615C11.3874 11.7356 11.5112 11.7005 11.6211 11.6335C11.7311 11.5666 11.8235 11.47 11.8897 11.353C11.9559 11.236 11.9936 11.1025 11.9993 10.965C12.0049 10.8276 11.9783 10.6909 11.922 10.5679L10.7701 8.0499C10.7234 7.94813 10.6991 7.83588 10.699 7.72203V5.13433C10.699 3.77262 10.2039 2.46668 9.32266 1.50381C8.44144 0.540937 7.24624 0 6 0ZM6 13.936C5.58337 13.9363 5.17693 13.7953 4.83669 13.5326C4.49645 13.2699 4.23916 12.8983 4.10028 12.4691H7.89972C7.76084 12.8983 7.50355 13.2699 7.16331 13.5326C6.82307 13.7953 6.41663 13.9363 6 13.936Z" fill="#000E3A"/>
</svg>
