<svg width="15" height="15" viewBox="0 0 15 15" fill="none" xmlns="http://www.w3.org/2000/svg">
<path d="M7.5 3.76867V11.8937M7.5 3.76867C5.73813 3.2493 4.55313 3.09617 2.48188 3.1293C2.31952 3.13242 2.16489 3.19923 2.05135 3.31534C1.93782 3.43145 1.87448 3.58753 1.875 3.74992V10.6249C1.875 10.9768 2.16625 11.2587 2.51875 11.2543C4.47 11.2274 5.655 11.3868 7.5 11.8937M7.5 3.76867C9.26188 3.2493 10.4469 3.09617 12.5181 3.1293C12.6805 3.13242 12.8351 3.19923 12.9487 3.31534C13.0622 3.43145 13.1255 3.58753 13.125 3.74992V10.6249C13.125 10.9768 12.8338 11.2587 12.4813 11.2543C10.53 11.2274 9.345 11.3868 7.5 11.8937" stroke="#999999" stroke-width="1.25" stroke-linecap="round" stroke-linejoin="round"/>
</svg>
