<svg width="33" height="32" viewBox="0 0 33 32" fill="none" xmlns="http://www.w3.org/2000/svg">
<g clip-path="url(#clip0_65_11048)">
<circle cx="16.5" cy="16" r="16" fill="#EFEFEF"/>
<path opacity="0.4" d="M17 9.2997V25.3297C16.83 25.3297 16.65 25.2997 16.51 25.2197L16.47 25.1997C14.55 24.1497 11.2 23.0497 9.03 22.7597L8.74 22.7197C7.78 22.5997 7 21.6997 7 20.7397V8.6597C7 7.4697 7.97 6.5697 9.16 6.6697C11.26 6.8397 14.44 7.8997 16.22 9.0097L16.47 9.1597C16.62 9.2497 16.81 9.2997 17 9.2997Z" fill="#EEAC04"/>
<path d="M27 8.66954V20.7395C27 21.6995 26.22 22.5995 25.26 22.7195L24.93 22.7595C22.75 23.0495 19.39 24.1595 17.47 25.2195C17.34 25.2995 17.18 25.3295 17 25.3295V9.29954C17.19 9.29954 17.38 9.24954 17.53 9.15954L17.7 9.04954C19.48 7.92954 22.67 6.85954 24.77 6.67954H24.83C26.02 6.57954 27 7.46954 27 8.66954Z" fill="#866102"/>
<path d="M12.75 13.2402H10.5C10.09 13.2402 9.75 12.9002 9.75 12.4902C9.75 12.0802 10.09 11.7402 10.5 11.7402H12.75C13.16 11.7402 13.5 12.0802 13.5 12.4902C13.5 12.9002 13.16 13.2402 12.75 13.2402Z" fill="#EEAC04"/>
<path d="M13.5 16.2402H10.5C10.09 16.2402 9.75 15.9002 9.75 15.4902C9.75 15.0802 10.09 14.7402 10.5 14.7402H13.5C13.91 14.7402 14.25 15.0802 14.25 15.4902C14.25 15.9002 13.91 16.2402 13.5 16.2402Z" fill="#EEAC04"/>
</g>
<defs>
<clipPath id="clip0_65_11048">
<rect width="32" height="32" fill="white" transform="translate(0.5)"/>
</clipPath>
</defs>
</svg>
