<svg width="22" height="22" viewBox="0 0 22 22" fill="none" xmlns="http://www.w3.org/2000/svg">
<path d="M11 5.52755V17.4442M11 5.52755C8.41592 4.7658 6.67792 4.54122 3.64009 4.5898C3.40196 4.59437 3.17517 4.69237 3.00865 4.86266C2.84214 5.03295 2.74924 5.26188 2.75 5.50005V15.5834C2.75 16.0995 3.17717 16.5129 3.69417 16.5065C6.556 16.4671 8.294 16.7008 11 17.4442M11 5.52755C13.5841 4.7658 15.3221 4.54122 18.3599 4.5898C18.5981 4.59437 18.8248 4.69237 18.9914 4.86266C19.1579 5.03295 19.2508 5.26188 19.25 5.50005V15.5834C19.25 16.0995 18.8228 16.5129 18.3058 16.5065C15.444 16.4671 13.706 16.7008 11 17.4442" stroke="#000E3A" stroke-width="2" stroke-linecap="round" stroke-linejoin="round"/>
</svg>
