<svg width="24" height="24" viewBox="0 0 24 24" fill="none" xmlns="http://www.w3.org/2000/svg">
<g clip-path="url(#clip0_770_751)">
<path d="M0.75 14.25V23.25M9 18.75H12.75C13.5456 18.75 14.3087 19.0661 14.8713 19.6287C15.4339 20.1913 15.75 20.9544 15.75 21.75H0.75V15.75H6C6.79565 15.75 7.55871 16.0661 8.12132 16.6287C8.68393 17.1913 9 17.9544 9 18.75ZM9 18.75H6M7.25 12.75V5.75C7.25 5.21957 7.46071 4.71086 7.83579 4.33579C8.21086 3.96072 8.71957 3.75 9.25 3.75H21.25C21.7804 3.75 22.2891 3.96072 22.6642 4.33579C23.0393 4.71086 23.25 5.21957 23.25 5.75V12.75C23.25 13.2804 23.0393 13.7891 22.6642 14.1642C22.2891 14.5393 21.7804 14.75 21.25 14.75H11M7.25 7.75H23.25M15.25 7.75V9.75M18.25 3.75H12.25L12.611 1.586C12.6499 1.35199 12.7707 1.13943 12.9519 0.986292C13.1331 0.83315 13.3628 0.749401 13.6 0.750003H16.9C17.1367 0.750112 17.3657 0.834184 17.5462 0.987263C17.7268 1.14034 17.8472 1.3525 17.886 1.586L18.25 3.75Z" stroke="#ADADAD" stroke-width="1.5" stroke-linecap="round" stroke-linejoin="round"/>
</g>
<defs>
<clipPath id="clip0_770_751">
<rect width="24" height="24" fill="white"/>
</clipPath>
</defs>
</svg>
