<svg width="32" height="32" viewBox="0 0 32 32" fill="none" xmlns="http://www.w3.org/2000/svg">
<g clip-path="url(#clip0_65_11032)">
<circle cx="16" cy="16" r="16" fill="#EFEFEF"/>
<path opacity="0.4" d="M12 26H20C22.76 26 25 23.76 25 21V11C25 8.24 22.76 6 20 6H12C9.24 6 7 8.24 7 11V21C7 23.76 9.24 26 12 26Z" fill="#EEAC04"/>
<path d="M19 9.71094H13C11.97 9.71094 11.12 10.5509 11.12 11.5909V12.5909C11.12 13.6209 11.96 14.4709 13 14.4709H19C20.03 14.4709 20.88 13.6309 20.88 12.5909V11.5909C20.88 10.5509 20.04 9.71094 19 9.71094Z" fill="#866102"/>
<path d="M12.16 18.9208C12.02 18.9208 11.89 18.8908 11.77 18.8408C11.65 18.7908 11.54 18.7208 11.45 18.6308C11.26 18.4408 11.15 18.1908 11.15 17.9208C11.15 17.7908 11.18 17.6608 11.23 17.5408C11.28 17.4108 11.35 17.3108 11.45 17.2108C11.68 16.9808 12.03 16.8708 12.35 16.9408C12.41 16.9508 12.48 16.9708 12.54 17.0008C12.6 17.0208 12.66 17.0508 12.71 17.0908C12.77 17.1208 12.82 17.1708 12.86 17.2108C12.95 17.3108 13.03 17.4108 13.08 17.5408C13.13 17.6608 13.15 17.7908 13.15 17.9208C13.15 18.1908 13.05 18.4408 12.86 18.6308C12.67 18.8208 12.42 18.9208 12.16 18.9208Z" fill="#EEAC04"/>
<path d="M16.15 18.9191C15.89 18.9191 15.64 18.8191 15.45 18.6291C15.26 18.4391 15.15 18.1891 15.15 17.9191C15.15 17.6591 15.26 17.3991 15.45 17.2091C15.82 16.8391 16.49 16.8391 16.86 17.2091C16.95 17.3091 17.03 17.4091 17.08 17.5391C17.13 17.6591 17.15 17.7891 17.15 17.9191C17.15 18.1891 17.05 18.4391 16.86 18.6291C16.67 18.8191 16.42 18.9191 16.15 18.9191Z" fill="#EEAC04"/>
<path d="M20.15 18.9191C19.89 18.9191 19.64 18.8191 19.45 18.6291C19.26 18.4391 19.15 18.1891 19.15 17.9191C19.15 17.6591 19.26 17.3991 19.45 17.2091C19.82 16.8391 20.49 16.8391 20.86 17.2091C21.05 17.3991 21.16 17.6591 21.16 17.9191C21.16 18.0491 21.13 18.1791 21.08 18.2991C21.03 18.4191 20.96 18.5291 20.86 18.6291C20.67 18.8191 20.42 18.9191 20.15 18.9191Z" fill="#EEAC04"/>
<path d="M12.16 22.9208C11.89 22.9208 11.64 22.8208 11.45 22.6308C11.26 22.4408 11.15 22.1908 11.15 21.9208C11.15 21.6608 11.26 21.4008 11.45 21.2108C11.54 21.1208 11.65 21.0508 11.77 21.0008C12.02 20.9008 12.29 20.9008 12.54 21.0008C12.6 21.0208 12.66 21.0508 12.71 21.0908C12.77 21.1208 12.82 21.1708 12.86 21.2108C13.05 21.4008 13.16 21.6608 13.16 21.9208C13.16 22.1908 13.05 22.4408 12.86 22.6308C12.67 22.8208 12.42 22.9208 12.16 22.9208Z" fill="#EEAC04"/>
<path d="M16.15 22.9202C15.89 22.9202 15.64 22.8202 15.45 22.6302C15.26 22.4402 15.15 22.1902 15.15 21.9202C15.15 21.8502 15.16 21.7902 15.17 21.7202C15.19 21.6602 15.21 21.6002 15.23 21.5402C15.26 21.4802 15.29 21.4202 15.32 21.3602C15.36 21.3102 15.4 21.2602 15.45 21.2102C15.54 21.1202 15.65 21.0502 15.77 21.0002C16.14 20.8502 16.58 20.9302 16.86 21.2102C17.05 21.4002 17.15 21.6602 17.15 21.9202C17.15 22.1902 17.05 22.4402 16.86 22.6302C16.77 22.7202 16.66 22.7902 16.54 22.8402C16.42 22.8902 16.29 22.9202 16.15 22.9202Z" fill="#EEAC04"/>
<path d="M20.15 22.9202C20.02 22.9202 19.89 22.8902 19.77 22.8402C19.65 22.7902 19.54 22.7202 19.45 22.6302C19.26 22.4402 19.16 22.1902 19.16 21.9202C19.16 21.6602 19.26 21.4002 19.45 21.2102C19.72 20.9302 20.17 20.8502 20.54 21.0002C20.66 21.0502 20.77 21.1202 20.86 21.2102C21.05 21.4002 21.15 21.6602 21.15 21.9202C21.15 22.1902 21.05 22.4402 20.86 22.6302C20.67 22.8202 20.42 22.9202 20.15 22.9202Z" fill="#EEAC04"/>
</g>
<defs>
<clipPath id="clip0_65_11032">
<rect width="32" height="32" fill="white"/>
</clipPath>
</defs>
</svg>
