<svg width="24" height="24" viewBox="0 0 24 24" fill="none" xmlns="http://www.w3.org/2000/svg">
<path fill-rule="evenodd" clip-rule="evenodd" d="M7.5 3V4.5H3.75C3.55109 4.5 3.36032 4.57902 3.21967 4.71967C3.07902 4.86032 3 5.05109 3 5.25V20.25C3 20.4489 3.07902 20.6397 3.21967 20.7803C3.36032 20.921 3.55109 21 3.75 21H20.25C20.4489 21 20.6397 20.921 20.7803 20.7803C20.921 20.6397 21 20.4489 21 20.25V5.25C21 5.05109 20.921 4.86032 20.7803 4.71967C20.6397 4.57902 20.4489 4.5 20.25 4.5H16.5V3H15V4.5H9V3H7.5ZM4.5 6H7.5V7.5H9V6H15V7.5H16.5V6H19.5V9H4.5V6ZM6.75 12.75V14.25H8.25V12.75H6.75ZM11.25 12.75V14.25H12.75V12.75H11.25ZM15.75 14.25V12.75H17.25V14.25H15.75ZM6.75 15.75V17.25H8.25V15.75H6.75ZM11.25 17.25V15.75H12.75V17.25H11.25ZM15.75 15.75V17.25H17.25V15.75H15.75Z" fill="#0088FF"/>
</svg>
