<svg width="16" height="16" viewBox="0 0 16 16" fill="none" xmlns="http://www.w3.org/2000/svg">
<path d="M13.4113 5.08253C13.2822 5.06761 13.1515 5.09078 13.0353 5.14919L10 6.66586V9.33253L13.0353 10.8492C13.1368 10.8999 13.2496 10.9239 13.363 10.9188C13.4764 10.9138 13.5866 10.8799 13.6832 10.8203C13.7798 10.7608 13.8596 10.6776 13.915 10.5786C13.9705 10.4795 13.9997 10.368 14 10.2545V5.74386C13.9998 5.58069 13.9398 5.42325 13.8313 5.30136C13.7228 5.17948 13.5734 5.10162 13.4113 5.08253Z" fill="#ADADAD"/>
<path d="M3.33331 3.33301C2.23665 3.33301 1.33331 4.23634 1.33331 5.33301V10.6663C1.33331 11.763 2.23665 12.6663 3.33331 12.6663H8.66665C9.76331 12.6663 10.6666 11.763 10.6666 10.6663V5.33301C10.6666 4.23634 9.76331 3.33301 8.66665 3.33301H3.33331Z" fill="#ADADAD"/>
</svg>
