<svg width="25" height="24" viewBox="0 0 25 24" fill="none" xmlns="http://www.w3.org/2000/svg">
<path opacity="0.4" d="M19.75 10.2808V17.4308C19.72 20.2808 18.94 21.0008 15.97 21.0008H6.53003C3.51003 21.0008 2.75 20.2508 2.75 17.2708V10.2808C2.75 7.58078 3.38 6.71078 5.75 6.57078C5.99 6.56078 6.25003 6.55078 6.53003 6.55078H15.97C18.99 6.55078 19.75 7.30078 19.75 10.2808Z" fill="#13E0A0"/>
<path d="M22.75 6.73V13.72C22.75 16.42 22.12 17.29 19.75 17.43V10.28C19.75 7.3 18.99 6.55 15.97 6.55H6.53003C6.25003 6.55 5.99 6.56 5.75 6.57C5.78 3.72 6.56003 3 9.53003 3H18.97C21.99 3 22.75 3.75 22.75 6.73Z" fill="#13E0A0"/>
<path d="M7.71002 18.5605H5.98999C5.57999 18.5605 5.23999 18.2205 5.23999 17.8105C5.23999 17.4005 5.57999 17.0605 5.98999 17.0605H7.71002C8.12002 17.0605 8.46002 17.4005 8.46002 17.8105C8.46002 18.2205 8.13002 18.5605 7.71002 18.5605Z" fill="#13E0A0"/>
<path d="M13.3 18.5605H9.85999C9.44999 18.5605 9.10999 18.2205 9.10999 17.8105C9.10999 17.4005 9.44999 17.0605 9.85999 17.0605H13.3C13.71 17.0605 14.05 17.4005 14.05 17.8105C14.05 18.2205 13.72 18.5605 13.3 18.5605Z" fill="#13E0A0"/>
<path d="M19.75 11.8594H2.75V13.3594H19.75V11.8594Z" fill="#13E0A0"/>
</svg>
