<svg width="18" height="18" viewBox="0 0 18 18" fill="none" xmlns="http://www.w3.org/2000/svg">
<g opacity="0.8" clip-path="url(#clip0_65_11007)">
<path d="M5.25 6V4.5C5.25 3.50544 5.64509 2.55161 6.34835 1.84835C7.05161 1.14509 8.00544 0.75 9 0.75C9.99456 0.75 10.9484 1.14509 11.6517 1.84835C12.3549 2.55161 12.75 3.50544 12.75 4.5V6H15C15.1989 6 15.3897 6.07902 15.5303 6.21967C15.671 6.36032 15.75 6.55109 15.75 6.75V15.75C15.75 15.9489 15.671 16.1397 15.5303 16.2803C15.3897 16.421 15.1989 16.5 15 16.5H3C2.80109 16.5 2.61032 16.421 2.46967 16.2803C2.32902 16.1397 2.25 15.9489 2.25 15.75V6.75C2.25 6.55109 2.32902 6.36032 2.46967 6.21967C2.61032 6.07902 2.80109 6 3 6H5.25ZM5.25 7.5H3.75V15H14.25V7.5H12.75V9H11.25V7.5H6.75V9H5.25V7.5ZM6.75 6H11.25V4.5C11.25 3.90326 11.0129 3.33097 10.591 2.90901C10.169 2.48705 9.59674 2.25 9 2.25C8.40326 2.25 7.83097 2.48705 7.40901 2.90901C6.98705 3.33097 6.75 3.90326 6.75 4.5V6Z" fill="#000268"/>
</g>
<defs>
<clipPath id="clip0_65_11007">
<rect width="18" height="18" fill="white"/>
</clipPath>
</defs>
</svg>
