<svg width="18" height="18" viewBox="0 0 18 18" fill="none" xmlns="http://www.w3.org/2000/svg">
<g opacity="0.8" clip-path="url(#clip0_69_12067)">
<path d="M5.25049 6V4.5C5.25049 3.50544 5.64558 2.55161 6.34884 1.84835C7.0521 1.14509 8.00593 0.75 9.00049 0.75C9.99505 0.75 10.9489 1.14509 11.6521 1.84835C12.3554 2.55161 12.7505 3.50544 12.7505 4.5V6H15.0005C15.1994 6 15.3902 6.07902 15.5308 6.21967C15.6715 6.36032 15.7505 6.55109 15.7505 6.75V15.75C15.7505 15.9489 15.6715 16.1397 15.5308 16.2803C15.3902 16.421 15.1994 16.5 15.0005 16.5H3.00049C2.80158 16.5 2.61081 16.421 2.47016 16.2803C2.32951 16.1397 2.25049 15.9489 2.25049 15.75V6.75C2.25049 6.55109 2.32951 6.36032 2.47016 6.21967C2.61081 6.07902 2.80158 6 3.00049 6H5.25049ZM5.25049 7.5H3.75049V15H14.2505V7.5H12.7505V9H11.2505V7.5H6.75049V9H5.25049V7.5ZM6.75049 6H11.2505V4.5C11.2505 3.90326 11.0134 3.33097 10.5915 2.90901C10.1695 2.48705 9.59723 2.25 9.00049 2.25C8.40375 2.25 7.83145 2.48705 7.4095 2.90901C6.98754 3.33097 6.75049 3.90326 6.75049 4.5V6Z" fill="white"/>
</g>
<defs>
<clipPath id="clip0_69_12067">
<rect width="18" height="18" fill="white" transform="translate(0.000488281)"/>
</clipPath>
</defs>
</svg>
