<svg width="32" height="32" viewBox="0 0 32 32" fill="none" xmlns="http://www.w3.org/2000/svg">
<rect x="0.5" y="0.5" width="31" height="31" rx="15.5" stroke="#808080"/>
<path d="M16.8571 10.8571C16.8571 10.6298 16.7668 10.4118 16.6061 10.2511C16.4453 10.0903 16.2273 10 16 10C15.7727 10 15.5547 10.0903 15.3939 10.2511C15.2332 10.4118 15.1429 10.6298 15.1429 10.8571V15.1429H10.8571C10.6298 15.1429 10.4118 15.2332 10.2511 15.3939C10.0903 15.5547 10 15.7727 10 16C10 16.2273 10.0903 16.4453 10.2511 16.6061C10.4118 16.7668 10.6298 16.8571 10.8571 16.8571H15.1429V21.1429C15.1429 21.3702 15.2332 21.5882 15.3939 21.7489C15.5547 21.9097 15.7727 22 16 22C16.2273 22 16.4453 21.9097 16.6061 21.7489C16.7668 21.5882 16.8571 21.3702 16.8571 21.1429V16.8571H21.1429C21.3702 16.8571 21.5882 16.7668 21.7489 16.6061C21.9097 16.4453 22 16.2273 22 16C22 15.7727 21.9097 15.5547 21.7489 15.3939C21.5882 15.2332 21.3702 15.1429 21.1429 15.1429H16.8571V10.8571Z" fill="#808080"/>
</svg>
