<svg width="15" height="15" viewBox="0 0 15 15" fill="none" xmlns="http://www.w3.org/2000/svg">
<path d="M7.5 12.5C8.82608 12.5 10.0979 11.9732 11.0355 11.0355C11.9732 10.0979 12.5 8.82608 12.5 7.5C12.5 6.17392 11.9732 4.90215 11.0355 3.96447C10.0979 3.02678 8.82608 2.5 7.5 2.5C6.17392 2.5 4.90215 3.02678 3.96447 3.96447C3.02678 4.90215 2.5 6.17392 2.5 7.5C2.5 8.82608 3.02678 10.0979 3.96447 11.0355C4.90215 11.9732 6.17392 12.5 7.5 12.5ZM7.5 1.25C8.32076 1.25 9.13349 1.41166 9.89177 1.72575C10.6501 2.03984 11.3391 2.50022 11.9194 3.08058C12.4998 3.66095 12.9602 4.34994 13.2742 5.10823C13.5883 5.86651 13.75 6.67924 13.75 7.5C13.75 9.1576 13.0915 10.7473 11.9194 11.9194C10.7473 13.0915 9.1576 13.75 7.5 13.75C4.04375 13.75 1.25 10.9375 1.25 7.5C1.25 5.8424 1.90848 4.25269 3.08058 3.08058C4.25269 1.90848 5.8424 1.25 7.5 1.25ZM7.8125 4.375V7.65625L10.625 9.325L10.1562 10.0938L6.875 8.125V4.375H7.8125Z" fill="#999999"/>
</svg>
