<svg width="25" height="24" viewBox="0 0 25 24" fill="none" xmlns="http://www.w3.org/2000/svg">
<path opacity="0.4" d="M22.5 16.5V19.5C22.5 21 21.5 22 20 22H6.5C6.91 22 7.33 21.94 7.72 21.81C7.83 21.77 7.93999 21.73 8.04999 21.68C8.39999 21.54 8.74001 21.34 9.04001 21.08C9.13001 21.01 9.23001 20.92 9.32001 20.83L9.35999 20.79L16.16 14H20C21.5 14 22.5 15 22.5 16.5Z" fill="#13E0A0"/>
<path opacity="0.6" d="M18.87 11.2909L16.16 14.0009L9.35999 20.7909C10.06 20.0709 10.5 19.0809 10.5 18.0009V8.34094L13.21 5.63094C14.27 4.57094 15.69 4.57094 16.75 5.63094L18.87 7.75094C19.93 8.81094 19.93 10.2309 18.87 11.2909Z" fill="#13E0A0"/>
<path d="M8 2H5C3.5 2 2.5 3 2.5 4.5V18C2.5 18.27 2.52999 18.54 2.57999 18.8C2.60999 18.93 2.63999 19.06 2.67999 19.19C2.72999 19.34 2.78 19.49 2.84 19.63C2.85 19.64 2.85001 19.65 2.85001 19.65C2.86001 19.65 2.86001 19.65 2.85001 19.66C2.99001 19.94 3.15 20.21 3.34 20.46C3.45 20.59 3.56001 20.71 3.67001 20.83C3.78001 20.95 3.9 21.05 4.03 21.15L4.04001 21.16C4.29001 21.35 4.56 21.51 4.84 21.65C4.85 21.64 4.85001 21.64 4.85001 21.65C5.00001 21.72 5.15 21.77 5.31 21.82C5.44 21.86 5.57001 21.89 5.70001 21.92C5.96001 21.97 6.23 22 6.5 22C6.91 22 7.33 21.94 7.72 21.81C7.83 21.77 7.93999 21.73 8.04999 21.68C8.39999 21.54 8.74001 21.34 9.04001 21.08C9.13001 21.01 9.23001 20.92 9.32001 20.83L9.35999 20.79C10.06 20.07 10.5 19.08 10.5 18V4.5C10.5 3 9.5 2 8 2ZM6.5 19.5C5.67 19.5 5 18.83 5 18C5 17.17 5.67 16.5 6.5 16.5C7.33 16.5 8 17.17 8 18C8 18.83 7.33 19.5 6.5 19.5Z" fill="#13E0A0"/>
</svg>
