<svg width="60" height="60" viewBox="0 0 60 60" fill="none" xmlns="http://www.w3.org/2000/svg">
<rect width="60" height="60" rx="30" fill="#16A34A" fill-opacity="0.1"/>
<path d="M29.9981 20.3994C29.0434 20.3994 28.1277 20.7787 27.4525 21.4538C26.7774 22.129 26.3981 23.0446 26.3981 23.9994C26.3981 24.9542 26.7774 25.8699 27.4525 26.545C28.1277 27.2201 29.0434 27.5994 29.9981 27.5994C30.9529 27.5994 31.8686 27.2201 32.5437 26.545C33.2188 25.8699 33.5981 24.9542 33.5981 23.9994C33.5981 23.0446 33.2188 22.129 32.5437 21.4538C31.8686 20.7787 30.9529 20.3994 29.9981 20.3994ZM24.0617 29.9946C24.0209 30.1898 24.0005 30.3914 24.0005 30.5994V34.7994C23.9997 35.6706 24.1891 36.5315 24.5553 37.322C24.9215 38.1125 25.4558 38.8135 26.1209 39.3762L25.9157 39.4362C25.3068 39.5996 24.6717 39.6413 24.0466 39.5592C23.4216 39.477 22.8188 39.2725 22.2728 38.9574C21.7267 38.6423 21.2481 38.2227 20.8643 37.7225C20.4805 37.2224 20.1989 36.6516 20.0357 36.0426L19.2593 33.1446C19.1982 32.9163 19.1826 32.6781 19.2135 32.4438C19.2444 32.2094 19.3211 31.9834 19.4394 31.7787C19.5576 31.574 19.715 31.3946 19.9025 31.2507C20.0901 31.1069 20.3042 31.0014 20.5325 30.9402L24.0617 29.9946ZM33.8801 39.3762C34.5452 38.8135 35.0795 38.1125 35.4458 37.322C35.812 36.5315 36.0013 35.6706 36.0005 34.7994V30.5994C35.9997 30.3914 35.9797 30.1898 35.9405 29.9946L39.4685 30.9402C39.9295 31.0639 40.3224 31.3657 40.5609 31.7791C40.7995 32.1924 40.8641 32.6836 40.7405 33.1446L39.9641 36.0426C39.7963 36.6688 39.5033 37.2545 39.1029 37.7644C38.7025 38.2743 38.2029 38.6977 37.6343 39.0092C37.0658 39.3208 36.44 39.5139 35.7948 39.577C35.1496 39.64 34.4982 39.5717 33.8801 39.3762ZM37.7981 22.7994C37.0025 22.7994 36.2394 23.1155 35.6768 23.6781C35.1142 24.2407 34.7981 25.0038 34.7981 25.7994C34.7981 26.5951 35.1142 27.3581 35.6768 27.9207C36.2394 28.4833 37.0025 28.7994 37.7981 28.7994C38.5938 28.7994 39.3568 28.4833 39.9195 27.9207C40.4821 27.3581 40.7981 26.5951 40.7981 25.7994C40.7981 25.0038 40.4821 24.2407 39.9195 23.6781C39.3568 23.1155 38.5938 22.7994 37.7981 22.7994ZM22.1981 22.7994C21.4025 22.7994 20.6394 23.1155 20.0768 23.6781C19.5142 24.2407 19.1981 25.0038 19.1981 25.7994C19.1981 26.5951 19.5142 27.3581 20.0768 27.9207C20.6394 28.4833 21.4025 28.7994 22.1981 28.7994C22.9938 28.7994 23.7568 28.4833 24.3195 27.9207C24.8821 27.3581 25.1981 26.5951 25.1981 25.7994C25.1981 25.0038 24.8821 24.2407 24.3195 23.6781C23.7568 23.1155 22.9938 22.7994 22.1981 22.7994ZM26.9981 28.7994C26.5207 28.7994 26.0629 28.9891 25.7253 29.3266C25.3878 29.6642 25.1981 30.122 25.1981 30.5994V34.7994C25.1981 36.0725 25.7038 37.2934 26.604 38.1935C27.5042 39.0937 28.7251 39.5994 29.9981 39.5994C31.2712 39.5994 32.4921 39.0937 33.3922 38.1935C34.2924 37.2934 34.7981 36.0725 34.7981 34.7994V30.5994C34.7981 30.122 34.6085 29.6642 34.2709 29.3266C33.9334 28.9891 33.4755 28.7994 32.9981 28.7994H26.9981Z" fill="#16A34A"/>
</svg>
