<svg width="16" height="16" viewBox="0 0 16 16" fill="none" xmlns="http://www.w3.org/2000/svg">
<path d="M8 3.33333C7.73478 3.33333 7.48043 3.43869 7.29289 3.62623C7.10535 3.81376 7 4.06812 7 4.33333C7 4.59855 7.10535 4.8529 7.29289 5.04044C7.48043 5.22798 7.73478 5.33333 8 5.33333C8.26521 5.33333 8.51957 5.22798 8.70711 5.04044C8.89464 4.8529 9 4.59855 9 4.33333C9 4.06812 8.89464 3.81376 8.70711 3.62623C8.51957 3.43869 8.26521 3.33333 8 3.33333ZM5.66667 4.33333C5.66667 4.02692 5.72702 3.7235 5.84428 3.44041C5.96154 3.15731 6.13341 2.90009 6.35008 2.68342C6.56675 2.46675 6.82398 2.29488 7.10707 2.17761C7.39016 2.06035 7.69358 2 8 2C8.30642 2 8.60983 2.06035 8.89293 2.17761C9.17602 2.29488 9.43324 2.46675 9.64991 2.68342C9.86658 2.90009 10.0385 3.15731 10.1557 3.44041C10.273 3.7235 10.3333 4.02692 10.3333 4.33333C10.3333 4.95217 10.0875 5.54566 9.64991 5.98325C9.21233 6.42083 8.61884 6.66667 8 6.66667C7.38116 6.66667 6.78767 6.42083 6.35008 5.98325C5.9125 5.54566 5.66667 4.95217 5.66667 4.33333ZM3.33333 5.33333C3.15652 5.33333 2.98695 5.40357 2.86193 5.5286C2.7369 5.65362 2.66666 5.82319 2.66666 6C2.66666 6.17681 2.7369 6.34638 2.86193 6.4714C2.98695 6.59643 3.15652 6.66667 3.33333 6.66667C3.51014 6.66667 3.67971 6.59643 3.80474 6.4714C3.92976 6.34638 4 6.17681 4 6C4 5.82319 3.92976 5.65362 3.80474 5.5286C3.67971 5.40357 3.51014 5.33333 3.33333 5.33333ZM1.33333 6C1.33333 5.46957 1.54405 4.96086 1.91912 4.58579C2.29419 4.21071 2.8029 4 3.33333 4C3.86376 4 4.37247 4.21071 4.74755 4.58579C5.12262 4.96086 5.33333 5.46957 5.33333 6C5.33333 6.53043 5.12262 7.03914 4.74755 7.41421C4.37247 7.78929 3.86376 8 3.33333 8C2.8029 8 2.29419 7.78929 1.91912 7.41421C1.54405 7.03914 1.33333 6.53043 1.33333 6ZM12 6C12 5.82319 12.0702 5.65362 12.1953 5.5286C12.3203 5.40357 12.4899 5.33333 12.6667 5.33333C12.8435 5.33333 13.013 5.40357 13.1381 5.5286C13.2631 5.65362 13.3333 5.82319 13.3333 6C13.3333 6.17681 13.2631 6.34638 13.1381 6.4714C13.013 6.59643 12.8435 6.66667 12.6667 6.66667C12.4899 6.66667 12.3203 6.59643 12.1953 6.4714C12.0702 6.34638 12 6.17681 12 6ZM12.6667 4C12.1362 4 11.6275 4.21071 11.2525 4.58579C10.8774 4.96086 10.6667 5.46957 10.6667 6C10.6667 6.53043 10.8774 7.03914 11.2525 7.41421C11.6275 7.78929 12.1362 8 12.6667 8C13.1971 8 13.7058 7.78929 14.0809 7.41421C14.456 7.03914 14.6667 6.53043 14.6667 6C14.6667 5.46957 14.456 4.96086 14.0809 4.58579C13.7058 4.21071 13.1971 4 12.6667 4ZM5.33333 9.66667C5.33333 8.74667 6.08 8 7 8H9C9.92 8 10.6667 8.74667 10.6667 9.66667V11.3333C10.6667 12.0406 10.3857 12.7189 9.88562 13.219C9.38552 13.719 8.70724 14 8 14C7.29275 14 6.61448 13.719 6.11438 13.219C5.61428 12.7189 5.33333 12.0406 5.33333 11.3333V9.66667ZM7 9.33333C6.91159 9.33333 6.82681 9.36845 6.7643 9.43096C6.70178 9.49348 6.66667 9.57826 6.66667 9.66667V11.3333C6.66667 11.687 6.80714 12.0261 7.05719 12.2761C7.30724 12.5262 7.64638 12.6667 8 12.6667C8.35362 12.6667 8.69276 12.5262 8.94281 12.2761C9.19286 12.0261 9.33333 11.687 9.33333 11.3333V9.66667C9.33333 9.57826 9.29821 9.49348 9.2357 9.43096C9.17319 9.36845 9.0884 9.33333 9 9.33333H7ZM4 9.66667C4 9.28133 4.072 8.91333 4.20533 8.576L2.564 9.016C2.13728 9.13039 1.77343 9.40951 1.55242 9.79204C1.33141 10.1746 1.27131 10.6292 1.38533 11.056L1.644 12.0227C1.73466 12.361 1.89108 12.6781 2.10432 12.956C2.31756 13.2338 2.58345 13.4669 2.8868 13.642C3.19015 13.8171 3.52501 13.9307 3.87227 13.9763C4.21953 14.022 4.57238 13.9987 4.91067 13.908L4.93333 13.9013C4.62576 13.5349 4.38641 13.1163 4.22667 12.6653C3.93203 12.6668 3.64519 12.5707 3.41096 12.392C3.17673 12.2132 3.00831 11.9619 2.932 11.6773L2.67333 10.7107C2.65054 10.6253 2.66259 10.5343 2.70685 10.4578C2.75111 10.3813 2.82394 10.3255 2.90933 10.3027L4 10.0093V9.66667ZM11.088 13.9067L11.0667 13.9027C11.3707 13.5387 11.612 13.1213 11.7733 12.6653C12.0677 12.6665 12.3543 12.5703 12.5882 12.3916C12.8222 12.2128 12.9904 11.9617 13.0667 11.6773L13.324 10.7107C13.3468 10.6253 13.3347 10.5343 13.2905 10.4578C13.2462 10.3813 13.1734 10.3255 13.088 10.3027L12 10.0107V9.66667C12 9.28133 11.928 8.91467 11.796 8.576L13.4333 9.016C13.8601 9.13039 14.2239 9.40951 14.4449 9.79204C14.6659 10.1746 14.726 10.6292 14.612 11.056L14.3533 12.0227C14.2627 12.361 14.1063 12.6781 13.893 12.956C13.6798 13.2338 13.4139 13.4669 13.1105 13.642C12.8072 13.8171 12.4723 13.9307 12.1251 13.9763C11.7778 14.022 11.425 13.9987 11.0867 13.908" fill="white"/>
</svg>
