<svg width="24" height="24" viewBox="0 0 24 24" fill="none" xmlns="http://www.w3.org/2000/svg">
<path opacity="0.4" d="M10.24 14.7402C9.90999 14.4102 9.46999 14.2202 8.99999 14.2202H3.91999C3.30999 14.2202 2.74999 14.5302 2.42999 15.0502C2.10999 15.5602 2.07999 16.1702 2.33999 16.7102C3.56999 19.2302 5.78999 21.2102 8.42999 22.1402C8.60999 22.2002 8.80999 22.2402 8.99999 22.2402C9.34999 22.2402 9.69999 22.1302 9.99999 21.9202C10.47 21.5902 10.75 21.0502 10.75 20.4802L10.76 15.9802C10.75 15.5102 10.57 15.0702 10.24 14.7402Z" fill="#292D32"/>
<path d="M22.48 9.6C21.36 4.68 17.05 1.25 12 1.25C6.95005 1.25 2.64005 4.68 1.52005 9.6C1.40005 10.12 1.52005 10.65 1.86005 11.07C2.20005 11.49 2.70005 11.73 3.24005 11.73H20.7701C21.3101 11.73 21.81 11.49 22.15 11.07C22.48 10.65 22.6 10.11 22.48 9.6Z" fill="#292D32"/>
<path opacity="0.4" d="M21.56 15.1C21.24 14.58 20.68 14.26 20.06 14.26L15 14.25C14.53 14.25 14.09 14.43 13.76 14.76C13.43 15.09 13.25 15.53 13.25 16L13.26 20.48C13.26 21.05 13.54 21.59 14.01 21.92C14.31 22.13 14.66 22.24 15.01 22.24C15.2 22.24 15.39 22.21 15.57 22.14C18.19 21.22 20.41 19.25 21.64 16.76C21.9 16.23 21.87 15.61 21.56 15.1Z" fill="#292D32"/>
</svg>
