<svg width="51" height="52" viewBox="0 0 51 52" fill="none" xmlns="http://www.w3.org/2000/svg">
<rect y="0.5" width="51" height="51" rx="11.3333" fill="#DDD4E1"/>
<path opacity="0.32" d="M33.2054 21.0866C32.9928 21.0866 32.7944 21.1585 32.6385 21.2799C32.3645 20.664 31.7267 20.2324 30.985 20.2324C29.9929 20.2324 29.1898 20.9967 29.1898 21.9408H32.3078H32.7802H34.103C34.103 21.4687 33.7015 21.0866 33.2054 21.0866Z" fill="white"/>
<path d="M24.0448 31.4492H16.3253V40.1618H24.0448V31.4492Z" fill="#EA633A"/>
<path d="M23.6953 35.8506H22.845V36.2237H23.6953V35.8506Z" fill="#D85335"/>
<path d="M17.1757 34.6279H16.3253V35.0011H17.1757V34.6279Z" fill="#D85335"/>
<path d="M20.1617 38.373H19.3113V38.7462H20.1617V38.373Z" fill="#D85335"/>
<path d="M21.7867 39.7666H20.9364V40.1397H21.7867V39.7666Z" fill="#D85335"/>
<path d="M23.223 35.3877H22.3726V35.7608H23.223V35.3877Z" fill="#D85335"/>
<path d="M24.0448 31.4492H16.3253V33.5172H24.0448V31.4492Z" fill="#CE4829"/>
<path d="M25.6653 33.0583H14.601L17.4497 25.8652H28.5188L25.6653 33.0583Z" fill="#EC1E39"/>
<path d="M16.4484 32.1914H15.598V32.5645H16.4484V32.1914Z" fill="#F22F50"/>
<path d="M16.9349 31.7285H16.0845V32.1017H16.9349V31.7285Z" fill="#DD1738"/>
<path d="M15.9759 31.7285H15.1255V32.1017H15.9759V31.7285Z" fill="#F22F50"/>
<path d="M18.2672 27.3271H17.4168V27.7003H18.2672V27.3271Z" fill="#F22F50"/>
<path d="M17.7948 26.8594H16.9444V27.2325H17.7948V26.8594Z" fill="#F22F50"/>
<path opacity="0.82" d="M24.1348 33.0586L23.3364 30.1049L22.7364 30.568C22.4766 30.7658 22.0986 30.7208 21.9002 30.4691C21.7112 30.2263 21.7632 29.8846 22.0136 29.7003L26.0009 26.8006C26.2135 26.6478 26.5064 26.6478 26.7143 26.8051L27.9851 27.7582L24.1348 33.0586Z" fill="#C91B38"/>
<path d="M23.0435 24.2334H21.2294V25.8653H23.0435V24.2334Z" fill="#1C1931"/>
<path d="M22.9866 25.2725H22.2874V25.6456H22.9866V25.2725Z" fill="#272544"/>
<path d="M21.7865 24.8994H21.1345V25.2726H21.7865V24.8994Z" fill="#272544"/>
<path d="M23.5016 23.582H20.7757V24.2339H23.5016V23.582Z" fill="#282642"/>
<path d="M22.2639 34.0518H18.1065V37.2886H22.2639V34.0518Z" fill="#71B8BC"/>
<path opacity="0.62" d="M18.1065 35.8905V37.0773L20.5206 34.0518H19.571L18.1065 35.8905Z" fill="#D0F6FB"/>
<path opacity="0.62" d="M18.2625 37.2886H18.735L21.3192 34.0518H20.8467L18.2625 37.2886Z" fill="#D0F6FB"/>
<path d="M22.5001 37.4697H17.8703V38.0092H22.5001V37.4697Z" fill="#D14D2F"/>
<path d="M22.5001 37.2891H17.8703V37.8285H22.5001V37.2891Z" fill="#656B82"/>
<path d="M41.9169 32.3658C42.6445 33.5212 43.1736 37.302 40.8918 37.302C38.6147 37.302 39.1438 33.5212 39.8666 32.3658C40.169 31.8892 40.5658 31.6689 40.8918 31.6689C41.2177 31.6689 41.6146 31.8892 41.9169 32.3658Z" fill="#1FBE6A"/>
<path d="M39.7391 31.0627C40.4666 32.4114 40.9958 36.8262 38.7139 36.8262C36.4321 36.8262 36.9659 32.4114 37.6887 31.0627C37.9911 30.5053 38.3879 30.249 38.7139 30.249C39.0399 30.249 39.4367 30.5053 39.7391 31.0627Z" fill="#2CDF78"/>
<path d="M12.8389 36.6915C11.8563 36.6915 11.1098 35.7294 11.1051 34.6819C11.0768 32.043 11.7854 29.2377 12.9523 26.3694C13.0043 26.2391 13.1744 26.2436 13.2216 26.3784C14.2373 29.3006 14.7098 32.0834 14.5775 34.7449C14.535 35.7744 13.798 36.6915 12.8389 36.6915Z" fill="#2BCCA0"/>
<path d="M10.7555 29.0255C11.4831 30.581 12.0122 35.6701 9.73036 35.6701C7.44851 35.6701 7.98236 30.581 8.70518 29.0255C9.00754 28.3827 9.40438 28.0859 9.73036 28.0859C10.0563 28.0859 10.4579 28.3827 10.7555 29.0255Z" fill="#21AA7F"/>
<path d="M8.57763 31.0627C9.30517 32.4114 9.8343 36.8262 7.55245 36.8262C5.27061 36.8262 5.80446 32.4114 6.52728 31.0627C6.82963 30.5053 7.22647 30.249 7.55245 30.249C7.87843 30.249 8.28 30.5053 8.57763 31.0627Z" fill="#2BCCA0"/>
<path d="M35.3928 40.1661H24.045V28.6167L29.7189 23.9727L35.3928 28.6167V40.1661Z" fill="#FF9839"/>
<path d="M35.407 31.3545H34.5566V31.7276H35.407V31.3545Z" fill="#ED852F"/>
<path d="M34.9344 31.8174H34.084V32.1905H34.9344V31.8174Z" fill="#ED852F"/>
<path d="M34.462 31.3545H33.6116V31.7276H34.462V31.3545Z" fill="#ED852F"/>
<path d="M30.9708 27.4297H30.1204V27.8028H30.9708V27.4297Z" fill="#ED852F"/>
<path d="M25.3678 31.8174H24.5174V32.1905H25.3678V31.8174Z" fill="#ED852F"/>
<path d="M34.3345 38.1572H33.4841V38.5304H34.3345V38.1572Z" fill="#ED852F"/>
<path d="M27.6638 29.1523H26.8134V29.5255H27.6638V29.1523Z" fill="#ED852F"/>
<path d="M24.8954 31.3545H24.045V31.7276H24.8954V31.3545Z" fill="#ED852F"/>
<path d="M24.4701 26.0361H23.6197V26.4093H24.4701V26.0361Z" fill="#DD1738"/>
<path d="M22.6889 31.584H21.8385V31.9571H22.6889V31.584Z" fill="#DD1738"/>
<path d="M30.0873 35.2969H29.2369V35.67H30.0873V35.2969Z" fill="#ED852F"/>
<path d="M29.6149 34.834H28.7646V35.2071H29.6149V34.834Z" fill="#ED852F"/>
<path d="M24.045 28.6167V29.318L29.7048 24.7549L35.3928 29.336V28.6167L29.7189 23.9727L24.045 28.6167Z" fill="#EA633A"/>
<path d="M33.4842 34.0518H30.0827V40.1659H33.4842V34.0518Z" fill="#99393E"/>
<path d="M33.484 34.0518H33.0966V40.1659H33.484V34.0518Z" fill="#822E36"/>
<path d="M28.7646 34.0518H25.8355V37.2886H28.7646V34.0518Z" fill="#89C6CC"/>
<path opacity="0.92" d="M25.8355 36.7447L27.9851 34.0518H27.0355L25.8355 35.5578V36.7447Z" fill="#D0F6FB"/>
<path opacity="0.92" d="M28.7646 34.0787V34.0518H28.311L25.8355 37.1538V37.2886H26.1993L28.7646 34.0787Z" fill="#D0F6FB"/>
<path d="M29.0951 37.4697H25.5046V38.0092H29.0951V37.4697Z" fill="#EA633A"/>
<path d="M29.0951 37.2891H25.5046V37.8285H29.0951V37.2891Z" fill="#656B82"/>
<path d="M29.7187 30.3663C30.4753 30.3663 31.0887 29.7826 31.0887 29.0625C31.0887 28.3425 30.4753 27.7588 29.7187 27.7588C28.962 27.7588 28.3486 28.3425 28.3486 29.0625C28.3486 29.7826 28.962 30.3663 29.7187 30.3663Z" fill="#98AAB5"/>
<path d="M29.7188 27.7588C29.5866 27.7588 29.459 27.7768 29.3409 27.8082C29.9125 27.9656 30.333 28.4646 30.333 29.0625C30.333 29.656 29.9125 30.1595 29.3409 30.3168C29.459 30.3483 29.5866 30.3663 29.7188 30.3663C30.4747 30.3663 31.0889 29.7818 31.0889 29.0625C31.0889 28.3387 30.4747 27.7588 29.7188 27.7588Z" fill="#7B929E"/>
<path d="M34.0511 40.1658H29.5157V39.8062C29.5157 39.46 29.8134 39.1768 30.1771 39.1768H33.3897C33.7534 39.1768 34.0511 39.46 34.0511 39.8062V40.1658Z" fill="#6E818E"/>
<path d="M34.0511 39.7441H29.5157V40.1622H34.0511V39.7441Z" fill="#5C6F7A"/>
<path d="M36.9849 29.4575C36.8242 29.6418 36.5313 29.6688 36.3376 29.5115L29.7047 24.1661L23.0718 29.5115C22.8781 29.6688 22.5899 29.6418 22.4245 29.4575C22.2639 29.2732 22.2875 29.0035 22.4812 28.8506L29.0008 23.6042L29.7094 23.0332L30.4133 23.6042L36.9329 28.8506C37.1219 28.999 37.1455 29.2732 36.9849 29.4575Z" fill="#FF4B53"/>
<path d="M25.2496 27.5693H24.5693V27.9425H25.2496V27.5693Z" fill="#EA3F54"/>
<path d="M30.2575 23.626H29.6291V23.9991H30.2575V23.626Z" fill="#EA3F54"/>
<path d="M16.6937 40.166H16.0323V36.2547L16.363 35.6973L16.6937 36.2547V40.166Z" fill="#663333"/>
<path d="M14.9365 40.166H14.2751V36.2547L14.6058 35.6973L14.9365 36.2547V40.166Z" fill="#663333"/>
<path d="M13.1837 40.166H12.5223V36.2547L12.853 35.6973L13.1837 36.2547V40.166Z" fill="#663333"/>
<path d="M11.431 40.166H10.7696V36.2547L11.1003 35.6973L11.431 36.2547V40.166Z" fill="#663333"/>
<path d="M9.67814 40.166H9.01674V36.2547L9.34744 35.6973L9.67814 36.2547V40.166Z" fill="#663333"/>
<path d="M32.681 35.0762H30.8905V36.7351H32.681V35.0762Z" fill="#89C6CC"/>
<path opacity="0.92" d="M30.8905 36.344L31.9015 35.0762H30.9567L30.8905 35.1571V36.344Z" fill="#D0F6FB"/>
<path opacity="0.92" d="M32.1708 35.0762L30.8905 36.6811V36.7351H31.0842L32.407 35.0762H32.1708Z" fill="#D0F6FB"/>
<path opacity="0.32" d="M13.7743 19.4862C13.779 19.4502 13.779 19.4098 13.779 19.3738C13.779 18.686 13.1932 18.1285 12.4704 18.1285C12.22 18.1285 11.9885 18.1959 11.7901 18.3083C11.6247 18.1959 11.4216 18.1285 11.2042 18.1285C11.1239 18.1285 11.0483 18.1375 10.9728 18.1555C10.8641 17.5216 10.2877 17.036 9.58854 17.036C9.44681 17.036 9.3098 17.054 9.18224 17.0945C8.80902 16.8158 8.34132 16.6494 7.83109 16.6494C6.74922 16.6494 5.8516 17.3912 5.66736 18.3713C5.65791 18.3713 5.64373 18.3713 5.63428 18.3713C4.93509 18.3713 4.35872 18.8568 4.25006 19.4907H13.7743V19.4862Z" fill="white"/>
<path opacity="0.32" d="M46.75 17.9667C46.6555 17.8318 46.4901 17.7419 46.3059 17.7419C46.2067 17.7419 46.1122 17.7689 46.0319 17.8138C46.0177 17.3733 45.635 17.0226 45.1721 17.0226C45.0398 17.0226 44.9169 17.0496 44.8083 17.099C44.6099 16.5101 44.0288 16.083 43.3438 16.083C42.4981 16.083 41.8083 16.7349 41.8083 17.5441C41.8083 17.6925 41.832 17.8318 41.8745 17.9667H46.75Z" fill="white"/>
</svg>
