<svg width="44" height="44" viewBox="0 0 44 44" fill="none" xmlns="http://www.w3.org/2000/svg">
<rect width="44" height="44" rx="8" fill="#FFCC00" fill-opacity="0.08"/>
<path d="M19.0013 31.0012C19.0013 30.1444 19.0013 29.7172 18.9545 29.4329C18.8081 28.5173 18.7829 28.4585 18.1985 27.7385C18.0161 27.5141 17.3441 26.9129 16.0001 25.7081C14.6415 24.493 13.6839 22.8941 13.254 21.1229C12.824 19.3517 12.942 17.4917 13.5923 15.789C14.2425 14.0863 15.3945 12.6212 16.8956 11.5875C18.3968 10.5538 20.1764 10.0002 21.9991 10C23.8218 9.99982 25.6015 10.553 27.1029 11.5864C28.6043 12.6199 29.7565 14.0848 30.4071 15.7873C31.0577 17.4899 31.176 19.3499 30.7464 21.1211C30.3168 22.8924 29.3596 24.4915 28.0013 25.7069C26.6561 26.9117 25.9841 27.5141 25.8029 27.7373C25.2185 28.4573 25.1933 28.5161 25.0457 29.4317C25.0001 29.716 25.0001 30.1444 25.0001 31H19.0001C19.0001 32.122 19.0001 32.6824 19.2413 33.1C19.3992 33.3736 19.6265 33.6008 19.9001 33.7588C20.3177 34 20.8781 34 22.0001 34C23.1221 34 23.6825 34 24.1013 33.76C24.3749 33.602 24.6021 33.3748 24.7601 33.1012C25.0013 32.6836 25.0013 32.1232 25.0013 31.0012" stroke="#FFCC00" stroke-width="2"/>
<path d="M22 28.0004V25.6004M22 25.6004C22.4213 25.6004 22.8351 25.4894 23.2 25.2788C23.5648 25.0681 23.8678 24.7652 24.0784 24.4004M22 25.6004C21.5788 25.6004 21.1649 25.4894 20.8001 25.2788C20.4353 25.0681 20.1323 24.7652 19.9216 24.4004" stroke="#FFCC00" stroke-width="2" stroke-linecap="round"/>
</svg>
