<svg width="32" height="32" viewBox="0 0 32 32" fill="none" xmlns="http://www.w3.org/2000/svg">
<rect width="32" height="32" rx="16" fill="#CB30E0" fill-opacity="0.1"/>
<path d="M13.2007 9.33398H18.8007C20.934 9.33398 22.6673 11.0673 22.6673 13.2007V18.8007C22.6673 19.8262 22.2599 20.8097 21.5348 21.5348C20.8097 22.2599 19.8262 22.6673 18.8007 22.6673H13.2007C11.0673 22.6673 9.33398 20.934 9.33398 18.8007V13.2007C9.33398 12.1751 9.74136 11.1916 10.4665 10.4665C11.1916 9.74136 12.1751 9.33398 13.2007 9.33398ZM13.0673 10.6673C12.4308 10.6673 11.8203 10.9202 11.3703 11.3703C10.9202 11.8203 10.6673 12.4308 10.6673 13.0673V18.934C10.6673 20.2606 11.7407 21.334 13.0673 21.334H18.934C19.5705 21.334 20.181 21.0811 20.631 20.631C21.0811 20.181 21.334 19.5705 21.334 18.934V13.0673C21.334 11.7407 20.2606 10.6673 18.934 10.6673H13.0673ZM19.5007 11.6673C19.7217 11.6673 19.9336 11.7551 20.0899 11.9114C20.2462 12.0677 20.334 12.2796 20.334 12.5007C20.334 12.7217 20.2462 12.9336 20.0899 13.0899C19.9336 13.2462 19.7217 13.334 19.5007 13.334C19.2796 13.334 19.0677 13.2462 18.9114 13.0899C18.7551 12.9336 18.6673 12.7217 18.6673 12.5007C18.6673 12.2796 18.7551 12.0677 18.9114 11.9114C19.0677 11.7551 19.2796 11.6673 19.5007 11.6673ZM16.0007 12.6673C16.8847 12.6673 17.7326 13.0185 18.3577 13.6436C18.9828 14.2687 19.334 15.1166 19.334 16.0007C19.334 16.8847 18.9828 17.7326 18.3577 18.3577C17.7326 18.9828 16.8847 19.334 16.0007 19.334C15.1166 19.334 14.2687 18.9828 13.6436 18.3577C13.0185 17.7326 12.6673 16.8847 12.6673 16.0007C12.6673 15.1166 13.0185 14.2687 13.6436 13.6436C14.2687 13.0185 15.1166 12.6673 16.0007 12.6673ZM16.0007 14.0007C15.4702 14.0007 14.9615 14.2114 14.5864 14.5864C14.2114 14.9615 14.0007 15.4702 14.0007 16.0007C14.0007 16.5311 14.2114 17.0398 14.5864 17.4149C14.9615 17.7899 15.4702 18.0007 16.0007 18.0007C16.5311 18.0007 17.0398 17.7899 17.4149 17.4149C17.7899 17.0398 18.0007 16.5311 18.0007 16.0007C18.0007 15.4702 17.7899 14.9615 17.4149 14.5864C17.0398 14.2114 16.5311 14.0007 16.0007 14.0007Z" fill="#CB30E0"/>
</svg>
