<svg width="32" height="32" viewBox="0 0 32 32" fill="none" xmlns="http://www.w3.org/2000/svg">
<rect width="32" height="32" rx="16" fill="#0088FF" fill-opacity="0.1"/>
<path d="M10.6673 21.3327C10.3007 21.3327 9.98687 21.2022 9.72598 20.9413C9.4651 20.6805 9.33443 20.3665 9.33398 19.9993V11.9993C9.33398 11.6327 9.46465 11.3189 9.72598 11.058C9.98732 10.7971 10.3011 10.6665 10.6673 10.666H21.334C21.7007 10.666 22.0147 10.7967 22.276 11.058C22.5373 11.3193 22.6678 11.6331 22.6673 11.9993V19.9993C22.6673 20.366 22.5369 20.68 22.276 20.9413C22.0151 21.2027 21.7011 21.3331 21.334 21.3327H10.6673ZM16.0007 16.666L10.6673 13.3327V19.9993H21.334V13.3327L16.0007 16.666ZM16.0007 15.3327L21.334 11.9993H10.6673L16.0007 15.3327ZM10.6673 13.3327V11.9993V19.9993V13.3327Z" fill="#0088FF"/>
</svg>
