<svg width="24" height="24" viewBox="0 0 24 24" fill="none" xmlns="http://www.w3.org/2000/svg">
<path d="M5.05263 1.15307C5.05263 0.847259 5.18571 0.55397 5.4226 0.337727C5.65949 0.121484 5.98078 0 6.31579 0C6.6508 0 6.97209 0.121484 7.20898 0.337727C7.44586 0.55397 7.57895 0.847259 7.57895 1.15307V2.30614H15.1579V1.15307C15.1579 0.847259 15.291 0.55397 15.5279 0.337727C15.7648 0.121484 16.086 0 16.4211 0C16.7561 0 17.0774 0.121484 17.3142 0.337727C17.5511 0.55397 17.6842 0.847259 17.6842 1.15307V2.30614H20.2105C20.8805 2.30614 21.5231 2.54911 21.9969 2.9816C22.4707 3.41408 22.7368 4.00066 22.7368 4.61229V8.07151H0V4.61229C0 4.00066 0.266165 3.41408 0.739941 2.9816C1.21372 2.54911 1.8563 2.30614 2.52632 2.30614H5.05263V1.15307ZM18.9474 12.6838C19.2824 12.6838 19.6037 12.8053 19.8406 13.0215C20.0774 13.2378 20.2105 13.5311 20.2105 13.8369V16.143H22.7368C23.0719 16.143 23.3931 16.2645 23.63 16.4807C23.8669 16.697 24 16.9903 24 17.2961C24 17.6019 23.8669 17.8952 23.63 18.1114C23.3931 18.3277 23.0719 18.4492 22.7368 18.4492H20.2105V20.7553C20.2105 21.0611 20.0774 21.3544 19.8406 21.5706C19.6037 21.7869 19.2824 21.9084 18.9474 21.9084C18.6124 21.9084 18.2911 21.7869 18.0542 21.5706C17.8173 21.3544 17.6842 21.0611 17.6842 20.7553V18.4492H15.1579C14.8229 18.4492 14.5016 18.3277 14.2647 18.1114C14.0278 17.8952 13.8947 17.6019 13.8947 17.2961C13.8947 16.9903 14.0278 16.697 14.2647 16.4807C14.5016 16.2645 14.8229 16.143 15.1579 16.143H17.6842V13.8369C17.6842 13.5311 17.8173 13.2378 18.0542 13.0215C18.2911 12.8053 18.6124 12.6838 18.9474 12.6838ZM18.9474 10.3777C18.1593 10.3773 17.3908 10.6013 16.7487 11.0184C16.1067 11.4354 15.623 12.0248 15.3651 12.7046C15.2454 13.0086 15.0536 13.2848 14.8034 13.5132C14.5531 13.7417 14.2506 13.9168 13.9175 14.026C13.1918 14.2554 12.5596 14.6807 12.1046 15.2454C11.6495 15.8101 11.3931 16.4877 11.3693 17.1884C11.3455 17.8891 11.5554 18.5798 11.9711 19.1692C12.3869 19.7586 12.989 20.2188 13.6977 20.4889L13.9175 20.5662C14.0691 20.6146 14.2147 20.6777 14.3545 20.7553H2.52632C1.8563 20.7553 1.21372 20.5123 0.739941 20.0798C0.266165 19.6474 0 19.0608 0 18.4492V10.3777H18.9474Z" fill="#13E0A0"/>
</svg>
