<svg width="24" height="24" viewBox="0 0 24 24" fill="none" xmlns="http://www.w3.org/2000/svg">
<path d="M1.5 6.75C1.5 5.75544 1.89509 4.80161 2.59835 4.09835C3.30161 3.39509 4.25544 3 5.25 3H18.75C19.7446 3 20.6984 3.39509 21.4016 4.09835C22.1049 4.80161 22.5 5.75544 22.5 6.75V14.25C22.5 14.7425 22.403 15.2301 22.2145 15.6851C22.0261 16.14 21.7499 16.5534 21.4016 16.9017C21.0534 17.2499 20.64 17.5261 20.1851 17.7145C19.7301 17.903 19.2425 18 18.75 18H13.032L8.4375 22.02C8.22491 22.2059 7.96328 22.3265 7.68391 22.3676C7.40454 22.4087 7.11925 22.3685 6.86214 22.2517C6.60504 22.1349 6.38701 21.9466 6.23412 21.7092C6.08123 21.4718 5.99995 21.1954 6 20.913V18H5.25C4.25544 18 3.30161 17.6049 2.59835 16.9017C1.89509 16.1984 1.5 15.2446 1.5 14.25V6.75ZM5.25 4.5C4.65326 4.5 4.08097 4.73705 3.65901 5.15901C3.23705 5.58097 3 6.15326 3 6.75V14.25C3 14.8467 3.23705 15.419 3.65901 15.841C4.08097 16.2629 4.65326 16.5 5.25 16.5H7.5V20.847L12.468 16.5H18.75C19.3467 16.5 19.919 16.2629 20.341 15.841C20.7629 15.419 21 14.8467 21 14.25V6.75C21 6.15326 20.7629 5.58097 20.341 5.15901C19.919 4.73705 19.3467 4.5 18.75 4.5H5.25Z" fill="#ADADAD"/>
</svg>
