<svg width="73" height="88" viewBox="0 0 73 88" fill="none" xmlns="http://www.w3.org/2000/svg">
<g clip-path="url(#clip0_931_2911)">
<path d="M23.5645 57.9081L42.8819 52.0936M57.9961 48.7835L77.3135 42.969M56.3848 26.9616L52.1378 43.7308M48.7402 57.1462L44.4932 73.9154M30.3597 31.0773L44.5807 45.3859M56.2973 55.4912L70.5183 69.7997M81.4949 47.5969L76.8232 66.043M48.2499 80.2203L69.2442 74.8305M20.6135 62.5142L38.1883 77.6721M19.3831 53.2801L24.4796 33.1571M29.9569 25.6219L52.6282 20.6567M80.2646 38.3629L62.6897 23.205" stroke="#FFAE66" stroke-width="1.5" stroke-linejoin="round"/>
<path d="M56.3858 26.9626C59.1642 27.6663 61.987 25.9843 62.6906 23.2059C63.3943 20.4275 61.7124 17.6047 58.934 16.9011C56.1556 16.1974 53.3328 17.8793 52.6291 20.6577C51.9254 23.4361 53.6074 26.2589 56.3858 26.9626Z" stroke="#FFAE66" stroke-width="1.5" stroke-linejoin="round"/>
<path d="M41.9463 83.9763C44.7247 84.6799 47.5475 82.998 48.2512 80.2196C48.9549 77.4412 47.2729 74.6184 44.4945 73.9147C41.7161 73.2111 38.8933 74.893 38.1897 77.6714C37.486 80.4498 39.1679 83.2726 41.9463 83.9763Z" stroke="#FFAE66" stroke-width="1.5" stroke-linejoin="round"/>
<path d="M24.4795 33.1579C27.2579 33.8616 30.0807 32.1797 30.7844 29.4012C31.4881 26.6228 29.8061 23.8 27.0277 23.0964C24.2493 22.3927 21.4265 24.0746 20.7229 26.853C20.0192 29.6314 21.7011 32.4542 24.4795 33.1579Z" stroke="#FFAE66" stroke-width="1.5" stroke-linejoin="round"/>
<path d="M73.8506 77.7809C76.629 78.4846 79.4518 76.8027 80.1555 74.0243C80.8592 71.2459 79.1772 68.4231 76.3988 67.7194C73.6204 67.0157 70.7976 68.6977 70.094 71.4761C69.3903 74.2545 71.0722 77.0773 73.8506 77.7809Z" stroke="#FFAE66" stroke-width="1.5" stroke-linejoin="round"/>
<path d="M16.835 63.3415C19.6134 64.0452 22.4362 62.3632 23.1399 59.5848C23.8435 56.8064 22.1616 53.9836 19.3832 53.28C16.6048 52.5763 13.782 54.2582 13.0783 57.0366C12.3747 59.815 14.0566 62.6378 16.835 63.3415Z" stroke="#FFAE66" stroke-width="1.5" stroke-linejoin="round"/>
<path d="M52.3511 42.8922L58.1032 48.364L56.1921 55.9102L48.5288 57.9845L42.7767 52.5126L44.6879 44.9664L52.3511 42.8922Z" stroke="#FFAE66" stroke-width="1.5" stroke-linejoin="round"/>
</g>
<defs>
<clipPath id="clip0_931_2911">
<rect width="83.0336" height="83.0336" fill="white" transform="translate(20.3856) rotate(14.212)"/>
</clipPath>
</defs>
</svg>
