<svg width="20" height="20" viewBox="0 0 20 20" fill="none" xmlns="http://www.w3.org/2000/svg">
<path d="M5.89144e-07 12.5C-0.000464147 13.2758 0.274032 14.0327 0.785657 14.6662C1.29728 15.2998 2.02085 15.7789 2.85664 16.0375L2.85664 20H5.71329V16.0375C6.54962 15.7792 7.27382 15.3003 7.78608 14.6668C8.29834 14.0332 8.57343 13.2761 8.57343 12.5C8.57343 11.7239 8.29834 10.9668 7.78608 10.3333C7.27382 9.69967 6.54962 9.22075 5.71329 8.9625V0H2.85664L2.85664 8.9625C2.02085 9.2211 1.29728 9.7002 0.785657 10.3338C0.274032 10.9673 -0.000464147 11.7242 5.89144e-07 12.5ZM4.28496 13.75C3.90615 13.75 3.54285 13.6183 3.27499 13.3839C3.00713 13.1495 2.85664 12.8315 2.85664 12.5C2.85664 12.1685 3.00713 11.8505 3.27499 11.6161C3.54285 11.3817 3.90615 11.25 4.28496 11.25C4.66378 11.25 5.02708 11.3817 5.29494 11.6161C5.5628 11.8505 5.71329 12.1685 5.71329 12.5C5.71329 12.8315 5.5628 13.1495 5.29494 13.3839C5.02708 13.6183 4.66378 13.75 4.28496 13.75ZM11.4266 7.5C11.4261 8.27582 11.7006 9.03266 12.2122 9.66623C12.7239 10.2998 13.4474 10.7789 14.2832 11.0375V20H17.1399V11.0375C17.9762 10.7792 18.7004 10.3003 19.2127 9.66675C19.7249 9.03317 20 8.27614 20 7.5C20 6.72386 19.7249 5.96683 19.2127 5.33325C18.7004 4.69967 17.9762 4.22075 17.1399 3.9625V0H14.2832V3.9625C13.4474 4.2211 12.7239 4.7002 12.2122 5.33377C11.7006 5.96734 11.4261 6.72418 11.4266 7.5ZM15.7115 8.75C15.3327 8.75 14.9694 8.6183 14.7016 8.38388C14.4337 8.14946 14.2832 7.83152 14.2832 7.5C14.2832 7.16848 14.4337 6.85054 14.7016 6.61612C14.9694 6.3817 15.3327 6.25 15.7115 6.25C16.0903 6.25 16.4536 6.3817 16.7215 6.61612C16.9894 6.85054 17.1399 7.16848 17.1399 7.5C17.1399 7.83152 16.9894 8.14946 16.7215 8.38388C16.4536 8.6183 16.0903 8.75 15.7115 8.75Z" fill="#13E0A0"/>
</svg>
