<svg width="24" height="24" viewBox="0 0 24 24" fill="none" xmlns="http://www.w3.org/2000/svg">
<path d="M21.77 2.23086C21.47 1.93086 20.98 1.93086 20.68 2.23086L2.23 20.6909C1.93 20.9909 1.93 21.4809 2.23 21.7809C2.38 21.9209 2.57 22.0009 2.77 22.0009C2.97 22.0009 3.16 21.9209 3.31 21.7709L21.77 3.31086C22.08 3.01086 22.08 2.53086 21.77 2.23086Z" fill="#13E0A0"/>
<path opacity="0.4" d="M14.82 3.52087V9.18087L9.18001 14.8209V13.2809H6.09001C4.69001 13.2809 4.30001 12.4209 5.23001 11.3709L12 3.67087L12.8 2.76087C13.91 1.50087 14.82 1.84087 14.82 3.52087Z" fill="#13E0A0"/>
<path opacity="0.4" d="M18.77 12.6307L12 20.3307L11.2 21.2407C10.09 22.5007 9.17999 22.1607 9.17999 20.4807V17.8207L16.28 10.7207H17.91C19.31 10.7207 19.7 11.5807 18.77 12.6307Z" fill="#13E0A0"/>
</svg>
