<svg width="20" height="20" viewBox="0 0 20 20" fill="none" xmlns="http://www.w3.org/2000/svg">
<path fill-rule="evenodd" clip-rule="evenodd" d="M9.14552 2.5026C9.19431 2.71808 9.15552 2.94412 9.0377 3.13101C8.91987 3.31791 8.73265 3.45036 8.51719 3.49926C8.35367 3.53647 8.19161 3.57983 8.03136 3.62926C7.92679 3.66155 7.81689 3.67292 7.70793 3.66273C7.59897 3.65254 7.49309 3.62099 7.39632 3.56988C7.29955 3.51877 7.2138 3.4491 7.14396 3.36484C7.07412 3.28059 7.02156 3.18341 6.98927 3.07885C6.95699 2.97428 6.94562 2.86438 6.95581 2.75542C6.966 2.64646 6.99755 2.54058 7.04866 2.44381C7.09977 2.34704 7.16944 2.26129 7.25369 2.19145C7.33794 2.12161 7.43513 2.06905 7.53969 2.03676C7.73969 1.97454 7.94247 1.92037 8.14802 1.87426C8.25478 1.84999 8.36527 1.84698 8.47319 1.86542C8.58111 1.88387 8.68433 1.92339 8.77697 1.98174C8.8696 2.04009 8.94983 2.11613 9.01307 2.2055C9.07631 2.29487 9.12132 2.39582 9.14552 2.5026ZM10.8539 2.5026C10.9028 2.28714 11.0352 2.09992 11.2221 1.98209C11.409 1.86426 11.635 1.82548 11.8505 1.87426C15.5622 2.71593 18.3339 6.03426 18.3339 10.0009C18.3339 14.6034 14.6022 18.3343 10.0005 18.3343C6.03302 18.3343 2.71469 15.5634 1.87302 11.8518C1.82982 11.6384 1.87182 11.4166 1.99003 11.2338C2.10823 11.0511 2.29327 10.9218 2.50557 10.8737C2.71786 10.8255 2.94055 10.8624 3.12602 10.9764C3.31149 11.0903 3.44501 11.2723 3.49802 11.4834C3.7632 12.6449 4.33478 13.7141 5.15327 14.5797C5.97177 15.4454 7.00729 16.0759 8.15209 16.4057C9.29689 16.7355 10.5091 16.7524 11.6627 16.4548C12.8163 16.1573 13.8691 15.556 14.7115 14.7136C15.5539 13.8711 16.1552 12.8184 16.4528 11.6648C16.7504 10.5112 16.7334 9.29896 16.4036 8.15416C16.0739 7.00936 15.4433 5.97384 14.5777 5.15535C13.712 4.33685 12.6428 3.76528 11.4814 3.5001C11.2659 3.45102 11.0787 3.31836 10.961 3.1313C10.8434 2.94423 10.8048 2.71808 10.8539 2.5026ZM5.51136 3.93426C5.58588 4.0145 5.64386 4.10865 5.68198 4.21131C5.7201 4.31398 5.73761 4.42315 5.73351 4.53258C5.7294 4.64202 5.70377 4.74957 5.65808 4.8491C5.61238 4.94862 5.54752 5.03816 5.46719 5.1126C5.34386 5.22648 5.22525 5.34482 5.11136 5.4676C4.95997 5.62511 4.75279 5.71688 4.53441 5.72315C4.31603 5.72941 4.10393 5.64967 3.94376 5.50108C3.7836 5.3525 3.68819 5.14697 3.67808 4.92873C3.66797 4.7105 3.74396 4.49702 3.88969 4.33426C4.03136 4.18093 4.17914 4.03287 4.33302 3.8901C4.41327 3.81557 4.50741 3.75759 4.61008 3.71947C4.71274 3.68135 4.82191 3.66385 4.93135 3.66795C5.04078 3.67205 5.14833 3.69768 5.24786 3.74338C5.34738 3.78907 5.43692 3.85394 5.51136 3.93426ZM9.99969 5.00093C10.2207 5.00093 10.4327 5.08873 10.5889 5.24501C10.7452 5.40129 10.833 5.61325 10.833 5.83426V9.65593L13.0889 11.9118C13.2407 12.0689 13.3247 12.2794 13.3228 12.4979C13.3209 12.7164 13.2332 12.9254 13.0787 13.0799C12.9242 13.2345 12.7152 13.3221 12.4967 13.324C12.2782 13.3259 12.0677 13.2419 11.9105 13.0901L9.41052 10.5901C9.25423 10.4339 9.16641 10.2219 9.16636 10.0009V5.83426C9.16636 5.61325 9.25416 5.40129 9.41044 5.24501C9.56672 5.08873 9.77868 5.00093 9.99969 5.00093ZM3.07719 6.99093C3.28835 7.05605 3.465 7.20236 3.5683 7.3977C3.6716 7.59305 3.69308 7.82142 3.62802 8.0326C3.5786 8.19285 3.53523 8.35491 3.49802 8.51843C3.44501 8.72955 3.31149 8.91156 3.12602 9.02551C2.94055 9.13946 2.71786 9.17632 2.50557 9.1282C2.29327 9.08008 2.10823 8.9508 1.99003 8.76801C1.87182 8.58523 1.82982 8.36344 1.87302 8.1501C1.91969 7.94454 1.97386 7.74176 2.03552 7.54176C2.10064 7.3306 2.24696 7.15395 2.4423 7.05065C2.63764 6.94736 2.86601 6.92587 3.07719 6.99093Z" fill="#999999"/>
</svg>
