<svg width="44" height="44" viewBox="0 0 44 44" fill="none" xmlns="http://www.w3.org/2000/svg">
<rect width="44" height="44" rx="8" fill="#CB30E0" fill-opacity="0.08"/>
<path fill-rule="evenodd" clip-rule="evenodd" d="M26.3883 11.1251C26.7106 9.63365 28.8226 9.62165 29.1586 11.1131L29.2014 11.3068C29.394 12.188 29.8427 12.9927 30.4911 13.6198C31.1396 14.2469 31.9588 14.6684 32.846 14.8314C34.3837 15.1039 34.3837 17.3256 32.846 17.5982C31.9585 17.7609 31.1389 18.1823 30.4901 18.8094C29.8414 19.4365 29.3924 20.2413 29.1997 21.1228L29.1569 21.3165C28.8226 22.8079 26.7089 22.7959 26.3883 21.3045L26.3523 21.1382C26.1683 20.2537 25.7248 19.444 25.0783 18.8129C24.4318 18.1817 23.6119 17.7576 22.7232 17.5948C21.1872 17.3222 21.1872 15.1039 22.7232 14.8314C23.6117 14.6691 24.4317 14.2457 25.0785 13.6151C25.7252 12.9846 26.1693 12.1755 26.354 11.2914L27.1923 11.4714L26.3523 11.2914L26.3883 11.1251ZM16.9769 21.0371C17.5683 21.0371 18.0483 21.5171 18.0483 22.1085V23.0171H18.9569C19.241 23.0171 19.5136 23.13 19.7145 23.3309C19.9154 23.5318 20.0283 23.8043 20.0283 24.0885C20.0283 24.3727 19.9154 24.6452 19.7145 24.8461C19.5136 25.0471 19.241 25.1599 18.9569 25.1599H18.0483V26.0685C18.0483 26.3527 17.9354 26.6252 17.7345 26.8261C17.5336 27.0271 17.261 27.1399 16.9769 27.1399C16.6927 27.1399 16.4202 27.0271 16.2193 26.8261C16.0183 26.6252 15.9054 26.3527 15.9054 26.0685V25.1599H14.9969C14.7127 25.1599 14.4402 25.0471 14.2393 24.8461C14.0383 24.6452 13.9254 24.3727 13.9254 24.0885C13.9254 23.8043 14.0383 23.5318 14.2393 23.3309C14.4402 23.13 14.7127 23.0171 14.9969 23.0171H15.9054V22.1085C15.9054 21.5154 16.3854 21.0371 16.9769 21.0371ZM12.8523 22.5594C12.9599 21.5889 13.4216 20.6922 14.1491 20.0409C14.8766 19.3897 15.8187 19.0296 16.7952 19.0296H18.9654C19.2496 19.0296 19.5221 18.9168 19.7231 18.7158C19.924 18.5149 20.0369 18.2424 20.0369 17.9582C20.0369 17.6741 19.924 17.4015 19.7231 17.2006C19.5221 16.9997 19.2496 16.8868 18.9654 16.8868H16.7952C15.2918 16.8869 13.8412 17.4412 12.7209 18.4438C11.6006 19.4464 10.8894 20.8269 10.7232 22.3211L10.0306 28.5525C9.90377 29.6971 10.1836 30.8497 10.821 31.8088C11.4585 32.7678 12.413 33.472 13.5174 33.7982C14.6218 34.1244 15.8057 34.0517 16.8619 33.5929C17.9181 33.134 18.7792 32.3183 19.2946 31.2885L19.6014 30.6731H23.2666L23.5752 31.2902C24.0912 32.3191 24.9525 33.1337 26.0084 33.5917C27.0643 34.0498 28.2477 34.122 29.3515 33.7957C30.4552 33.4695 31.4092 32.7655 32.0464 31.807C32.6837 30.8486 32.9637 29.6966 32.8374 28.5525L32.2237 23.0325C32.2113 22.8902 32.1706 22.7518 32.104 22.6254C32.0373 22.4991 31.9461 22.3873 31.8356 22.2968C31.7251 22.2062 31.5976 22.1386 31.4607 22.0981C31.3237 22.0575 31.18 22.0447 31.038 22.0605C30.896 22.0762 30.7586 22.1203 30.6339 22.1899C30.5092 22.2596 30.3997 22.3535 30.3117 22.4661C30.2238 22.5787 30.1594 22.7077 30.1221 22.8456C30.0848 22.9835 30.0754 23.1275 30.0946 23.2691L30.7083 28.7891C30.7795 29.4334 30.6218 30.0822 30.263 30.6221C29.9042 31.162 29.3669 31.5585 28.7453 31.7424C28.1237 31.9262 27.4572 31.8857 26.8625 31.6279C26.2677 31.37 25.7825 30.9113 25.4917 30.3319L24.8883 29.1234C24.7985 28.9456 24.6613 28.7961 24.4919 28.6914C24.3225 28.5868 24.1274 28.531 23.9283 28.5302H18.9397C18.7406 28.531 18.5455 28.5868 18.3761 28.6914C18.2067 28.7961 18.0695 28.9456 17.9797 29.1234L17.3763 30.3302C17.0855 30.9093 16.6005 31.3678 16.006 31.6256C15.4114 31.8834 14.7452 31.924 14.1237 31.7404C13.5023 31.5568 12.9651 31.1607 12.6061 30.6212C12.2471 30.0817 12.0891 29.4332 12.1597 28.7891L12.8523 22.5594Z" fill="#CB30E0"/>
</svg>
