<svg width="16" height="16" viewBox="0 0 16 16" fill="none" xmlns="http://www.w3.org/2000/svg">
<g clip-path="url(#clip0_618_2564)">
<path fill-rule="evenodd" clip-rule="evenodd" d="M7.96167 0.833984C6.42234 0.833984 5.21634 0.833984 4.27501 0.960651C3.31234 1.08998 2.55234 1.36065 1.95567 1.95665C1.35901 2.55332 1.08901 3.31332 0.959675 4.27665C0.833008 5.21732 0.833008 6.42332 0.833008 7.96265V8.03865C0.833008 9.57798 0.833008 10.784 0.959675 11.7253C1.08901 12.688 1.35967 13.448 1.95567 14.0447C2.55234 14.6413 3.31234 14.9113 4.27567 15.0406C5.21634 15.1673 6.42234 15.1673 7.96167 15.1673H8.03767C9.57701 15.1673 10.783 15.1673 11.7243 15.0406C12.687 14.9113 13.447 14.6406 14.0437 14.0447C14.6403 13.448 14.9103 12.688 15.0397 11.7247C15.1663 10.784 15.1663 9.57798 15.1663 8.03865V7.96265C15.1663 6.42332 15.1663 5.21732 15.0397 4.27598C14.9103 3.31332 14.6397 2.55332 14.0437 1.95665C13.447 1.35998 12.687 1.08998 11.7237 0.960651C10.783 0.833984 9.57701 0.833984 8.03767 0.833984H7.96167ZM7.49967 1.83398C6.17034 1.83532 5.18167 1.84732 4.40901 1.95132C3.55634 2.06598 3.04234 2.28465 2.66234 2.66398C2.28301 3.04398 2.06501 3.55732 1.95034 4.40998C1.84701 5.18265 1.83434 6.17132 1.83301 7.50065H4.60901C4.36984 7.20145 4.19795 6.85424 4.10501 6.48265C3.74567 5.04732 5.04634 3.74665 6.48167 4.10598C6.85327 4.19892 7.20048 4.37082 7.49967 4.60998V1.83398ZM1.83301 8.50065C1.83434 9.82998 1.84634 10.8187 1.95034 11.5913C2.06501 12.444 2.28367 12.958 2.66301 13.338C3.04301 13.7173 3.55634 13.9353 4.40901 14.05C5.18167 14.1533 6.17034 14.166 7.49967 14.1673V9.41665C7.23662 9.94283 6.8322 10.3853 6.33175 10.6946C5.8313 11.0038 5.25461 11.1675 4.66634 11.1673C4.53373 11.1673 4.40656 11.1146 4.31279 11.0209C4.21902 10.9271 4.16634 10.7999 4.16634 10.6673C4.16634 10.5347 4.21902 10.4075 4.31279 10.3138C4.40656 10.22 4.53373 10.1673 4.66634 10.1673C5.15412 10.1674 5.62766 10.0029 6.01034 9.70047C6.39302 9.39801 6.66244 8.97526 6.77501 8.50065H1.83301ZM8.49967 14.1673C9.82901 14.166 10.8177 14.154 11.5903 14.05C12.443 13.9353 12.957 13.7167 13.337 13.3373C13.7163 12.9573 13.9343 12.444 14.049 11.5913C14.1523 10.8187 14.165 9.82998 14.1663 8.50065H9.22434C9.3369 8.97526 9.60633 9.39801 9.98901 9.70047C10.3717 10.0029 10.8452 10.1674 11.333 10.1673C11.4656 10.1673 11.5928 10.22 11.6866 10.3138C11.7803 10.4075 11.833 10.5347 11.833 10.6673C11.833 10.7999 11.7803 10.9271 11.6866 11.0209C11.5928 11.1146 11.4656 11.1673 11.333 11.1673C10.7447 11.1675 10.168 11.0038 9.6676 10.6946C9.16715 10.3853 8.76272 9.94283 8.49967 9.41665V14.1673ZM14.1663 7.50065H11.3903C11.6297 7.20151 11.8019 6.8543 11.895 6.48265C12.2537 5.04732 10.953 3.74665 9.51834 4.10598C9.14651 4.19883 8.79907 4.37074 8.49967 4.60998V1.83398C9.82901 1.83532 10.8177 1.84732 11.5903 1.95132C12.443 2.06598 12.957 2.28465 13.337 2.66398C13.7163 3.04398 13.9343 3.55732 14.049 4.40998C14.1523 5.18265 14.165 6.17132 14.1663 7.50065ZM8.49967 7.50065V6.68732C8.50081 6.31682 8.62537 5.95726 8.85367 5.66546C9.08198 5.37365 9.401 5.16624 9.76034 5.07598C9.92114 5.03583 10.0896 5.03798 10.2493 5.08224C10.409 5.1265 10.5546 5.21136 10.6718 5.32856C10.789 5.44575 10.8738 5.59129 10.9181 5.75101C10.9623 5.91073 10.9645 6.07918 10.9243 6.23998C10.8341 6.5991 10.6269 6.91796 10.3354 7.14624C10.0439 7.37452 9.68461 7.49921 9.31434 7.50065H8.49967ZM7.49967 6.68532C7.49809 6.31516 7.37333 5.95606 7.14506 5.66467C6.91679 5.37327 6.59802 5.16615 6.23901 5.07598C6.07821 5.03583 5.90975 5.03798 5.75003 5.08224C5.59031 5.1265 5.44477 5.21136 5.32758 5.32856C5.21038 5.44575 5.12553 5.59129 5.08127 5.75101C5.03701 5.91073 5.03485 6.07918 5.07501 6.23998C5.1652 6.5991 5.37242 6.91796 5.66395 7.14624C5.95549 7.37452 6.31474 7.49921 6.68501 7.50065H7.49967V6.68532Z" fill="#13E0A0"/>
</g>
<defs>
<clipPath id="clip0_618_2564">
<rect width="16" height="16" fill="white"/>
</clipPath>
</defs>
</svg>
