<svg width="16" height="16" viewBox="0 0 16 16" fill="none" xmlns="http://www.w3.org/2000/svg">
<g clip-path="url(#clip0_1286_3892)">
<path d="M7.38438 2.05C7.42188 2.05 7.46875 2.06875 7.50938 2.125C7.32812 1.86563 7.7125 1.97813 7.73438 1.73125C7.95312 1.56875 7.875 1.4625 7.9375 1.45625L8.00625 1.4C7.87188 1.45 7.825 1.45938 7.7875 1.45938H7.725C7.67812 1.45938 7.6 1.46875 7.41563 1.525C6.99375 1.55625 6.69063 2.0125 6.54688 2.025C6.4 2.10313 6.40625 2.11875 6.44063 2.11875C6.45 2.11875 6.4625 2.11562 6.475 2.11562C6.4875 2.11562 6.49687 2.1125 6.50625 2.1125C6.54063 2.1125 6.53125 2.12812 6.33125 2.22187C6.37813 2.23438 5.98125 2.40937 5.97813 2.68438C5.96563 2.79063 6.00938 2.8625 6.08125 2.8625C6.14375 2.8625 6.22188 2.81563 6.30625 2.69688C6.5875 2.37188 7.18125 2.34063 7.4375 2.14375C7.27812 2.13125 7.30938 2.05 7.38438 2.05ZM5.95625 2.15937C5.92813 2.15937 5.96562 2.125 6.00625 2.09063C6.05 2.05625 6.1 2.02187 6.1 2.02187L6.09688 2.025C6.26562 1.95938 6.1625 1.94375 6.25313 1.9H6.24687C6.22812 1.9 6.2625 1.875 6.29375 1.84687C6.325 1.82187 6.35312 1.79375 6.325 1.79375C6.30937 1.79375 6.26875 1.80312 6.2 1.83125C6.22187 1.8 6.30625 1.77812 6.425 1.7125C6.25313 1.76875 6.11875 1.80313 6.10313 1.80313C6.09063 1.80313 6.1625 1.77812 6.37813 1.7125C6.3875 1.7125 6.39687 1.71563 6.40312 1.71563C6.425 1.71563 6.43438 1.70938 6.43125 1.70312C6.42812 1.69687 6.41563 1.69375 6.39375 1.69375C6.08438 1.71875 5.85313 1.9125 5.92188 1.9375C5.9625 1.925 5.99062 1.91875 6.00938 1.91875C6.05 1.91875 6.03125 1.95312 5.95 2.00312C5.9875 2.09063 5.325 2.31562 5.25 2.39687C5.2875 2.375 5.3125 2.36875 5.325 2.36875C5.375 2.36875 5.30938 2.46563 5.24375 2.5125C5.28438 2.55 5.31562 2.5625 5.34062 2.5625C5.40625 2.5625 5.43437 2.47187 5.49062 2.44375C5.50312 2.46875 5.51562 2.48125 5.53125 2.48125C5.58437 2.48125 5.65 2.35 5.70312 2.28125C5.71875 2.29688 5.7375 2.30938 5.7625 2.30938C5.8125 2.30938 5.8875 2.26875 6.00625 2.15313C5.98125 2.15625 5.9625 2.15937 5.95625 2.15937ZM5.2375 2.73438C5.125 2.80312 5.06563 2.83125 5.04063 2.83125C4.99375 2.83125 5.05625 2.74375 5.1125 2.65313C5.16875 2.56562 5.21875 2.47813 5.14687 2.47813C5.1125 2.47813 5.05 2.49688 4.95 2.54688C4.67812 2.72813 4.21875 3.22813 4.01562 3.22813H3.99688C4.325 2.9875 4.22813 2.51562 4.6875 2.39375C5.14062 2.13437 5.45 2.21563 5.85313 1.91875C5.73438 1.97813 5.55938 2.04375 5.51875 2.04375C5.49375 2.04375 5.53125 2.0125 5.69375 1.93438C5.67812 1.9375 5.66563 1.94062 5.65625 1.94062C5.54688 1.94062 6.375 1.64375 6.41563 1.6375C6.075 1.68438 5.525 1.96875 5.45 1.96875C5.44062 1.96875 5.44063 1.96563 5.44063 1.95938C5.45312 1.95 5.45312 1.94375 5.44063 1.94375C5.4 1.94375 5.23125 2 5.05937 2.05625C4.89062 2.1125 4.71875 2.17188 4.68125 2.17188C4.66875 2.17188 4.66875 2.16563 4.6875 2.15313C3.2125 2.99062 1.98125 4.40312 1.59687 6.07812C1.75625 6.44375 1.64687 7.14062 1.90937 7.34375C2.20937 7.59688 1.65312 8.33125 1.8 8.78438C1.95 9.60313 2.59688 10.1625 2.66563 11C2.78438 11.575 3.21875 12.2781 3.4 12.6438C3.5375 12.7812 3.91563 13.1781 3.98125 13.1781C4.00625 13.1781 3.99062 13.1188 3.89062 12.9594C3.82812 12.7812 3.46563 12.3156 3.64062 12.3156C3.65 12.3156 3.65937 12.3156 3.67188 12.3188C3.45625 12.1 4.15 12.1594 3.66563 11.8625C3.60938 11.7937 3.59687 11.7719 3.60938 11.7719C3.625 11.7719 3.66875 11.7969 3.71875 11.8219C3.77187 11.8469 3.83438 11.8719 3.88438 11.8719C3.9625 11.8719 4.01562 11.8188 3.98438 11.625C3.99688 11.6313 4.00938 11.6313 4.01875 11.6313C4.1 11.6313 4.07188 11.4719 4.07812 11.3125C4.08437 11.1531 4.125 10.9937 4.34375 10.9937C4.36875 10.9937 4.39688 10.9969 4.425 11C4.93125 10.725 4.49062 9.96562 5.07188 9.6875C5.05 9.05625 4.20312 9.025 3.88438 8.76875C3.83125 8.8 3.78125 8.80937 3.73125 8.80937C3.675 8.80937 3.625 8.79688 3.58125 8.78125C3.5375 8.76875 3.49688 8.75313 3.46875 8.75313C3.4625 8.75313 3.45625 8.75313 3.45 8.75625C3.99375 8.6125 3.59687 7.85625 3.14687 7.85625H3.11562C3.08125 7.52812 2.9125 7.65312 2.89375 7.38125C2.86562 7.39687 2.8375 7.40312 2.80938 7.40312C2.73438 7.40312 2.66563 7.35 2.60625 7.3C2.54688 7.24688 2.49688 7.19688 2.45312 7.19688C2.41875 7.19688 2.3875 7.23125 2.35938 7.33125C2.39062 7.17813 2.38125 7.12813 2.35 7.12813C2.31875 7.12813 2.2625 7.18125 2.2 7.23438C2.14062 7.2875 2.07187 7.34062 2.01875 7.34062H2.00312C1.6375 7.08125 2.00625 6.62188 1.8125 6.26875C1.9375 6.13438 1.9875 5.90625 1.93125 5.90625C1.90312 5.90625 1.84687 5.9625 1.75937 6.11562C1.63437 5.79688 1.96563 5.075 2.24688 5.03438C2.25625 5.03438 2.2625 5.03125 2.27187 5.03125C2.32187 5.03125 2.37188 5.05625 2.41563 5.10938C2.44063 5.25625 2.37812 5.56563 2.40313 5.56563C2.41563 5.56563 2.44062 5.50312 2.50312 5.34062C2.58437 4.96875 3.15313 4.7 3.2125 4.47188C3.21563 4.475 3.21563 4.475 3.21875 4.475C3.28437 4.475 3.70625 4.10313 3.89062 4.0625C3.9625 3.99062 4.0125 3.96563 4.05 3.96563C4.09063 3.96563 4.1125 3.99688 4.12813 4.025C4.14375 4.05625 4.15625 4.08437 4.17188 4.08437C4.18437 4.08437 4.2 4.06562 4.22813 4.0125C4.13125 3.82187 4.38125 3.64062 4.3125 3.64062C4.2875 3.64062 4.2125 3.66563 4.05937 3.72813C4.03437 3.74063 4.02187 3.74375 4.01562 3.74375C3.99688 3.74375 4.07188 3.69375 4.18125 3.64375C4.29063 3.59375 4.42812 3.54375 4.54375 3.54375C4.6 3.54375 4.65 3.55625 4.6875 3.5875C5.17188 3.47188 4.90625 3.3125 4.93125 3.3125H4.9375C5.075 3.23125 5.03438 2.925 5.2375 2.73438ZM3.07188 4.0125C3.06563 4.0125 3.09375 3.97187 3.1875 3.85625C3.38125 3.7125 3.5375 3.61562 3.35938 3.52187C3.4375 3.4875 3.5125 3.44688 3.58437 3.40313C3.58125 3.55625 3.45312 3.92812 3.38438 3.92812C3.36875 3.92812 3.35312 3.90625 3.34687 3.85938C3.3875 3.7875 3.39062 3.75938 3.375 3.75938C3.35 3.75938 3.27812 3.82188 3.20937 3.8875C3.14062 3.94688 3.07812 4.0125 3.07188 4.0125ZM3.25 4.09688C3.16563 4.09688 3.18125 4.04375 3.44062 3.99062C3.55312 3.975 3.46562 3.98125 3.6 3.95C3.46875 4.05625 3.32188 4.09688 3.25 4.09688ZM8.10938 3.78125C8.14688 3.775 8.175 3.775 8.19687 3.775C8.2875 3.775 8.24688 3.8125 8.19375 3.85C8.14062 3.8875 8.075 3.925 8.1125 3.925C8.13438 3.925 8.19375 3.9125 8.31563 3.87812C8.93125 3.83437 8.075 3.3125 8.2125 3.1375L8.175 3.125C7.92188 3.44688 8.34375 3.45312 8.10938 3.78125ZM7.85313 3.79375C7.89687 3.79375 7.95312 3.74375 8.0125 3.60313C8.09375 3.50625 8.05937 3.49375 7.97188 3.44688C7.73125 3.50938 7.75313 3.79375 7.85313 3.79375ZM10.0094 4.78438C10 4.78438 9.99375 4.7875 9.9875 4.79063C10.0125 4.79688 10.0375 4.80312 10.0625 4.80312C10.0375 4.79063 10.0219 4.78438 10.0094 4.78438ZM14.2063 5.5625C14.2594 5.67812 14.2875 5.725 14.2906 5.725C14.3125 5.725 13.8969 4.7125 13.725 4.53125C12.8281 3.05625 11.3531 1.92813 9.67188 1.50625H9.66875C9.625 1.50625 9.675 1.52812 9.73438 1.55C9.79375 1.57187 9.86563 1.59375 9.86563 1.59375C9.86563 1.59375 9.81875 1.57812 9.675 1.5375C9.51562 1.49063 9.35312 1.45625 9.1875 1.44375C9.15938 1.45312 9.87188 1.73438 10.35 1.88125C10.1906 1.83125 10.025 1.7875 9.98438 1.7875C9.95625 1.7875 9.98438 1.80625 10.1 1.85625C9.95938 1.81563 9.9 1.79688 9.89375 1.79688C9.88438 1.79688 10.0813 1.8625 10.2656 1.92813C10.4531 1.99375 10.6313 2.05938 10.5813 2.05938C10.5688 2.05938 10.5344 2.05313 10.4812 2.04375C10.6406 2.13125 10.6969 2.16563 10.6875 2.16563C10.6719 2.16563 10.475 2.07188 10.2719 1.97812C10.0719 1.88437 9.86875 1.79062 9.84062 1.79062C9.825 1.79062 9.86563 1.82188 10.0031 1.90313C10.1906 1.98438 10.3781 2.06562 10.325 2.06562C10.3 2.06562 10.2281 2.05 10.0875 2.00938C10.4 2.16875 9.86563 2.10625 10.0469 2.32188C9.94687 2.22813 9.90625 2.19688 9.89688 2.19688C9.8875 2.19688 9.9125 2.23438 9.9375 2.27187C9.9625 2.30937 9.98125 2.34687 9.95938 2.34687H9.95312C10.1719 2.58437 9.8 2.37187 10.0656 2.58437C9.86563 2.49375 9.525 2.34375 9.67813 2.34375C9.71563 2.34375 9.7875 2.35312 9.9 2.37812C9.69687 2.14062 9.12187 2.13125 9.10938 2.10313C8.96562 2.1125 8.9625 2.22187 8.9875 2.42188C8.98438 2.7375 8.675 2.74375 8.71562 2.925C8.71562 2.92188 8.71875 2.92188 8.71875 2.92188C8.725 2.92188 8.72812 2.98438 8.74687 3.05C8.76875 3.1125 8.80625 3.17812 8.8875 3.17812C8.93125 3.17812 8.9875 3.15937 9.05625 3.1125C9.15312 3.2875 9.24062 3.35 9.30937 3.35C9.4125 3.35 9.475 3.20937 9.46875 3.08125C9.35625 3.01875 9.20937 2.5 9.37187 2.5C9.39687 2.5 9.42813 2.5125 9.46875 2.54063C9.21562 3.1625 10.4688 2.74688 9.75937 3.03125C9.91875 3.24062 9.65938 3.23125 9.73438 3.48438C9.6125 3.51875 9.47812 3.55 9.35938 3.55C9.18437 3.55 9.05 3.475 9.06563 3.2125C8.84688 3.32812 9.28438 3.71875 8.85 3.71875H8.825C8.61562 4.10313 7.83125 3.97188 8.44687 4.37813C8.48125 4.55625 8.36875 4.5875 8.225 4.5875C8.1875 4.5875 8.14687 4.58438 8.10625 4.58125C8.06563 4.57812 8.025 4.57812 7.9875 4.57812C7.825 4.57812 7.70937 4.61875 7.80937 4.87187C7.7375 5.13437 7.90625 5.25 8.1125 5.25C8.3625 5.25 8.66875 5.0875 8.69063 4.81875C8.825 4.61562 8.99687 4.53125 9.175 4.53125C9.45625 4.53125 9.75312 4.74375 9.94687 5.00625C9.9625 5.03125 9.975 5.04063 9.98125 5.04063C9.99687 5.04063 9.98125 4.97813 9.975 4.91563C9.96875 4.86562 9.96875 4.81563 9.9875 4.8C9.70938 4.72188 9.49687 4.38438 9.59062 4.38438C9.62187 4.38438 9.6875 4.42188 9.79375 4.52187H9.80937C9.98438 4.52187 10.1219 4.65938 10.2281 4.79688C10.3375 4.93437 10.4188 5.07188 10.4906 5.07188C10.5188 5.07188 10.5469 5.04688 10.5719 4.99062C10.5594 4.97187 10.5281 4.91875 10.5125 4.86562C10.4937 4.8 10.4937 4.73438 10.5781 4.73438C10.6125 4.73438 10.6594 4.74687 10.725 4.77187C10.9375 4.71562 10.5906 4.1625 10.8719 4.1625C10.9 4.1625 10.9344 4.16875 10.9781 4.18125C10.975 4.27813 11.0188 4.3125 11.0594 4.3125C11.1406 4.3125 11.2219 4.19688 11.025 4.1625C11.1 4.09062 11.1438 4.0625 11.175 4.0625C11.2844 4.0625 11.1969 4.425 11.575 4.425C11.7031 4.72813 10.4625 4.44687 10.8594 5.02812C10.95 5.09375 11.0625 5.10625 11.1719 5.10625C11.2063 5.10625 11.2375 5.10625 11.2688 5.10313C11.3 5.10313 11.3313 5.1 11.3594 5.1C11.5531 5.1 11.6906 5.14687 11.6062 5.54688C11.5031 5.62187 11.3875 5.64687 11.2688 5.64687C11.1625 5.64687 11.0562 5.62813 10.9531 5.60938C10.85 5.59062 10.75 5.57188 10.6594 5.57188C10.5188 5.57188 10.4062 5.61875 10.3375 5.78125C9.97187 5.63125 9.49063 5.625 9.5375 5.17188C8.9 5.2625 8.23438 5.21562 7.76562 5.60625C7.7375 6.17812 6.75625 6.3625 6.99375 7.0125C6.70937 7.6125 7.3375 8.45312 7.97813 8.45312C8 8.45312 8.025 8.45312 8.04688 8.45C8.39688 8.44687 8.75 8.29062 9.05937 8.29062C9.21875 8.29062 9.3625 8.33125 9.4875 8.45625C9.51562 8.45312 9.54062 8.45 9.5625 8.45C10.0406 8.45 9.40938 9.20937 9.98125 9.3375C10.5 9.875 9.6625 10.4281 10.0719 10.9438C10.1156 11.3469 10.3156 11.6844 10.3156 12.0781C10.3688 12.0844 10.4187 12.0875 10.4719 12.0875C11.1313 12.0875 11.5437 11.5125 11.9312 11.0781C11.8125 10.4281 12.8531 10.3 12.4969 9.57187C12.3313 8.775 13.2812 8.30313 13.2281 7.50625C13.2375 7.39375 13.2063 7.35938 13.1594 7.35938C13.1125 7.35938 13.0437 7.39375 12.9781 7.425C12.9094 7.45938 12.8344 7.49062 12.775 7.49062C12.6969 7.49062 12.6375 7.4375 12.6313 7.2625C12.1719 6.83437 11.9625 6.25313 11.5344 5.78125C12.0906 6.05 12.4062 6.65625 12.6625 7.20625C12.6844 7.2125 12.7063 7.21562 12.7312 7.21562C13.1844 7.21562 13.8156 6.13125 13.1281 5.86875C13.0906 5.97188 13.0406 6.00938 12.9812 6.00938C12.8781 6.00938 12.7594 5.88437 12.675 5.7625C12.5906 5.6375 12.5469 5.5125 12.5938 5.5125C12.625 5.5125 12.6938 5.5625 12.8125 5.69375C12.9469 5.77812 13.0781 5.8 13.2156 5.8C13.35 5.8 13.4875 5.77812 13.6313 5.76562C13.8125 5.8375 13.8906 6.06875 13.9469 6.06875C13.9562 6.06875 13.9688 6.05937 13.9781 6.0375C14.1219 6.38125 14.2875 6.99375 14.4375 7.15938C14.3594 6.63438 14.3406 6.07812 14.2063 5.5625ZM12.4625 4.84062C12.1094 4.75 11.9937 4.3125 11.7156 4.05937C11.7125 3.99062 11.8156 4.00313 11.7906 3.8875C12.1656 4.00313 12.0437 4.11875 12.0094 4.14062C12.1469 4.36875 12.5312 4.525 12.4625 4.84062ZM7.60938 2.4625C7.26875 2.5625 7.22188 2.45312 7.28125 2.6625C7.30625 2.68125 7.35313 2.6875 7.4 2.6875C7.56563 2.69062 7.79063 2.59375 7.60938 2.4625ZM12.6125 11.0719C13.0594 10.6937 13.1156 10.2438 13.1375 9.7875C12.9375 10.1781 12.3438 10.6094 12.6125 11.0719ZM10.5781 4.97813C10.575 4.98125 10.575 4.98125 10.575 4.98438C10.5781 4.99062 10.5813 4.99062 10.5813 4.99062C10.5813 4.99062 10.5813 4.9875 10.5781 4.97813ZM8 0C3.58125 0 0 3.58125 0 8C0 12.4187 3.58125 16 8 16C12.4187 16 16 12.4187 16 8C16 3.58125 12.4187 0 8 0ZM8 15.3844C3.92188 15.3844 0.615625 12.0781 0.615625 8C0.615625 3.92188 3.92188 0.615625 8 0.615625C12.0781 0.615625 15.3844 3.92188 15.3844 8C15.3844 12.0781 12.0781 15.3844 8 15.3844Z" fill="#16A34A"/>
</g>
<defs>
<clipPath id="clip0_1286_3892">
<rect width="16" height="16" fill="white"/>
</clipPath>
</defs>
</svg>
