<svg width="40" height="40" viewBox="0 0 40 40" fill="none" xmlns="http://www.w3.org/2000/svg">
<rect x="0.25" y="0.25" width="39.5" height="39.5" rx="19.75" stroke="#ADADAD" stroke-width="0.5"/>
<path d="M28.1711 18.3679H27.4998V18.3334H19.9998V21.6667H24.7094C24.0223 23.6071 22.1761 25 19.9998 25C17.2386 25 14.9998 22.7613 14.9998 20C14.9998 17.2388 17.2386 15 19.9998 15C21.2744 15 22.434 15.4809 23.3169 16.2663L25.674 13.9092C24.1857 12.5221 22.1948 11.6667 19.9998 11.6667C15.3978 11.6667 11.6665 15.3979 11.6665 20C11.6665 24.6021 15.3978 28.3334 19.9998 28.3334C24.6019 28.3334 28.3332 24.6021 28.3332 20C28.3332 19.4413 28.2757 18.8959 28.1711 18.3679Z" fill="#FFC107"/>
<path d="M12.6274 16.1213L15.3654 18.1292C16.1062 16.295 17.9004 15 19.9999 15C21.2745 15 22.4341 15.4809 23.317 16.2663L25.6741 13.9092C24.1858 12.5221 22.1949 11.6667 19.9999 11.6667C16.7991 11.6667 14.0233 13.4738 12.6274 16.1213Z" fill="#FF3D00"/>
<path d="M19.9998 28.3333C22.1523 28.3333 24.1081 27.5096 25.5869 26.17L23.0077 23.9875C22.1431 24.6454 21.0863 25.0012 19.9998 25C17.8323 25 15.9919 23.6179 15.2986 21.6891L12.5811 23.7829C13.9602 26.4816 16.7611 28.3333 19.9998 28.3333Z" fill="#4CAF50"/>
<path d="M28.1712 18.3679H27.5V18.3333H20V21.6666H24.7096C24.3809 22.5902 23.7889 23.3971 23.0067 23.9879L23.0079 23.9871L25.5871 26.1696C25.4046 26.3354 28.3333 24.1666 28.3333 20C28.3333 19.4412 28.2758 18.8958 28.1712 18.3679Z" fill="#1976D2"/>
</svg>
