<svg width="20" height="20" viewBox="0 0 20 20" fill="none" xmlns="http://www.w3.org/2000/svg">
<path d="M2.1443 7.05273L9.36013 3.44523C9.42949 3.4106 9.50594 3.39258 9.58346 3.39258C9.66098 3.39258 9.73744 3.4106 9.8068 3.44523L17.0226 7.05356C17.1056 7.09511 17.1754 7.15894 17.2242 7.2379C17.2729 7.31686 17.2988 7.40784 17.2988 7.50064C17.2988 7.59345 17.2729 7.68443 17.2242 7.76339C17.1754 7.84235 17.1056 7.90617 17.0226 7.94773L9.8068 11.5552C9.73744 11.5899 9.66098 11.6079 9.58346 11.6079C9.50594 11.6079 9.42949 11.5899 9.36013 11.5552L2.1443 7.94689C2.06131 7.90534 1.99153 7.84151 1.94276 7.76255C1.89399 7.68359 1.86816 7.59262 1.86816 7.49981C1.86816 7.407 1.89399 7.31603 1.94276 7.23707C1.99153 7.15811 2.06131 7.09428 2.1443 7.05273Z" stroke="#999999" stroke-width="1.25" stroke-linecap="round" stroke-linejoin="round"/>
<path d="M18.75 10.834V7.91732L17.0833 7.08398M3.75 8.75065V13.2607C3.74994 13.576 3.83932 13.8848 4.00778 14.1514C4.17623 14.4179 4.41684 14.6312 4.70167 14.7665L8.86833 16.7448C9.09176 16.8509 9.33599 16.906 9.58333 16.906C9.83067 16.906 10.0749 16.8509 10.2983 16.7448L14.465 14.7665C14.7498 14.6312 14.9904 14.4179 15.1589 14.1514C15.3273 13.8848 15.4167 13.576 15.4167 13.2607V8.75065" stroke="#999999" stroke-width="1.25" stroke-linecap="round" stroke-linejoin="round"/>
</svg>
