<svg width="16" height="16" viewBox="0 0 16 16" fill="none" xmlns="http://www.w3.org/2000/svg">
<path d="M7.96659 12.0002C8.19992 12.0002 8.39725 11.9195 8.55859 11.7582C8.71992 11.5968 8.80036 11.3997 8.79992 11.1668C8.79947 10.9339 8.71903 10.7366 8.55859 10.5748C8.39814 10.4131 8.20081 10.3326 7.96659 10.3335C7.73236 10.3344 7.53525 10.4151 7.37525 10.5755C7.21525 10.7359 7.13459 10.9331 7.13325 11.1668C7.13192 11.4006 7.21259 11.5979 7.37525 11.7588C7.53792 11.9197 7.73503 12.0002 7.96659 12.0002ZM7.36659 9.4335H8.59992C8.59992 9.06683 8.6417 8.77794 8.72525 8.56683C8.80881 8.35572 9.04481 8.06683 9.43325 7.70017C9.72214 7.41128 9.94992 7.13617 10.1166 6.87483C10.2833 6.6135 10.3666 6.29972 10.3666 5.9335C10.3666 5.31128 10.1388 4.8335 9.68325 4.50017C9.2277 4.16683 8.68881 4.00017 8.06659 4.00017C7.43325 4.00017 6.91948 4.16683 6.52525 4.50017C6.13103 4.8335 5.85592 5.2335 5.69992 5.70017L6.79992 6.1335C6.85547 5.9335 6.98059 5.71683 7.17525 5.4835C7.36992 5.25017 7.66703 5.1335 8.06659 5.1335C8.42214 5.1335 8.68881 5.23083 8.86659 5.4255C9.04436 5.62017 9.13325 5.83394 9.13325 6.06683C9.13325 6.28906 9.06659 6.4975 8.93325 6.69217C8.79992 6.88683 8.63325 7.06728 8.43325 7.2335C7.94436 7.66683 7.64436 7.99461 7.53325 8.21683C7.42214 8.43905 7.36659 8.84461 7.36659 9.4335ZM7.99992 14.6668C7.0777 14.6668 6.21103 14.4919 5.39992 14.1422C4.58881 13.7924 3.88325 13.3173 3.28325 12.7168C2.68325 12.1164 2.20836 11.4108 1.85859 10.6002C1.50881 9.7895 1.3337 8.92283 1.33325 8.00017C1.33281 7.0775 1.50792 6.21083 1.85859 5.40017C2.20925 4.5895 2.68414 3.88394 3.28325 3.2835C3.88236 2.68306 4.58792 2.20817 5.39992 1.85883C6.21192 1.5095 7.07859 1.33439 7.99992 1.3335C8.92125 1.33261 9.78792 1.50772 10.5999 1.85883C11.4119 2.20994 12.1175 2.68483 12.7166 3.2835C13.3157 3.88217 13.7908 4.58772 14.1419 5.40017C14.493 6.21261 14.6679 7.07928 14.6666 8.00017C14.6653 8.92105 14.4901 9.78772 14.1413 10.6002C13.7924 11.4126 13.3175 12.1182 12.7166 12.7168C12.1157 13.3155 11.4101 13.7906 10.5999 14.1422C9.7897 14.4937 8.92303 14.6686 7.99992 14.6668ZM7.99992 13.3335C9.48881 13.3335 10.7499 12.8168 11.7833 11.7835C12.8166 10.7502 13.3333 9.48905 13.3333 8.00017C13.3333 6.51128 12.8166 5.25017 11.7833 4.21683C10.7499 3.1835 9.48881 2.66683 7.99992 2.66683C6.51103 2.66683 5.24992 3.1835 4.21659 4.21683C3.18325 5.25017 2.66659 6.51128 2.66659 8.00017C2.66659 9.48905 3.18325 10.7502 4.21659 11.7835C5.24992 12.8168 6.51103 13.3335 7.99992 13.3335Z" fill="white"/>
</svg>
