<svg width="684" height="515" viewBox="0 0 684 515" fill="none" xmlns="http://www.w3.org/2000/svg">
<g filter="url(#filter0_d_320_1698)">
<rect x="101" y="25.0826" width="279" height="169.782" rx="13" fill="white" shape-rendering="crispEdges"/>
<rect x="101.5" y="25.5826" width="278" height="168.782" rx="12.5" stroke="#2A323F" stroke-opacity="0.06" shape-rendering="crispEdges"/>
<rect x="116.719" y="40.801" width="31.4366" height="31.4366" rx="15.7183" fill="#F3F3F3"/>
<rect x="154.05" y="43.0193" width="163" height="13" rx="6.5" fill="#F3F3F3"/>
<rect x="154.05" y="62.0193" width="103" height="8" rx="4" fill="#F3F3F3"/>
<rect x="116.719" y="80.0263" width="43.7535" height="17.8239" rx="3.92958" fill="#F963AB"/>
<rect x="164.401" y="80.0263" width="41.7535" height="17.8239" rx="3.92958" fill="#C4B1F9" fill-opacity="0.5"/>
<rect x="326.493" y="81.0087" width="37.7887" height="15.8592" rx="7.92958" fill="#F3F3F3"/>
<rect x="116.719" y="105.639" width="27.7887" height="15.8592" rx="7.92958" fill="#F3F3F3"/>
<rect x="149.42" y="105.639" width="36.7887" height="15.8592" rx="7.92958" fill="#F3F3F3"/>
<rect x="191.12" y="105.639" width="37.7887" height="15.8592" rx="7.92958" fill="#F3F3F3"/>
<rect x="117.295" y="141.722" width="246.41" height="36.8471" rx="7.28271" stroke="#2A323F" stroke-opacity="0.1" stroke-width="1.15289"/>
<path d="M196.182 163.146L198.693 155.784H201.032L203.614 163.146H202.142L199.953 156.762L200.468 156.984H199.207L199.732 156.762L197.614 163.146H196.182ZM197.936 161.189L198.39 159.979H201.375L201.819 161.189H197.936ZM204.395 165.163V157.67H205.505V160.03L205.333 160.02C205.36 159.462 205.474 158.994 205.676 158.618C205.885 158.241 206.16 157.962 206.503 157.781C206.846 157.592 207.229 157.498 207.653 157.498C208.043 157.498 208.392 157.569 208.702 157.71C209.018 157.851 209.287 158.05 209.508 158.305C209.737 158.561 209.912 158.86 210.033 159.203C210.154 159.539 210.214 159.902 210.214 160.292V160.504C210.214 160.9 210.154 161.27 210.033 161.613C209.919 161.949 209.747 162.248 209.519 162.511C209.297 162.766 209.028 162.968 208.712 163.116C208.396 163.257 208.043 163.328 207.653 163.328C207.243 163.328 206.866 163.243 206.523 163.075C206.187 162.901 205.915 162.635 205.706 162.279C205.498 161.916 205.38 161.448 205.353 160.877L205.797 161.553V165.163H204.395ZM207.3 162.148C207.602 162.148 207.865 162.074 208.086 161.926C208.315 161.778 208.493 161.573 208.621 161.31C208.749 161.042 208.813 160.739 208.813 160.403C208.813 160.053 208.749 159.751 208.621 159.495C208.493 159.24 208.315 159.041 208.086 158.9C207.865 158.752 207.602 158.678 207.3 158.678C207.024 158.678 206.769 158.739 206.533 158.86C206.305 158.981 206.116 159.159 205.969 159.394C205.827 159.63 205.757 159.912 205.757 160.241V160.645C205.757 160.961 205.831 161.23 205.979 161.452C206.127 161.674 206.318 161.845 206.553 161.966C206.789 162.087 207.038 162.148 207.3 162.148ZM211.245 165.163V157.67H212.355V160.03L212.183 160.02C212.21 159.462 212.324 158.994 212.526 158.618C212.735 158.241 213.01 157.962 213.353 157.781C213.696 157.592 214.079 157.498 214.503 157.498C214.893 157.498 215.242 157.569 215.552 157.71C215.868 157.851 216.137 158.05 216.358 158.305C216.587 158.561 216.762 158.86 216.883 159.203C217.004 159.539 217.064 159.902 217.064 160.292V160.504C217.064 160.9 217.004 161.27 216.883 161.613C216.769 161.949 216.597 162.248 216.369 162.511C216.147 162.766 215.878 162.968 215.562 163.116C215.246 163.257 214.893 163.328 214.503 163.328C214.093 163.328 213.716 163.243 213.373 163.075C213.037 162.901 212.765 162.635 212.556 162.279C212.348 161.916 212.23 161.448 212.203 160.877L212.647 161.553V165.163H211.245ZM214.15 162.148C214.452 162.148 214.715 162.074 214.936 161.926C215.165 161.778 215.343 161.573 215.471 161.31C215.599 161.042 215.663 160.739 215.663 160.403C215.663 160.053 215.599 159.751 215.471 159.495C215.343 159.24 215.165 159.041 214.936 158.9C214.715 158.752 214.452 158.678 214.15 158.678C213.874 158.678 213.619 158.739 213.383 158.86C213.155 158.981 212.966 159.159 212.819 159.394C212.677 159.63 212.607 159.912 212.607 160.241V160.645C212.607 160.961 212.681 161.23 212.829 161.452C212.977 161.674 213.168 161.845 213.404 161.966C213.639 162.087 213.888 162.148 214.15 162.148ZM218.166 163.146V155.784H219.568V163.146H218.166ZM217.48 156.833V155.784H219.568V156.833H217.48ZM220.805 165.304V164.104H221.834C222.029 164.104 222.19 164.077 222.318 164.023C222.452 163.976 222.563 163.896 222.651 163.781C222.738 163.674 222.805 163.523 222.852 163.328L224.325 157.67H225.666L224.042 163.63C223.935 164.04 223.784 164.366 223.589 164.608C223.394 164.857 223.141 165.035 222.832 165.143C222.53 165.25 222.153 165.304 221.703 165.304H220.805ZM222.509 163.025V161.916H223.679V163.025H222.509ZM222.035 163.025L220.26 157.67H221.672L223.357 163.025H222.035ZM228.534 163.146V157.539C228.534 156.913 228.705 156.453 229.048 156.157C229.398 155.854 229.912 155.703 230.591 155.703H231.277V156.782H230.49C230.282 156.782 230.121 156.839 230.006 156.954C229.899 157.061 229.845 157.216 229.845 157.418V163.146H228.534ZM227.848 158.789V157.761H231.368V158.789H227.848ZM234.645 163.338C234.161 163.338 233.734 163.26 233.364 163.106C232.994 162.951 232.681 162.743 232.426 162.48C232.17 162.211 231.975 161.909 231.841 161.573C231.713 161.237 231.649 160.887 231.649 160.524V160.312C231.649 159.936 231.717 159.579 231.851 159.243C231.992 158.9 232.191 158.598 232.446 158.335C232.708 158.066 233.024 157.858 233.394 157.71C233.764 157.555 234.181 157.478 234.645 157.478C235.109 157.478 235.525 157.555 235.895 157.71C236.265 157.858 236.578 158.066 236.833 158.335C237.095 158.598 237.294 158.9 237.428 159.243C237.563 159.579 237.63 159.936 237.63 160.312V160.524C237.63 160.887 237.563 161.237 237.428 161.573C237.3 161.909 237.109 162.211 236.853 162.48C236.598 162.743 236.285 162.951 235.915 163.106C235.546 163.26 235.122 163.338 234.645 163.338ZM234.645 162.137C234.988 162.137 235.277 162.064 235.512 161.916C235.747 161.761 235.925 161.556 236.047 161.3C236.168 161.038 236.228 160.742 236.228 160.413C236.228 160.077 236.164 159.781 236.036 159.525C235.915 159.263 235.734 159.058 235.492 158.91C235.257 158.756 234.974 158.678 234.645 158.678C234.315 158.678 234.029 158.756 233.787 158.91C233.552 159.058 233.371 159.263 233.243 159.525C233.115 159.781 233.051 160.077 233.051 160.413C233.051 160.742 233.112 161.038 233.233 161.3C233.36 161.556 233.542 161.761 233.777 161.916C234.013 162.064 234.302 162.137 234.645 162.137ZM238.656 163.146V157.67H239.765V159.989H239.735C239.735 159.203 239.903 158.608 240.239 158.204C240.575 157.801 241.069 157.599 241.722 157.599H241.923V158.819H241.54C241.069 158.819 240.703 158.947 240.441 159.203C240.185 159.451 240.057 159.815 240.057 160.292V163.146H238.656ZM247.014 163.217C246.51 163.217 246.093 163.153 245.764 163.025C245.441 162.891 245.199 162.669 245.038 162.359C244.876 162.043 244.796 161.62 244.796 161.089L244.806 156.127H246.117L246.107 161.179C246.107 161.448 246.177 161.657 246.318 161.805C246.466 161.946 246.675 162.016 246.944 162.016H247.801V163.217H247.014ZM243.928 158.698V157.67H247.801V158.698H243.928ZM248.776 163.146V155.784H250.178V160.08H249.936C249.936 159.529 250.006 159.062 250.147 158.678C250.289 158.295 250.497 158.003 250.773 157.801C251.055 157.599 251.411 157.498 251.842 157.498H251.902C252.528 157.498 253.002 157.713 253.324 158.144C253.647 158.574 253.808 159.199 253.808 160.02V163.146H252.407V159.888C252.407 159.539 252.306 159.263 252.104 159.062C251.909 158.86 251.65 158.759 251.327 158.759C250.985 158.759 250.705 158.873 250.49 159.102C250.282 159.324 250.178 159.616 250.178 159.979V163.146H248.776ZM255.376 163.146V157.67H256.778V163.146H255.376ZM254.609 158.719V157.67H256.778V158.719H254.609ZM255.89 157.014C255.615 157.014 255.41 156.944 255.275 156.802C255.147 156.655 255.084 156.473 255.084 156.258C255.084 156.029 255.147 155.844 255.275 155.703C255.41 155.562 255.615 155.491 255.89 155.491C256.166 155.491 256.368 155.562 256.495 155.703C256.623 155.844 256.687 156.029 256.687 156.258C256.687 156.473 256.623 156.655 256.495 156.802C256.368 156.944 256.166 157.014 255.89 157.014ZM260.178 163.317C259.425 163.317 258.834 163.159 258.403 162.843C257.98 162.521 257.758 162.077 257.738 161.512H258.999C259.019 161.7 259.123 161.872 259.311 162.027C259.499 162.181 259.795 162.259 260.199 162.259C260.535 162.259 260.8 162.198 260.995 162.077C261.197 161.956 261.298 161.791 261.298 161.583C261.298 161.401 261.221 161.257 261.066 161.149C260.918 161.042 260.663 160.971 260.299 160.937L259.815 160.887C259.204 160.82 258.733 160.645 258.403 160.362C258.074 160.08 257.909 159.704 257.909 159.233C257.909 158.856 258.003 158.54 258.192 158.285C258.38 158.029 258.639 157.838 258.968 157.71C259.304 157.576 259.688 157.508 260.118 157.508C260.79 157.508 261.335 157.656 261.752 157.952C262.169 158.248 262.387 158.682 262.407 159.253H261.147C261.133 159.065 261.039 158.904 260.864 158.769C260.689 158.635 260.437 158.567 260.108 158.567C259.812 158.567 259.583 158.624 259.422 158.739C259.261 158.853 259.18 159.001 259.18 159.183C259.18 159.357 259.244 159.492 259.372 159.586C259.506 159.68 259.721 159.744 260.017 159.778L260.501 159.828C261.147 159.895 261.651 160.073 262.014 160.362C262.384 160.652 262.569 161.042 262.569 161.532C262.569 161.895 262.468 162.211 262.266 162.48C262.071 162.743 261.795 162.948 261.439 163.096C261.083 163.243 260.663 163.317 260.178 163.317ZM265.5 163.146V157.67H266.609V159.989H266.579C266.579 159.203 266.747 158.608 267.083 158.204C267.419 157.801 267.914 157.599 268.566 157.599H268.767V158.819H268.384C267.914 158.819 267.547 158.947 267.285 159.203C267.029 159.451 266.902 159.815 266.902 160.292V163.146H265.5ZM272.096 163.338C271.612 163.338 271.185 163.26 270.816 163.106C270.446 162.951 270.133 162.743 269.878 162.48C269.622 162.211 269.427 161.909 269.293 161.573C269.165 161.237 269.101 160.887 269.101 160.524V160.312C269.101 159.936 269.168 159.579 269.303 159.243C269.444 158.9 269.642 158.598 269.898 158.335C270.16 158.066 270.476 157.858 270.846 157.71C271.216 157.555 271.633 157.478 272.096 157.478C272.56 157.478 272.977 157.555 273.347 157.71C273.717 157.858 274.029 158.066 274.285 158.335C274.547 158.598 274.745 158.9 274.88 159.243C275.014 159.579 275.082 159.936 275.082 160.312V160.524C275.082 160.887 275.014 161.237 274.88 161.573C274.752 161.909 274.561 162.211 274.305 162.48C274.05 162.743 273.737 162.951 273.367 163.106C272.997 163.26 272.574 163.338 272.096 163.338ZM272.096 162.137C272.439 162.137 272.728 162.064 272.964 161.916C273.199 161.761 273.377 161.556 273.498 161.3C273.619 161.038 273.68 160.742 273.68 160.413C273.68 160.077 273.616 159.781 273.488 159.525C273.367 159.263 273.186 159.058 272.944 158.91C272.708 158.756 272.426 158.678 272.096 158.678C271.767 158.678 271.481 158.756 271.239 158.91C271.004 159.058 270.822 159.263 270.695 159.525C270.567 159.781 270.503 160.077 270.503 160.413C270.503 160.742 270.564 161.038 270.685 161.3C270.812 161.556 270.994 161.761 271.229 161.916C271.464 162.064 271.754 162.137 272.096 162.137ZM276.178 163.146V155.784H277.58V163.146H276.178ZM275.492 156.833V155.784H277.58V156.833H275.492ZM281.429 163.338C280.959 163.338 280.545 163.257 280.189 163.096C279.839 162.934 279.547 162.719 279.311 162.45C279.083 162.174 278.908 161.869 278.787 161.532C278.673 161.196 278.615 160.853 278.615 160.504V160.312C278.615 159.949 278.673 159.599 278.787 159.263C278.908 158.92 279.083 158.618 279.311 158.356C279.547 158.087 279.836 157.875 280.179 157.72C280.522 157.559 280.918 157.478 281.369 157.478C281.96 157.478 282.455 157.609 282.851 157.871C283.255 158.127 283.557 158.466 283.759 158.89C283.961 159.307 284.061 159.757 284.061 160.241V160.746H279.211V159.888H283.184L282.75 160.312C282.75 159.962 282.7 159.663 282.599 159.414C282.498 159.166 282.344 158.974 282.135 158.84C281.934 158.705 281.678 158.638 281.369 158.638C281.059 158.638 280.797 158.709 280.582 158.85C280.367 158.991 280.202 159.196 280.088 159.465C279.98 159.727 279.927 160.043 279.927 160.413C279.927 160.756 279.98 161.062 280.088 161.331C280.195 161.593 280.36 161.801 280.582 161.956C280.804 162.104 281.086 162.178 281.429 162.178C281.772 162.178 282.051 162.111 282.266 161.976C282.481 161.835 282.619 161.663 282.68 161.462H283.971C283.89 161.838 283.735 162.168 283.507 162.45C283.278 162.733 282.986 162.951 282.629 163.106C282.28 163.26 281.88 163.338 281.429 163.338Z" fill="#2A323F"/>
</g>
<g filter="url(#filter1_d_320_1698)">
<rect x="32" y="328.083" width="269.89" height="147.979" rx="13" fill="white" shape-rendering="crispEdges"/>
<rect x="32.5" y="328.583" width="268.89" height="146.979" rx="12.5" stroke="#2A323F" stroke-opacity="0.06" shape-rendering="crispEdges"/>
<rect x="47.7188" y="343.801" width="31.4366" height="31.4366" rx="15.7183" fill="#F3F3F3"/>
<rect x="85.0498" y="346.019" width="35" height="13" rx="6.5" fill="#F3F3F3"/>
<rect x="126.05" y="346.019" width="71" height="13" rx="6.5" fill="#DCFCE8"/>
<rect x="85.0498" y="365.019" width="144" height="8" rx="4" fill="#F3F3F3"/>
<rect x="47.7188" y="387.039" width="45.3044" height="17.5032" rx="8.75158" fill="#B9D4FF" fill-opacity="0.6"/>
<rect x="98.7246" y="392.29" width="28" height="7" rx="3.5" fill="#F3F3F3"/>
<rect x="48.2952" y="422.92" width="215.587" height="36.8471" rx="7.28271" stroke="#2A323F" stroke-opacity="0.1" stroke-width="1.15289"/>
<path d="M135.327 444.343V436.981H136.759V444.343H135.327ZM130.497 444.343V436.981H131.929V444.343H130.497ZM131.666 441.287V440.027H135.59V441.287H131.666ZM138.522 444.343V438.867H139.924V444.343H138.522ZM137.756 439.916V438.867H139.924V439.916H137.756ZM139.036 438.211C138.761 438.211 138.556 438.141 138.421 438C138.294 437.852 138.23 437.67 138.23 437.455C138.23 437.226 138.294 437.041 138.421 436.9C138.556 436.759 138.761 436.689 139.036 436.689C139.312 436.689 139.514 436.759 139.642 436.9C139.769 437.041 139.833 437.226 139.833 437.455C139.833 437.67 139.769 437.852 139.642 438C139.514 438.141 139.312 438.211 139.036 438.211ZM141.338 444.343V438.867H142.447V441.186H142.417C142.417 440.4 142.585 439.805 142.921 439.401C143.257 438.998 143.752 438.796 144.404 438.796H144.605V440.017H144.222C143.752 440.017 143.385 440.144 143.123 440.4C142.867 440.649 142.74 441.012 142.74 441.489V444.343H141.338ZM147.753 444.535C147.282 444.535 146.869 444.454 146.512 444.293C146.163 444.131 145.87 443.916 145.635 443.647C145.406 443.372 145.232 443.066 145.111 442.73C144.996 442.393 144.939 442.05 144.939 441.701V441.509C144.939 441.146 144.996 440.797 145.111 440.46C145.232 440.117 145.406 439.815 145.635 439.553C145.87 439.284 146.159 439.072 146.502 438.917C146.845 438.756 147.242 438.675 147.692 438.675C148.284 438.675 148.778 438.806 149.175 439.069C149.578 439.324 149.881 439.664 150.083 440.087C150.284 440.504 150.385 440.955 150.385 441.439V441.943H145.534V441.086H149.508L149.074 441.509C149.074 441.16 149.024 440.86 148.923 440.612C148.822 440.363 148.667 440.171 148.459 440.037C148.257 439.902 148.002 439.835 147.692 439.835C147.383 439.835 147.121 439.906 146.906 440.047C146.691 440.188 146.526 440.393 146.412 440.662C146.304 440.924 146.25 441.24 146.25 441.61C146.25 441.953 146.304 442.259 146.412 442.528C146.519 442.79 146.684 442.998 146.906 443.153C147.128 443.301 147.41 443.375 147.753 443.375C148.096 443.375 148.375 443.308 148.59 443.173C148.805 443.032 148.943 442.861 149.003 442.659H150.294C150.214 443.035 150.059 443.365 149.83 443.647C149.602 443.93 149.309 444.148 148.953 444.303C148.603 444.457 148.203 444.535 147.753 444.535ZM155.709 444.414C155.205 444.414 154.788 444.35 154.459 444.222C154.136 444.088 153.894 443.866 153.733 443.556C153.571 443.24 153.491 442.817 153.491 442.286L153.501 437.324H154.812L154.802 442.377C154.802 442.645 154.872 442.854 155.014 443.002C155.161 443.143 155.37 443.214 155.639 443.214H156.496V444.414H155.709ZM152.623 439.896V438.867H156.496V439.896H152.623ZM160.769 444.343V442.719H160.537V440.914C160.537 440.598 160.46 440.363 160.305 440.208C160.151 440.054 159.912 439.976 159.589 439.976C159.421 439.976 159.22 439.98 158.984 439.986C158.749 439.993 158.51 440.003 158.268 440.017C158.033 440.023 157.821 440.033 157.633 440.047V438.857C157.787 438.843 157.962 438.83 158.157 438.816C158.352 438.803 158.551 438.796 158.752 438.796C158.961 438.79 159.156 438.786 159.337 438.786C159.902 438.786 160.369 438.86 160.739 439.008C161.116 439.156 161.398 439.388 161.586 439.704C161.781 440.02 161.879 440.433 161.879 440.944V444.343H160.769ZM159.004 444.484C158.608 444.484 158.258 444.414 157.955 444.273C157.66 444.131 157.428 443.93 157.26 443.667C157.098 443.405 157.018 443.089 157.018 442.719C157.018 442.316 157.115 441.987 157.31 441.731C157.512 441.476 157.791 441.284 158.147 441.156C158.51 441.028 158.934 440.965 159.418 440.965H160.689V441.802H159.398C159.075 441.802 158.826 441.882 158.651 442.044C158.483 442.198 158.399 442.4 158.399 442.649C158.399 442.898 158.483 443.099 158.651 443.254C158.826 443.409 159.075 443.486 159.398 443.486C159.593 443.486 159.771 443.452 159.932 443.385C160.1 443.311 160.238 443.19 160.346 443.022C160.46 442.847 160.524 442.612 160.537 442.316L160.88 442.709C160.847 443.093 160.752 443.415 160.598 443.678C160.45 443.94 160.241 444.141 159.973 444.283C159.71 444.417 159.388 444.484 159.004 444.484ZM163.249 444.343V436.981H164.651V444.343H163.249ZM162.563 438.03V436.981H164.651V438.03H162.563ZM168.5 444.535C168.03 444.535 167.616 444.454 167.26 444.293C166.91 444.131 166.618 443.916 166.382 443.647C166.154 443.372 165.979 443.066 165.858 442.73C165.744 442.393 165.687 442.05 165.687 441.701V441.509C165.687 441.146 165.744 440.797 165.858 440.46C165.979 440.117 166.154 439.815 166.382 439.553C166.618 439.284 166.907 439.072 167.25 438.917C167.593 438.756 167.989 438.675 168.44 438.675C169.031 438.675 169.526 438.806 169.922 439.069C170.326 439.324 170.628 439.664 170.83 440.087C171.032 440.504 171.133 440.955 171.133 441.439V441.943H166.282V441.086H170.255L169.821 441.509C169.821 441.16 169.771 440.86 169.67 440.612C169.569 440.363 169.415 440.171 169.206 440.037C169.005 439.902 168.749 439.835 168.44 439.835C168.131 439.835 167.868 439.906 167.653 440.047C167.438 440.188 167.273 440.393 167.159 440.662C167.051 440.924 166.998 441.24 166.998 441.61C166.998 441.953 167.051 442.259 167.159 442.528C167.267 442.79 167.431 442.998 167.653 443.153C167.875 443.301 168.157 443.375 168.5 443.375C168.843 443.375 169.122 443.308 169.337 443.173C169.553 443.032 169.69 442.861 169.751 442.659H171.042C170.961 443.035 170.806 443.365 170.578 443.647C170.349 443.93 170.057 444.148 169.7 444.303C169.351 444.457 168.951 444.535 168.5 444.535ZM172.102 444.343V438.867H173.211V441.217H173.11C173.11 440.659 173.184 440.195 173.332 439.825C173.48 439.448 173.699 439.166 173.988 438.978C174.284 438.79 174.65 438.695 175.087 438.695H175.148C175.8 438.695 176.294 438.907 176.63 439.331C176.966 439.748 177.134 440.373 177.134 441.207V444.343H175.733V441.086C175.733 440.749 175.635 440.477 175.44 440.269C175.252 440.06 174.99 439.956 174.653 439.956C174.311 439.956 174.032 440.064 173.816 440.279C173.608 440.487 173.504 440.77 173.504 441.126V444.343H172.102ZM180.82 444.414C180.316 444.414 179.899 444.35 179.569 444.222C179.247 444.088 179.005 443.866 178.843 443.556C178.682 443.24 178.601 442.817 178.601 442.286L178.611 437.324H179.922L179.912 442.377C179.912 442.645 179.983 442.854 180.124 443.002C180.272 443.143 180.48 443.214 180.749 443.214H181.607V444.414H180.82ZM177.734 439.896V438.867H181.607V439.896H177.734Z" fill="#2A323F"/>
<path d="M285.138 351.031C285.412 351.031 285.675 351.14 285.869 351.334C286.062 351.528 286.171 351.79 286.171 352.064C286.171 352.338 286.062 352.601 285.869 352.795C285.675 352.988 285.412 353.097 285.138 353.097C284.864 353.097 284.602 352.988 284.408 352.795C284.214 352.601 284.105 352.338 284.105 352.064C284.105 351.79 284.214 351.528 284.408 351.334C284.602 351.14 284.864 351.031 285.138 351.031ZM285.138 347.416C285.412 347.416 285.675 347.525 285.869 347.719C286.062 347.912 286.171 348.175 286.171 348.449C286.171 348.723 286.062 348.986 285.869 349.179C285.675 349.373 285.412 349.482 285.138 349.482C284.864 349.482 284.602 349.373 284.408 349.179C284.214 348.986 284.105 348.723 284.105 348.449C284.105 348.175 284.214 347.912 284.408 347.719C284.602 347.525 284.864 347.416 285.138 347.416ZM285.138 343.801C285.412 343.801 285.675 343.91 285.869 344.104C286.062 344.297 286.171 344.56 286.171 344.834C286.171 345.108 286.062 345.371 285.869 345.564C285.675 345.758 285.412 345.867 285.138 345.867C284.864 345.867 284.602 345.758 284.408 345.564C284.214 345.371 284.105 345.108 284.105 344.834C284.105 344.56 284.214 344.297 284.408 344.104C284.602 343.91 284.864 343.801 285.138 343.801Z" fill="#2A323F" fill-opacity="0.4"/>
</g>
<g filter="url(#filter2_d_320_1698)">
<rect x="217" y="214.083" width="438.515" height="89.5597" rx="13" fill="white" shape-rendering="crispEdges"/>
<rect x="217.5" y="214.583" width="437.515" height="88.5597" rx="12.5" stroke="#2A323F" stroke-opacity="0.06" shape-rendering="crispEdges"/>
<rect x="232.719" y="237.083" width="31.4366" height="31.4366" rx="15.7183" fill="#F1EDFE"/>
<rect x="270.05" y="229.801" width="163" height="13" rx="6.5" fill="#F3F3F3"/>
<rect x="270.05" y="248.801" width="84" height="13" rx="6.5" fill="#F3F3F3"/>
<rect x="270.05" y="267.801" width="103" height="8" rx="4" fill="#F3F3F3"/>
<rect x="453.757" y="237.013" width="67" height="12" rx="6" fill="#F3F3F3"/>
<rect x="486.757" y="252.589" width="34" height="8" rx="4" fill="#F3F3F3"/>
<rect x="541.897" y="230.377" width="97.3231" height="36.8471" rx="7.28271" stroke="#2A323F" stroke-opacity="0.1" stroke-width="1.15289"/>
<path d="M562.459 251.801V244.501H564.399L566.229 248.861H566.409L568.229 244.501H570.199V251.801H568.789V245.571L568.969 245.591L566.999 250.311H565.549L563.569 245.591L563.759 245.571V251.801H562.459ZM574.02 251.991C573.553 251.991 573.143 251.911 572.79 251.751C572.443 251.591 572.153 251.378 571.92 251.111C571.693 250.838 571.52 250.534 571.4 250.201C571.286 249.868 571.23 249.528 571.23 249.181V248.991C571.23 248.631 571.286 248.284 571.4 247.951C571.52 247.611 571.693 247.311 571.92 247.051C572.153 246.784 572.44 246.574 572.78 246.421C573.12 246.261 573.513 246.181 573.96 246.181C574.546 246.181 575.036 246.311 575.43 246.571C575.83 246.824 576.13 247.161 576.33 247.581C576.53 247.994 576.63 248.441 576.63 248.921V249.421H571.82V248.571H575.76L575.33 248.991C575.33 248.644 575.28 248.348 575.18 248.101C575.08 247.854 574.926 247.664 574.72 247.531C574.52 247.398 574.266 247.331 573.96 247.331C573.653 247.331 573.393 247.401 573.18 247.541C572.966 247.681 572.803 247.884 572.69 248.151C572.583 248.411 572.53 248.724 572.53 249.091C572.53 249.431 572.583 249.734 572.69 250.001C572.796 250.261 572.96 250.468 573.18 250.621C573.4 250.768 573.68 250.841 574.02 250.841C574.36 250.841 574.636 250.774 574.85 250.641C575.063 250.501 575.2 250.331 575.26 250.131H576.54C576.46 250.504 576.306 250.831 576.08 251.111C575.853 251.391 575.563 251.608 575.21 251.761C574.863 251.914 574.466 251.991 574.02 251.991ZM577.491 251.801V246.371H578.591V248.701H578.491C578.491 248.148 578.564 247.688 578.711 247.321C578.857 246.948 579.074 246.668 579.361 246.481C579.654 246.294 580.017 246.201 580.451 246.201H580.511C581.157 246.201 581.647 246.411 581.981 246.831C582.314 247.244 582.481 247.864 582.481 248.691V251.801H581.091V248.571C581.091 248.238 580.994 247.968 580.801 247.761C580.614 247.554 580.354 247.451 580.021 247.451C579.681 247.451 579.404 247.558 579.191 247.771C578.984 247.978 578.881 248.258 578.881 248.611V251.801H577.491ZM586.035 251.871C585.535 251.871 585.122 251.808 584.795 251.681C584.475 251.548 584.235 251.328 584.075 251.021C583.915 250.708 583.835 250.288 583.835 249.761L583.845 244.841H585.145L585.135 249.851C585.135 250.118 585.205 250.324 585.345 250.471C585.492 250.611 585.698 250.681 585.965 250.681H586.815V251.871H586.035ZM582.975 247.391V246.371H586.815V247.391H582.975ZM590.262 251.991C589.782 251.991 589.359 251.914 588.992 251.761C588.626 251.608 588.316 251.401 588.062 251.141C587.809 250.874 587.616 250.574 587.482 250.241C587.356 249.908 587.292 249.561 587.292 249.201V248.991C587.292 248.618 587.359 248.264 587.492 247.931C587.632 247.591 587.829 247.291 588.082 247.031C588.342 246.764 588.656 246.558 589.022 246.411C589.389 246.258 589.802 246.181 590.262 246.181C590.722 246.181 591.136 246.258 591.502 246.411C591.869 246.558 592.179 246.764 592.432 247.031C592.692 247.291 592.889 247.591 593.022 247.931C593.156 248.264 593.222 248.618 593.222 248.991V249.201C593.222 249.561 593.156 249.908 593.022 250.241C592.896 250.574 592.706 250.874 592.452 251.141C592.199 251.401 591.889 251.608 591.522 251.761C591.156 251.914 590.736 251.991 590.262 251.991ZM590.262 250.801C590.602 250.801 590.889 250.728 591.122 250.581C591.356 250.428 591.532 250.224 591.652 249.971C591.772 249.711 591.832 249.418 591.832 249.091C591.832 248.758 591.769 248.464 591.642 248.211C591.522 247.951 591.342 247.748 591.102 247.601C590.869 247.448 590.589 247.371 590.262 247.371C589.936 247.371 589.652 247.448 589.412 247.601C589.179 247.748 588.999 247.951 588.872 248.211C588.746 248.464 588.682 248.758 588.682 249.091C588.682 249.418 588.742 249.711 588.862 249.971C588.989 250.224 589.169 250.428 589.402 250.581C589.636 250.728 589.922 250.801 590.262 250.801ZM594.14 251.801V246.371H595.24V248.671H595.21C595.21 247.891 595.376 247.301 595.71 246.901C596.043 246.501 596.533 246.301 597.18 246.301H597.38V247.511H597C596.533 247.511 596.17 247.638 595.91 247.891C595.656 248.138 595.53 248.498 595.53 248.971V251.801H594.14ZM599.258 251.801L601.748 244.501H604.068L606.628 251.801H605.168L602.998 245.471L603.508 245.691H602.258L602.778 245.471L600.678 251.801H599.258ZM600.998 249.861L601.448 248.661H604.408L604.848 249.861H600.998ZM609.474 251.981C609.094 251.981 608.744 251.911 608.424 251.771C608.104 251.631 607.827 251.434 607.594 251.181C607.361 250.928 607.181 250.634 607.054 250.301C606.927 249.961 606.864 249.594 606.864 249.201V248.991C606.864 248.604 606.924 248.241 607.044 247.901C607.171 247.561 607.344 247.264 607.564 247.011C607.791 246.758 608.061 246.561 608.374 246.421C608.694 246.274 609.047 246.201 609.434 246.201C609.861 246.201 610.234 246.294 610.554 246.481C610.881 246.661 611.141 246.934 611.334 247.301C611.527 247.668 611.634 248.128 611.654 248.681L611.244 248.201V244.501H612.634V251.801H611.534V249.491H611.774C611.754 250.044 611.641 250.508 611.434 250.881C611.227 251.248 610.954 251.524 610.614 251.711C610.281 251.891 609.901 251.981 609.474 251.981ZM609.784 250.811C610.057 250.811 610.307 250.751 610.534 250.631C610.761 250.504 610.941 250.324 611.074 250.091C611.214 249.851 611.284 249.571 611.284 249.251V248.851C611.284 248.531 611.214 248.264 611.074 248.051C610.934 247.831 610.751 247.664 610.524 247.551C610.297 247.431 610.051 247.371 609.784 247.371C609.484 247.371 609.217 247.444 608.984 247.591C608.757 247.731 608.577 247.931 608.444 248.191C608.317 248.451 608.254 248.754 608.254 249.101C608.254 249.448 608.321 249.751 608.454 250.011C608.587 250.264 608.767 250.461 608.994 250.601C609.227 250.741 609.491 250.811 609.784 250.811ZM617.206 251.801V250.191H616.976V248.401C616.976 248.088 616.9 247.854 616.746 247.701C616.593 247.548 616.356 247.471 616.036 247.471C615.87 247.471 615.67 247.474 615.436 247.481C615.203 247.488 614.966 247.498 614.726 247.511C614.493 247.518 614.283 247.528 614.096 247.541V246.361C614.25 246.348 614.423 246.334 614.616 246.321C614.81 246.308 615.006 246.301 615.206 246.301C615.413 246.294 615.606 246.291 615.786 246.291C616.346 246.291 616.81 246.364 617.176 246.511C617.55 246.658 617.83 246.888 618.016 247.201C618.21 247.514 618.306 247.924 618.306 248.431V251.801H617.206ZM615.456 251.941C615.063 251.941 614.716 251.871 614.416 251.731C614.123 251.591 613.893 251.391 613.726 251.131C613.566 250.871 613.486 250.558 613.486 250.191C613.486 249.791 613.583 249.464 613.776 249.211C613.976 248.958 614.253 248.768 614.606 248.641C614.966 248.514 615.386 248.451 615.866 248.451H617.126V249.281H615.846C615.526 249.281 615.28 249.361 615.106 249.521C614.94 249.674 614.856 249.874 614.856 250.121C614.856 250.368 614.94 250.568 615.106 250.721C615.28 250.874 615.526 250.951 615.846 250.951C616.04 250.951 616.216 250.918 616.376 250.851C616.543 250.778 616.68 250.658 616.786 250.491C616.9 250.318 616.963 250.084 616.976 249.791L617.316 250.181C617.283 250.561 617.19 250.881 617.036 251.141C616.89 251.401 616.683 251.601 616.416 251.741C616.156 251.874 615.836 251.941 615.456 251.941Z" fill="#2A323F"/>
</g>
<defs>
<filter id="filter0_d_320_1698" x="69" y="-2.86102e-06" width="343" height="233.782" filterUnits="userSpaceOnUse" color-interpolation-filters="sRGB">
<feFlood flood-opacity="0" result="BackgroundImageFix"/>
<feColorMatrix in="SourceAlpha" type="matrix" values="0 0 0 0 0 0 0 0 0 0 0 0 0 0 0 0 0 0 127 0" result="hardAlpha"/>
<feOffset dy="6.91736"/>
<feGaussianBlur stdDeviation="16"/>
<feComposite in2="hardAlpha" operator="out"/>
<feColorMatrix type="matrix" values="0 0 0 0 0.164706 0 0 0 0 0.196078 0 0 0 0 0.247059 0 0 0 0.08 0"/>
<feBlend mode="normal" in2="BackgroundImageFix" result="effect1_dropShadow_320_1698"/>
<feBlend mode="normal" in="SourceGraphic" in2="effect1_dropShadow_320_1698" result="shape"/>
</filter>
<filter id="filter1_d_320_1698" x="0" y="303" width="333.89" height="211.979" filterUnits="userSpaceOnUse" color-interpolation-filters="sRGB">
<feFlood flood-opacity="0" result="BackgroundImageFix"/>
<feColorMatrix in="SourceAlpha" type="matrix" values="0 0 0 0 0 0 0 0 0 0 0 0 0 0 0 0 0 0 127 0" result="hardAlpha"/>
<feOffset dy="6.91736"/>
<feGaussianBlur stdDeviation="16"/>
<feComposite in2="hardAlpha" operator="out"/>
<feColorMatrix type="matrix" values="0 0 0 0 0.164706 0 0 0 0 0.196078 0 0 0 0 0.247059 0 0 0 0.08 0"/>
<feBlend mode="normal" in2="BackgroundImageFix" result="effect1_dropShadow_320_1698"/>
<feBlend mode="normal" in="SourceGraphic" in2="effect1_dropShadow_320_1698" result="shape"/>
</filter>
<filter id="filter2_d_320_1698" x="185" y="189" width="502.515" height="153.56" filterUnits="userSpaceOnUse" color-interpolation-filters="sRGB">
<feFlood flood-opacity="0" result="BackgroundImageFix"/>
<feColorMatrix in="SourceAlpha" type="matrix" values="0 0 0 0 0 0 0 0 0 0 0 0 0 0 0 0 0 0 127 0" result="hardAlpha"/>
<feOffset dy="6.91736"/>
<feGaussianBlur stdDeviation="16"/>
<feComposite in2="hardAlpha" operator="out"/>
<feColorMatrix type="matrix" values="0 0 0 0 0.164706 0 0 0 0 0.196078 0 0 0 0 0.247059 0 0 0 0.08 0"/>
<feBlend mode="normal" in2="BackgroundImageFix" result="effect1_dropShadow_320_1698"/>
<feBlend mode="normal" in="SourceGraphic" in2="effect1_dropShadow_320_1698" result="shape"/>
</filter>
</defs>
</svg>
