<svg width="25" height="24" viewBox="0 0 25 24" fill="none" xmlns="http://www.w3.org/2000/svg">
<path d="M17.25 22.75H7.25C6.84 22.75 6.5 22.41 6.5 22C6.5 21.59 6.84 21.25 7.25 21.25H17.25C17.66 21.25 18 21.59 18 22C18 22.41 17.66 22.75 17.25 22.75Z" fill="#13E0A0"/>
<path opacity="0.4" d="M18.25 19H6.25C4.04 19 2.25 17.21 2.25 15V6C2.25 3.79 4.04 2 6.25 2H18.25C20.46 2 22.25 3.79 22.25 6V15C22.25 17.21 20.46 19 18.25 19Z" fill="#13E0A0"/>
<path d="M17.51 9.07031H13.83C13.42 9.07031 13.08 8.73031 13.08 8.32031C13.08 7.91031 13.42 7.57031 13.83 7.57031H17.51C17.92 7.57031 18.26 7.91031 18.26 8.32031C18.26 8.73031 17.93 9.07031 17.51 9.07031Z" fill="#13E0A0"/>
<path d="M10.25 9.32031C9.7 9.32031 9.25 8.87031 9.25 8.32031C9.25 7.77031 9.69 7.32031 10.25 7.32031C10.8 7.32031 11.25 7.77031 11.25 8.32031C11.25 8.87031 10.81 9.32031 10.25 9.32031Z" fill="#13E0A0"/>
<path d="M7.09998 9.32031C6.54998 9.32031 6.09998 8.87031 6.09998 8.32031C6.09998 7.77031 6.53998 7.32031 7.09998 7.32031H7.10997C7.65997 7.32031 8.10997 7.77031 8.10997 8.32031C8.10997 8.87031 7.64998 9.32031 7.09998 9.32031Z" fill="#13E0A0"/>
<path d="M17.51 14.8594H6.99998C6.58998 14.8594 6.23999 14.5194 6.23999 14.1094C6.23999 13.6994 6.56998 13.3594 6.97998 13.3594H17.51C17.92 13.3594 18.26 13.6994 18.26 14.1094C18.26 14.5194 17.93 14.8594 17.51 14.8594Z" fill="#13E0A0"/>
</svg>
