<svg width="52" height="53" viewBox="0 0 52 53" fill="none" xmlns="http://www.w3.org/2000/svg">
<circle cx="26" cy="26.5" r="22.4545" stroke="url(#paint0_linear_22_18641)" stroke-width="7.09091"/>
<path d="M26 17C23.38 17 21.25 19.13 21.25 21.75C21.25 24.32 23.26 26.4 25.88 26.49C25.96 26.48 26.04 26.48 26.1 26.49C26.12 26.49 26.13 26.49 26.15 26.49C26.16 26.49 26.16 26.49 26.17 26.49C28.73 26.4 30.74 24.32 30.75 21.75C30.75 19.13 28.62 17 26 17Z" fill="#13E0A0"/>
<path opacity="0.4" d="M31.08 29.1596C28.29 27.2996 23.74 27.2996 20.93 29.1596C19.66 29.9996 18.96 31.1496 18.96 32.3796C18.96 33.6096 19.66 34.7496 20.92 35.5896C22.32 36.5296 24.16 36.9996 26 36.9996C27.84 36.9996 29.68 36.5296 31.08 35.5896C32.34 34.7396 33.04 33.5996 33.04 32.3596C33.03 31.1396 32.34 29.9896 31.08 29.1596Z" fill="#B4F8E3"/>
<path d="M25.37 34.26C25.21 34.26 25.05 34.19 24.93 34.08L23.67 32.82C23.43 32.58 23.43 32.18 23.67 31.94C23.91 31.7 24.31 31.7 24.55 31.94L25.37 32.76L27.45 30.68C27.69 30.44 28.09 30.44 28.33 30.68C28.57 30.92 28.57 31.32 28.33 31.56L25.81 34.08C25.69 34.2 25.53 34.26 25.37 34.26Z" fill="#13E0A0"/>
<defs>
<linearGradient id="paint0_linear_22_18641" x1="26" y1="0.5" x2="26" y2="52.5" gradientUnits="userSpaceOnUse">
<stop stop-color="#13E0A0"/>
<stop offset="1" stop-color="#13E0A0"/>
</linearGradient>
</defs>
</svg>
