<svg width="20" height="20" viewBox="0 0 20 20" fill="none" xmlns="http://www.w3.org/2000/svg">
<path fill-rule="evenodd" clip-rule="evenodd" d="M10 1.66602C11.9891 1.66602 13.8968 2.45619 15.3033 3.86271C16.7098 5.26924 17.5 7.17689 17.5 9.16602C17.5 11.7277 16.1033 13.8244 14.6317 15.3285C13.8964 16.0719 13.0941 16.7459 12.235 17.3419L11.88 17.5835L11.7133 17.6943L11.3992 17.8944L11.1192 18.0652L10.7725 18.2668C10.5372 18.4012 10.2709 18.4718 10 18.4718C9.72906 18.4718 9.4628 18.4012 9.2275 18.2668L8.88083 18.0652L8.4475 17.7985L8.2875 17.6943L7.94583 17.4669C7.01903 16.8398 6.15575 16.1236 5.36833 15.3285C3.89667 13.8235 2.5 11.7277 2.5 9.16602C2.5 7.17689 3.29018 5.26924 4.6967 3.86271C6.10322 2.45619 8.01088 1.66602 10 1.66602ZM10 3.33268C8.4529 3.33268 6.96917 3.94726 5.87521 5.04123C4.78125 6.13519 4.16667 7.61892 4.16667 9.16602C4.16667 11.101 5.22667 12.7993 6.55917 14.1627C7.13211 14.7427 7.75138 15.275 8.41083 15.7543L8.7925 16.026C8.91583 16.1121 9.03444 16.1921 9.14833 16.266L9.47333 16.4743L9.75917 16.6485L10 16.7894L10.3792 16.5652L10.685 16.3735C10.8478 16.2702 11.0219 16.1544 11.2075 16.026L11.5892 15.7543C12.2486 15.275 12.8679 14.7427 13.4408 14.1627C14.7733 12.8002 15.8333 11.101 15.8333 9.16602C15.8333 7.61892 15.2188 6.13519 14.1248 5.04123C13.0308 3.94726 11.5471 3.33268 10 3.33268ZM10 5.83268C10.8841 5.83268 11.7319 6.18387 12.357 6.80899C12.9821 7.43411 13.3333 8.28196 13.3333 9.16602C13.3333 10.0501 12.9821 10.8979 12.357 11.523C11.7319 12.1482 10.8841 12.4993 10 12.4993C9.11594 12.4993 8.2681 12.1482 7.64298 11.523C7.01786 10.8979 6.66667 10.0501 6.66667 9.16602C6.66667 8.28196 7.01786 7.43411 7.64298 6.80899C8.2681 6.18387 9.11594 5.83268 10 5.83268ZM10 7.49935C9.55797 7.49935 9.13405 7.67494 8.82149 7.9875C8.50893 8.30007 8.33333 8.72399 8.33333 9.16602C8.33333 9.60804 8.50893 10.032 8.82149 10.3445C9.13405 10.6571 9.55797 10.8327 10 10.8327C10.442 10.8327 10.866 10.6571 11.1785 10.3445C11.4911 10.032 11.6667 9.60804 11.6667 9.16602C11.6667 8.72399 11.4911 8.30007 11.1785 7.9875C10.866 7.67494 10.442 7.49935 10 7.49935Z" fill="#999999"/>
</svg>
