<svg width="16" height="16" viewBox="0 0 16 16" fill="none" xmlns="http://www.w3.org/2000/svg">
<path d="M8 1.66699C9.14908 1.66708 10.2509 2.12404 11.0635 2.93652C11.8761 3.74918 12.333 4.85171 12.333 6.00098C12.3329 6.80846 12.0617 7.73798 11.6328 8.69531C11.2058 9.64831 10.6336 10.6048 10.0566 11.46C9.48024 12.3143 8.90293 13.0619 8.46973 13.5957C8.28208 13.8269 8.12027 14.0165 7.99902 14.1582C7.87782 14.0165 7.71671 13.8266 7.5293 13.5957C7.09609 13.0619 6.51878 12.3143 5.94238 11.46C5.36541 10.6048 4.79316 9.6483 4.36621 8.69531C3.93732 7.73798 3.66609 6.80846 3.66602 6.00098C3.66602 4.8517 4.12289 3.74918 4.93555 2.93652C5.7482 2.12387 6.85073 1.66699 8 1.66699ZM8 4.00098C7.46957 4.00098 6.96101 4.21184 6.58594 4.58691C6.21086 4.96199 6 5.47054 6 6.00098C6.00009 6.53129 6.21094 7.04004 6.58594 7.41504C6.96098 7.78991 7.46972 8.00098 8 8.00098C8.26238 8.00093 8.52222 7.94899 8.76465 7.84863C9.0073 7.74812 9.22835 7.60076 9.41406 7.41504C9.59978 7.22932 9.74715 7.00828 9.84766 6.76562C9.94801 6.52319 9.99996 6.26336 10 6.00098C10 5.4707 9.78893 4.96196 9.41406 4.58691C9.03907 4.21192 8.53032 4.00106 8 4.00098Z" stroke="#999999" stroke-width="0.666667"/>
</svg>
