<svg width="14" height="14" viewBox="0 0 14 14" fill="none" xmlns="http://www.w3.org/2000/svg">
<path d="M6.99984 6.70817C6.61306 6.70817 6.24213 6.55453 5.96864 6.28103C5.69515 6.00754 5.5415 5.63661 5.5415 5.24984C5.5415 4.86306 5.69515 4.49213 5.96864 4.21864C6.24213 3.94515 6.61306 3.7915 6.99984 3.7915C7.38661 3.7915 7.75754 3.94515 8.03103 4.21864C8.30453 4.49213 8.45817 4.86306 8.45817 5.24984C8.45817 5.44135 8.42045 5.63098 8.34716 5.80792C8.27387 5.98485 8.16645 6.14562 8.03103 6.28103C7.89562 6.41645 7.73485 6.52387 7.55792 6.59716C7.38098 6.67045 7.19135 6.70817 6.99984 6.70817ZM6.99984 1.1665C5.91687 1.1665 4.87826 1.59671 4.11248 2.36248C3.34671 3.12826 2.9165 4.16687 2.9165 5.24984C2.9165 8.31234 6.99984 12.8332 6.99984 12.8332C6.99984 12.8332 11.0832 8.31234 11.0832 5.24984C11.0832 4.16687 10.653 3.12826 9.88719 2.36248C9.12142 1.59671 8.0828 1.1665 6.99984 1.1665Z" fill="#ADADAD"/>
</svg>
