<svg width="66" height="66" viewBox="0 0 66 66" fill="none" xmlns="http://www.w3.org/2000/svg">
<g clip-path="url(#clip0_22_10979)">
<path d="M33.0005 66.0011C51.2262 66.0011 66.0011 51.2262 66.0011 33.0005C66.0011 14.7748 51.2262 0 33.0005 0C14.7748 0 0 14.7748 0 33.0005C0 51.2262 14.7748 66.0011 33.0005 66.0011Z" fill="#13E0A0"/>
<path d="M45.4666 41.6777C42.6585 39.4058 39.1467 38.1382 35.1871 38.0518L35.1541 38.0507C35.1509 38.0507 35.1466 38.0507 35.1434 38.0507C35.1306 38.0507 35.1189 38.0507 35.1061 38.0507H22.56C21.9716 36.5784 21.6528 34.9889 21.6133 33.2767C21.6112 33.1839 21.6133 33.0922 21.6133 33.0006C21.6133 32.9078 21.6112 32.8172 21.6133 32.7244C21.6528 31.0133 21.9716 29.4227 22.56 27.9504H35.1061C35.1189 27.9504 35.1306 27.9504 35.1434 27.9504C35.1466 27.9504 35.1509 27.9504 35.1541 27.9504H35.1871C39.1477 27.8629 42.6595 26.5943 45.4666 24.3224C46.2779 23.6657 47.0295 22.9258 47.7172 22.1059C47.0476 21.3138 46.3046 20.592 45.4922 19.9385C44.9954 19.5387 44.474 19.1634 43.925 18.8159C41.2778 17.1773 38.3791 16.3788 35.1434 16.3372C31.1156 16.3009 27.6294 17.4779 24.6869 19.8671C24.253 20.2189 23.8309 20.5963 23.4204 21.0014C23.0803 21.3287 22.7615 21.6678 22.4566 22.0132C21.6645 22.9098 20.9939 23.8682 20.4395 24.8842H10.9874C10.9874 26.5783 12.2273 27.9514 13.7571 27.9514H19.1783C18.7306 29.493 18.5035 31.1413 18.5035 32.8929C18.5035 32.9291 18.5056 32.9654 18.5056 33.0016C18.5056 33.0379 18.5035 33.0741 18.5035 33.1104C18.5035 34.8631 18.7316 36.5102 19.1783 38.0518H10.9874C10.9874 39.7459 12.2273 41.119 13.7571 41.119H20.4385C20.9929 42.135 21.6634 43.0935 22.4556 43.9901C22.7605 44.3355 23.0792 44.6745 23.4193 45.0018C23.8298 45.4069 24.252 45.7843 24.6859 46.1362C27.6294 48.5253 31.1146 49.7023 35.1423 49.6661C38.378 49.6245 41.2768 48.826 43.9239 47.1873C44.473 46.8398 44.9943 46.4645 45.4911 46.0647C46.3035 45.4112 47.0466 44.6894 47.7161 43.8973C47.0285 43.0775 46.2768 42.3365 45.4655 41.6809L45.4666 41.6777ZM34.8907 19.4875C38.1594 19.4588 40.9281 20.317 43.2107 22.0835C42.6894 22.4695 42.1286 22.8277 41.5294 23.1592C39.4782 24.2893 37.3428 24.8778 35.1658 24.8821H24.3063C24.4545 24.6881 24.6059 24.4951 24.7658 24.3064C25.0292 23.9951 25.3074 23.6912 25.6038 23.3949C26.0622 22.9364 26.5377 22.5206 27.0271 22.1422C29.3192 20.3735 31.9472 19.4875 34.8897 19.4875H34.8907ZM34.8907 46.5125C31.9483 46.5125 29.3203 45.6255 27.0281 43.8579C26.5388 43.4805 26.0633 43.0636 25.6049 42.6052C25.3085 42.3088 25.0302 42.0039 24.7669 41.6937C24.607 41.505 24.4545 41.3131 24.3074 41.119H35.1669C37.3439 41.1233 39.4793 41.7107 41.5305 42.8419C42.1297 43.1734 42.6894 43.5327 43.2118 43.9176C40.9292 45.6841 38.1616 46.5424 34.8918 46.5136L34.8907 46.5125Z" fill="#000E3A"/>
</g>
<defs>
<clipPath id="clip0_22_10979">
<rect width="66" height="66" fill="white"/>
</clipPath>
</defs>
</svg>
