<svg width="44" height="44" viewBox="0 0 44 44" fill="none" xmlns="http://www.w3.org/2000/svg">
<rect width="44" height="44" rx="8" fill="#FF383C" fill-opacity="0.08"/>
<path d="M22.12 29.643L22 29.7629L21.868 29.643C16.168 24.4757 12.4 21.0589 12.4 17.594C12.4 15.1962 14.2 13.3978 16.6 13.3978C18.448 13.3978 20.248 14.5967 20.884 16.2272H23.116C23.752 14.5967 25.552 13.3978 27.4 13.3978C29.8 13.3978 31.6 15.1962 31.6 17.594C31.6 21.0589 27.832 24.4757 22.12 29.643ZM27.4 11C25.312 11 23.308 11.9711 22 13.4937C20.692 11.9711 18.688 11 16.6 11C12.904 11 10 13.8894 10 17.594C10 22.1139 14.08 25.8185 20.26 31.4174L22 33L23.74 31.4174C29.92 25.8185 34 22.1139 34 17.594C34 13.8894 31.096 11 27.4 11Z" fill="#FF383C"/>
</svg>
