<svg width="11" height="12" viewBox="0 0 11 12" fill="none" xmlns="http://www.w3.org/2000/svg">
<path d="M5.44201 2.98132L6.0299 4.04004C6.11045 4.18536 6.31223 4.32319 6.47798 4.34157L7.46463 4.46383C8.09634 4.54074 8.26001 4.98869 7.83101 5.45894L7.10011 6.2556C6.9781 6.38911 6.91509 6.6435 6.96452 6.81795L7.22275 7.75389C7.42586 8.49284 7.0426 8.79995 6.36751 8.438L5.42443 7.9323C5.25268 7.83985 4.98014 7.85382 4.81911 7.95825L3.92323 8.54036C3.28189 8.95646 2.87284 8.684 3.0124 7.93103L3.19113 6.97811C3.2245 6.79998 3.14331 6.55164 3.0098 6.42963L2.21315 5.69871C1.74566 5.26811 1.8704 4.80808 2.4921 4.67662L3.46286 4.47206C3.62669 4.43617 3.81635 4.2856 3.88276 4.13263L4.37834 3.02557C4.64488 2.42793 5.12461 2.40832 5.44201 2.98132Z" fill="#FFD600"/>
</svg>
