<svg width="16" height="14" viewBox="0 0 16 14" fill="none" xmlns="http://www.w3.org/2000/svg">
<path d="M16 6.5634C16 10.1883 12.418 13.1268 8 13.1268C7.20761 13.1285 6.41845 13.032 5.653 12.8399C5.069 13.1174 3.728 13.65 1.472 13.9969C1.272 14.0269 1.12 13.8319 1.199 13.6575C1.553 12.8736 1.873 11.8291 1.969 10.8765C0.744 9.72321 0 8.21363 0 6.5634C0 2.93853 3.582 0 8 0C12.418 0 16 2.93853 16 6.5634ZM5 6.5634C5 6.31473 4.89464 6.07624 4.70711 5.9004C4.51957 5.72456 4.26522 5.62577 4 5.62577C3.73478 5.62577 3.48043 5.72456 3.29289 5.9004C3.10536 6.07624 3 6.31473 3 6.5634C3 6.81208 3.10536 7.05057 3.29289 7.2264C3.48043 7.40224 3.73478 7.50103 4 7.50103C4.26522 7.50103 4.51957 7.40224 4.70711 7.2264C4.89464 7.05057 5 6.81208 5 6.5634ZM9 6.5634C9 6.31473 8.89464 6.07624 8.70711 5.9004C8.51957 5.72456 8.26522 5.62577 8 5.62577C7.73478 5.62577 7.48043 5.72456 7.29289 5.9004C7.10536 6.07624 7 6.31473 7 6.5634C7 6.81208 7.10536 7.05057 7.29289 7.2264C7.48043 7.40224 7.73478 7.50103 8 7.50103C8.26522 7.50103 8.51957 7.40224 8.70711 7.2264C8.89464 7.05057 9 6.81208 9 6.5634ZM12 7.50103C12.2652 7.50103 12.5196 7.40224 12.7071 7.2264C12.8946 7.05057 13 6.81208 13 6.5634C13 6.31473 12.8946 6.07624 12.7071 5.9004C12.5196 5.72456 12.2652 5.62577 12 5.62577C11.7348 5.62577 11.4804 5.72456 11.2929 5.9004C11.1054 6.07624 11 6.31473 11 6.5634C11 6.81208 11.1054 7.05057 11.2929 7.2264C11.4804 7.40224 11.7348 7.50103 12 7.50103Z" fill="#000E3A"/>
</svg>
