<svg width="14" height="13" viewBox="0 0 14 13" fill="none" xmlns="http://www.w3.org/2000/svg">
<path opacity="0.4" d="M1.58331 7.02509V3.78592C1.58331 2.29092 2.79665 1.08301 4.29165 1.08301H9.70831C11.2033 1.08301 12.4166 2.29092 12.4166 3.78592V7.56676C12.4166 9.05634 11.2033 10.2643 9.70831 10.2643H8.89581C8.7279 10.2643 8.5654 10.3455 8.46248 10.4809L7.64998 11.5588C7.29248 12.0355 6.70748 12.0355 6.34998 11.5588L5.53748 10.4809C5.45081 10.3618 5.25581 10.2643 5.10415 10.2643H4.29165C2.79665 10.2643 1.58331 9.05634 1.58331 7.56676V7.02509Z" fill="#292D32"/>
<path d="M9.70835 4.73926H4.29169C4.0696 4.73926 3.88544 4.55509 3.88544 4.33301C3.88544 4.11092 4.0696 3.92676 4.29169 3.92676H9.70835C9.93044 3.92676 10.1146 4.11092 10.1146 4.33301C10.1146 4.55509 9.93044 4.73926 9.70835 4.73926Z" fill="#292D32"/>
<path d="M7.54169 7.44824H4.29169C4.0696 7.44824 3.88544 7.26408 3.88544 7.04199C3.88544 6.81991 4.0696 6.63574 4.29169 6.63574H7.54169C7.76377 6.63574 7.94794 6.81991 7.94794 7.04199C7.94794 7.26408 7.76377 7.44824 7.54169 7.44824Z" fill="#292D32"/>
</svg>
