<svg width="24" height="24" viewBox="0 0 24 24" fill="none" xmlns="http://www.w3.org/2000/svg">
<path fill-rule="evenodd" clip-rule="evenodd" d="M5.49997 12C5.49997 12.8284 4.82839 13.5 3.99997 13.5C3.17155 13.5 2.49997 12.8284 2.49997 12C2.49997 11.1716 3.17155 10.5 3.99997 10.5C4.82839 10.5 5.49997 11.1716 5.49997 12ZM21.5 12C21.5 12.8284 20.8284 13.5 20 13.5C19.1715 13.5 18.5 12.8284 18.5 12C18.5 11.1716 19.1715 10.5 20 10.5C20.8284 10.5 21.5 11.1716 21.5 12ZM13.5 12C13.5 12.8284 12.8284 13.5 12 13.5C11.1716 13.5 10.5 12.8284 10.5 12C10.5 11.1716 11.1716 10.5 12 10.5C12.8284 10.5 13.5 11.1716 13.5 12Z" fill="#ADADAD"/>
</svg>
