<svg width="24" height="24" viewBox="0 0 24 24" fill="none" xmlns="http://www.w3.org/2000/svg">
<path d="M6 4.125C6 2.676 7.176 1.5 8.625 1.5H15.375C16.824 1.5 18 2.676 18 4.125V9.033C16.5622 8.90132 15.115 9.14927 13.8031 9.75208C12.4911 10.3549 11.3603 11.2915 10.5237 12.4682C9.68711 13.6449 9.17396 15.0206 9.03556 16.4578C8.89715 17.8949 9.13833 19.3432 9.735 20.658L9.1755 22.5H8.625C7.92881 22.5 7.26113 22.2234 6.76884 21.7312C6.27656 21.2389 6 20.5712 6 19.875V4.125ZM17.25 24C18.7309 23.9999 20.1706 23.5127 21.3473 22.6137C22.5241 21.7147 23.3725 20.4536 23.7619 19.0249C24.1512 17.5961 24.06 16.079 23.5021 14.7072C22.9443 13.3354 21.9508 12.1852 20.6747 11.4337C19.3987 10.6822 17.911 10.3712 16.4408 10.5486C14.9706 10.726 13.5995 11.382 12.5389 12.4154C11.4782 13.4488 10.7868 14.8024 10.5713 16.2675C10.3557 17.7325 10.6279 19.2279 11.346 20.523L10.5285 23.2065C10.4968 23.3127 10.4945 23.4256 10.5217 23.533C10.5489 23.6405 10.6046 23.7386 10.683 23.817C10.7614 23.8954 10.8595 23.9511 10.967 23.9783C11.0744 24.0055 11.1873 24.0032 11.2935 23.9715L13.9785 23.1555C14.9798 23.7098 16.1055 24.0004 17.25 24ZM13.5 15.75C13.5 15.5511 13.579 15.3603 13.7197 15.2197C13.8603 15.079 14.0511 15 14.25 15H20.25C20.4489 15 20.6397 15.079 20.7803 15.2197C20.921 15.3603 21 15.5511 21 15.75C21 15.9489 20.921 16.1397 20.7803 16.2803C20.6397 16.421 20.4489 16.5 20.25 16.5H14.25C14.0511 16.5 13.8603 16.421 13.7197 16.2803C13.579 16.1397 13.5 15.9489 13.5 15.75ZM14.25 19.5C14.0511 19.5 13.8603 19.421 13.7197 19.2803C13.579 19.1397 13.5 18.9489 13.5 18.75C13.5 18.5511 13.579 18.3603 13.7197 18.2197C13.8603 18.079 14.0511 18 14.25 18H17.25C17.4489 18 17.6397 18.079 17.7803 18.2197C17.921 18.3603 18 18.5511 18 18.75C18 18.9489 17.921 19.1397 17.7803 19.2803C17.6397 19.421 17.4489 19.5 17.25 19.5H14.25Z" fill="#16A34A"/>
</svg>
