<svg width="32" height="32" viewBox="0 0 32 32" fill="none" xmlns="http://www.w3.org/2000/svg">
<g clip-path="url(#clip0_65_11043)">
<circle cx="16" cy="16" r="16" fill="#EFEFEF"/>
<path d="M26 9.00008V11.4201C26 13.0001 25 14.0001 23.42 14.0001H20V7.01008C20 5.90008 20.91 4.99008 22.02 5.00008C23.11 5.01008 24.11 5.45008 24.83 6.17008C25.55 6.90008 26 7.90008 26 9.00008Z" fill="#866102"/>
<path opacity="0.4" d="M6 10V24C6 24.83 6.94 25.3 7.6 24.8L9.31 23.52C9.71 23.22 10.27 23.26 10.63 23.62L12.29 25.29C12.68 25.68 13.32 25.68 13.71 25.29L15.39 23.61C15.74 23.26 16.3 23.22 16.69 23.52L18.4 24.8C19.06 25.29 20 24.82 20 24V7C20 5.9 20.9 5 22 5H11H10C7 5 6 6.79 6 9V10Z" fill="#EEAC04"/>
<path d="M16 15.2598H13C12.59 15.2598 12.25 15.5998 12.25 16.0098C12.25 16.4198 12.59 16.7598 13 16.7598H16C16.41 16.7598 16.75 16.4198 16.75 16.0098C16.75 15.5998 16.41 15.2598 16 15.2598Z" fill="#EEAC04"/>
<path d="M13 12.7598H16C16.41 12.7598 16.75 12.4198 16.75 12.0098C16.75 11.5998 16.41 11.2598 16 11.2598H13C12.59 11.2598 12.25 11.5998 12.25 12.0098C12.25 12.4198 12.59 12.7598 13 12.7598Z" fill="#EEAC04"/>
<path d="M9.97 11.0098C9.41 11.0098 8.97 11.4598 8.97 12.0098C8.97 12.5598 9.42 13.0098 9.97 13.0098C10.52 13.0098 10.97 12.5598 10.97 12.0098C10.97 11.4598 10.52 11.0098 9.97 11.0098Z" fill="#EEAC04"/>
<path d="M9.97 15.0098C9.41 15.0098 8.97 15.4598 8.97 16.0098C8.97 16.5598 9.42 17.0098 9.97 17.0098C10.52 17.0098 10.97 16.5598 10.97 16.0098C10.97 15.4598 10.52 15.0098 9.97 15.0098Z" fill="#EEAC04"/>
</g>
<defs>
<clipPath id="clip0_65_11043">
<rect width="32" height="32" fill="white"/>
</clipPath>
</defs>
</svg>
