<svg width="24" height="24" viewBox="0 0 24 24" fill="none" xmlns="http://www.w3.org/2000/svg">
<path d="M18.0007 8.30942C17.6407 7.89942 17.2707 7.48942 16.8807 7.09942L16.5907 6.82942L16.7307 6.70942C17.2197 6.28962 17.5682 5.72993 17.7291 5.10585C17.8901 4.48177 17.8557 3.82335 17.6307 3.21942C17.3046 2.53839 16.7882 1.96635 16.1441 1.5724C15.4999 1.17845 14.7555 0.97944 14.0007 0.999416V2.99942C14.3565 2.99446 14.7071 3.08452 15.0165 3.26031C15.3259 3.43609 15.5828 3.69124 15.7607 3.99942C15.9307 4.39942 15.7607 4.83942 15.2907 5.30942C15.2207 5.38942 15.1407 5.43942 15.0707 5.50942C12.0707 3.09942 8.78065 1.73942 7.17065 3.34942C7.00258 3.52229 6.86407 3.72161 6.76065 3.93942V4.03942L6.58065 4.56942L2.17065 17.6694C2.00384 18.1631 1.95705 18.6894 2.03415 19.2047C2.11125 19.7201 2.31002 20.2096 2.614 20.6329C2.91798 21.0561 3.31842 21.4008 3.78216 21.6384C4.24589 21.8761 4.75957 21.9998 5.28065 21.9994C5.62091 21.9963 5.95848 21.9389 6.28065 21.8294L20.0007 17.2794C20.1693 17.2166 20.3178 17.1095 20.4307 16.9694L20.6407 16.7894C22.0707 15.3494 21.1507 12.5794 19.2307 9.88942C20.3707 9.22407 21.6834 8.91417 23.0007 8.99942V6.99942C21.238 6.90243 19.4893 7.36059 18.0007 8.30942ZM5.70065 19.9294C5.47366 20.0045 5.23025 20.0151 4.9976 19.9599C4.76496 19.9047 4.55222 19.786 4.38315 19.6169C4.21408 19.4478 4.09532 19.2351 4.04014 19.0025C3.98496 18.7698 3.99552 18.5264 4.07065 18.2994L5.43065 14.1994C6.40124 16.0503 7.89261 17.5765 9.72065 18.5894L5.70065 19.9294ZM12.7007 17.5994C11.1894 17.1992 9.81074 16.4066 8.70439 15.302C7.59804 14.1974 6.80329 12.8201 6.40065 11.3094L7.40065 8.30942L7.46065 8.39942C7.57065 8.61942 7.71065 8.84942 7.85065 9.07942C7.99065 9.30941 8.01065 9.36942 8.11065 9.51942C8.21065 9.66942 8.44065 9.99942 8.62065 10.2494C8.80065 10.4994 8.81065 10.5294 8.92065 10.6694C9.03065 10.8094 9.35065 11.2194 9.58065 11.4894L9.87065 11.8394C10.2107 12.2294 10.5707 12.6094 10.9507 12.9994C11.3307 13.3894 11.6307 13.6394 11.9507 13.9994L12.2807 14.2794L13.0607 14.9094L13.4307 15.1894C13.7107 15.3894 13.9807 15.5894 14.2607 15.7694L14.5707 15.9694C14.9307 16.1894 15.2907 16.3994 15.6407 16.5794H15.6907L12.7007 17.5994ZM19.2107 15.3694H19.1507C18.4607 15.7494 15.5907 14.7994 12.3607 11.5594C12.0207 11.2194 11.7007 10.8894 11.4107 10.5594L11.1207 10.2094L10.5907 9.56942L10.3007 9.16942C10.1707 8.97942 10.0307 8.79942 9.91065 8.61942L9.65065 8.19942L9.36065 7.72942C9.28065 7.58942 9.22065 7.45942 9.15065 7.32942C9.08065 7.19942 9.00065 7.06942 8.94065 6.92942C8.8863 6.81255 8.83954 6.6923 8.80065 6.56942C8.75065 6.43942 8.69065 6.30942 8.65065 6.18942C8.61065 6.06942 8.60065 5.99942 8.57065 5.87942C8.54065 5.75942 8.52065 5.65942 8.50065 5.55942C8.49501 5.47284 8.49501 5.38599 8.50065 5.29942C8.49102 5.21971 8.49102 5.13913 8.50065 5.05942L8.61065 4.74942C8.97065 4.38942 10.8407 4.74942 13.3407 6.64942C12.9171 6.84123 12.4639 6.95958 12.0007 6.99942V8.99942C13.0629 8.93832 14.0935 8.61539 15.0007 8.05942L15.4807 8.51942C15.9007 8.93942 16.2907 9.36942 16.6607 9.79942C16.0882 10.8345 15.8771 12.0309 16.0607 13.1994L18.0607 12.8094C18.0022 12.4384 18.0022 12.0605 18.0607 11.6894C18.3668 12.1516 18.6376 12.6364 18.8707 13.1394C19.4307 14.4594 19.3907 15.1994 19.2107 15.3694Z" fill="#858585"/>
</svg>
