<svg width="24" height="24" viewBox="0 0 24 24" fill="none" xmlns="http://www.w3.org/2000/svg">
<path d="M24 6.8584C21.9848 6.74757 19.9856 7.27114 18.2837 8.35544C17.8721 7.8869 17.4491 7.41836 17.0033 6.97268L16.6717 6.66413L16.8318 6.527C17.3909 6.04727 17.7893 5.40767 17.9733 4.69449C18.1573 3.98131 18.118 3.22888 17.8607 2.53872C17.489 1.75955 16.899 1.10503 16.1623 0.654673C15.4256 0.204312 14.5739 -0.022509 13.7107 0.00176279V2.28731C14.1174 2.28165 14.5184 2.38457 14.8721 2.58545C15.2258 2.78633 15.5194 3.0779 15.7228 3.43008C15.9172 3.88719 15.7228 4.39001 15.1855 4.92711L14.9225 5.1671C13.7301 4.17377 12.4209 3.32951 11.024 2.653C8.13158 1.35024 6.64534 1.9559 5.91365 2.653C5.69113 2.87675 5.51272 3.14036 5.38776 3.43008L5.18197 4.03575L3.53568 8.99539C4.83899 12.2409 7.99438 18.0119 14.8539 20.5031L20.5702 18.6061C20.763 18.5344 20.9328 18.412 21.0618 18.2518L21.3019 18.0462C22.9368 16.4006 21.885 13.2351 19.6899 10.161C20.9933 9.40068 22.494 9.04654 24 9.14395V6.8584ZM19.667 16.4234H19.5985C18.8096 16.8462 15.5399 15.772 11.8357 12.0694C11.447 11.6809 11.0812 11.3038 10.7496 10.9267C10.6353 10.801 10.5324 10.6638 10.4181 10.5267L9.81217 9.79533L9.49205 9.34965C9.332 9.13252 9.17194 8.91539 9.03475 8.70969C8.89756 8.50399 8.85183 8.41257 8.76037 8.26401C8.66891 8.11545 8.50885 7.87547 8.40596 7.6812C8.30306 7.48693 8.25733 7.40693 8.18874 7.25837C8.12014 7.10981 7.99438 6.9384 7.92579 6.77841C7.85719 6.61842 7.8229 6.51557 7.76573 6.38986C7.70857 6.26416 7.63997 6.08132 7.59424 5.93276C7.54851 5.78419 7.53708 5.71563 7.51422 5.60135C7.49135 5.48707 7.44562 5.32709 7.42276 5.21281C7.41726 5.12147 7.41726 5.02988 7.42276 4.93854C7.41199 4.8398 7.41199 4.74017 7.42276 4.64142L7.54851 4.28716C7.74287 4.08146 8.58888 4.02432 10.098 4.70999C11.1058 5.19555 12.0599 5.7854 12.9447 6.46986C12.4626 6.68185 11.9489 6.81312 11.4242 6.8584V9.14395C12.639 9.07649 13.8178 8.70728 14.8539 8.06974L15.4141 8.59542C15.9172 9.08681 16.363 9.5782 16.7746 10.0467C16.0844 11.2213 15.8105 12.5942 15.9972 13.9436L18.2837 13.4979C18.2057 13.0672 18.2057 12.6259 18.2837 12.1952C19.7585 14.4464 20.0329 16.0692 19.667 16.4234ZM2.7354 11.4295L0.185931 19.0861C0.00192114 19.6482 -0.0463927 20.2459 0.044939 20.8303C0.136271 21.4146 0.364655 21.9691 0.711423 22.4484C1.05819 22.9276 1.5135 23.318 2.04013 23.5877C2.56675 23.8574 3.14975 23.9987 3.74146 24C4.13046 23.9964 4.51639 23.9308 4.88472 23.8057L12.3388 21.3259C8.13173 19.1782 4.75477 15.6982 2.7354 11.4295Z" fill="#13E0A0"/>
</svg>
