<svg width="16" height="18" viewBox="0 0 16 18" fill="none" xmlns="http://www.w3.org/2000/svg">
<path d="M4.66666 6C4.66666 5.80109 4.7369 5.61032 4.86193 5.46967C4.98695 5.32902 5.15652 5.25 5.33333 5.25H10.6667C10.8435 5.25 11.013 5.32902 11.1381 5.46967C11.2631 5.61032 11.3333 5.80109 11.3333 6C11.3333 6.19891 11.2631 6.38968 11.1381 6.53033C11.013 6.67098 10.8435 6.75 10.6667 6.75H5.33333C5.15652 6.75 4.98695 6.67098 4.86193 6.53033C4.7369 6.38968 4.66666 6.19891 4.66666 6ZM5.33333 9.75H10.6667C10.8435 9.75 11.013 9.67098 11.1381 9.53033C11.2631 9.38967 11.3333 9.19891 11.3333 9C11.3333 8.80108 11.2631 8.61032 11.1381 8.46967C11.013 8.32901 10.8435 8.25 10.6667 8.25H5.33333C5.15652 8.25 4.98695 8.32901 4.86193 8.46967C4.7369 8.61032 4.66666 8.80108 4.66666 9C4.66666 9.19891 4.7369 9.38967 4.86193 9.53033C4.98695 9.67098 5.15652 9.75 5.33333 9.75ZM8 11.25H5.33333C5.15652 11.25 4.98695 11.329 4.86193 11.4697C4.7369 11.6103 4.66666 11.8011 4.66666 12C4.66666 12.1989 4.7369 12.3897 4.86193 12.5303C4.98695 12.671 5.15652 12.75 5.33333 12.75H8C8.17681 12.75 8.34638 12.671 8.4714 12.5303C8.59643 12.3897 8.66666 12.1989 8.66666 12C8.66666 11.8011 8.59643 11.6103 8.4714 11.4697C8.34638 11.329 8.17681 11.25 8 11.25ZM16 1.5V11.6897C16.0006 11.8867 15.9663 12.082 15.8992 12.264C15.8321 12.446 15.7335 12.6112 15.6092 12.75L11.3333 17.5603C11.21 17.7002 11.0631 17.8111 10.9013 17.8866C10.7395 17.9621 10.566 18.0006 10.3908 18H1.33333C0.979711 18 0.640572 17.842 0.390524 17.5607C0.140476 17.2793 0 16.8978 0 16.5V1.5C0 1.10217 0.140476 0.720644 0.390524 0.43934C0.640572 0.158035 0.979711 0 1.33333 0H14.6667C15.0203 0 15.3594 0.158035 15.6095 0.43934C15.8595 0.720644 16 1.10217 16 1.5ZM1.33333 16.5H10V12C10 11.8011 10.0702 11.6103 10.1953 11.4697C10.3203 11.329 10.4899 11.25 10.6667 11.25H14.6667V1.5H1.33333V16.5ZM11.3333 12.75V15.4406L13.7242 12.75H11.3333Z" fill="#D00000"/>
</svg>
