<svg width="16" height="16" viewBox="0 0 16 16" fill="none" xmlns="http://www.w3.org/2000/svg">
<path d="M7.33342 11.3335H8.66675V7.3335H7.33342V11.3335ZM8.00008 6.00016C8.18897 6.00016 8.34741 5.93616 8.47542 5.80816C8.60342 5.68016 8.66719 5.52194 8.66675 5.3335C8.6663 5.14505 8.6023 4.98683 8.47475 4.85883C8.34719 4.73083 8.18897 4.66683 8.00008 4.66683C7.81119 4.66683 7.65297 4.73083 7.52542 4.85883C7.39786 4.98683 7.33386 5.14505 7.33342 5.3335C7.33297 5.52194 7.39697 5.68039 7.52542 5.80883C7.65386 5.93727 7.81208 6.00105 8.00008 6.00016ZM8.00008 14.6668C6.45564 14.2779 5.18053 13.3917 4.17475 12.0082C3.16897 10.6246 2.6663 9.08861 2.66675 7.40016V3.3335L8.00008 1.3335L13.3334 3.3335V7.40016C13.3334 9.08905 12.8307 10.6253 11.8254 12.0088C10.8201 13.3924 9.54497 14.2784 8.00008 14.6668ZM8.00008 13.2668C9.15564 12.9002 10.1112 12.1668 10.8667 11.0668C11.6223 9.96683 12.0001 8.74461 12.0001 7.40016V4.25016L8.00008 2.75016L4.00008 4.25016V7.40016C4.00008 8.74461 4.37786 9.96683 5.13341 11.0668C5.88897 12.1668 6.84453 12.9002 8.00008 13.2668Z" fill="white"/>
</svg>
