<svg width="16" height="16" viewBox="0 0 16 16" fill="none" xmlns="http://www.w3.org/2000/svg">
<path d="M7.99996 8.66683C7.79699 8.66446 7.59817 8.72432 7.43025 8.83836C7.26234 8.95241 7.13339 9.11515 7.06077 9.3047C6.98815 9.49424 6.97533 9.70149 7.02406 9.89854C7.07278 10.0956 7.1807 10.273 7.33329 10.4068V11.3335C7.33329 11.5103 7.40353 11.6799 7.52855 11.8049C7.65358 11.9299 7.82315 12.0002 7.99996 12.0002C8.17677 12.0002 8.34634 11.9299 8.47136 11.8049C8.59639 11.6799 8.66663 11.5103 8.66663 11.3335V10.4068C8.81922 10.273 8.92714 10.0956 8.97586 9.89854C9.02458 9.70149 9.01177 9.49424 8.93915 9.3047C8.86653 9.11515 8.73758 8.95241 8.56966 8.83836C8.40175 8.72432 8.20293 8.66446 7.99996 8.66683ZM11.3333 6.00016V4.66683C11.3333 3.78277 10.9821 2.93493 10.357 2.30981C9.73186 1.68469 8.88401 1.3335 7.99996 1.3335C7.1159 1.3335 6.26806 1.68469 5.64294 2.30981C5.01782 2.93493 4.66663 3.78277 4.66663 4.66683V6.00016C4.13619 6.00016 3.62749 6.21088 3.25241 6.58595C2.87734 6.96102 2.66663 7.46973 2.66663 8.00016V12.6668C2.66663 13.1973 2.87734 13.706 3.25241 14.081C3.62749 14.4561 4.13619 14.6668 4.66663 14.6668H11.3333C11.8637 14.6668 12.3724 14.4561 12.7475 14.081C13.1226 13.706 13.3333 13.1973 13.3333 12.6668V8.00016C13.3333 7.46973 13.1226 6.96102 12.7475 6.58595C12.3724 6.21088 11.8637 6.00016 11.3333 6.00016ZM5.99996 4.66683C5.99996 4.1364 6.21067 3.62769 6.58575 3.25262C6.96082 2.87754 7.46953 2.66683 7.99996 2.66683C8.53039 2.66683 9.0391 2.87754 9.41417 3.25262C9.78925 3.62769 9.99996 4.1364 9.99996 4.66683V6.00016H5.99996V4.66683ZM12 12.6668C12 12.8436 11.9297 13.0132 11.8047 13.1382C11.6797 13.2633 11.5101 13.3335 11.3333 13.3335H4.66663C4.48981 13.3335 4.32025 13.2633 4.19522 13.1382C4.0702 13.0132 3.99996 12.8436 3.99996 12.6668V8.00016C3.99996 7.82335 4.0702 7.65378 4.19522 7.52876C4.32025 7.40373 4.48981 7.3335 4.66663 7.3335H11.3333C11.5101 7.3335 11.6797 7.40373 11.8047 7.52876C11.9297 7.65378 12 7.82335 12 8.00016V12.6668Z" fill="#ADADAD"/>
</svg>
