<svg width="16" height="16" viewBox="0 0 16 16" fill="none" xmlns="http://www.w3.org/2000/svg">
<g clip-path="url(#clip0_1426_4950)">
<path fill-rule="evenodd" clip-rule="evenodd" d="M7.52791 2.2055C7.26524 2.54816 6.96924 3.0775 6.53858 3.8495L6.32058 4.24083L6.28124 4.3115C6.08124 4.6715 5.91124 4.97683 5.63858 5.1835C5.36324 5.39283 5.02724 5.46816 4.63658 5.55616L4.56058 5.5735L4.13658 5.6695C3.29991 5.85883 2.72991 5.98883 2.34058 6.14283C1.95991 6.29216 1.87991 6.4155 1.84924 6.5135C1.81658 6.6175 1.81591 6.77683 2.04258 7.13816C2.27391 7.50483 2.66391 7.96216 3.23324 8.62883L3.52258 8.96683L3.57258 9.02483C3.84124 9.33816 4.06524 9.5995 4.16791 9.93016C4.26991 10.2588 4.23591 10.6035 4.19458 11.0222L4.18791 11.1002L4.14391 11.5515C4.05724 12.4395 3.99991 13.0515 4.01924 13.4915C4.03924 13.9315 4.13191 14.0528 4.20591 14.1088C4.27124 14.1588 4.39258 14.2135 4.78791 14.1002C5.18991 13.9855 5.72458 13.7408 6.50791 13.3802L6.90524 13.1975L6.97791 13.1642C7.34124 12.9955 7.65591 12.8502 7.99991 12.8502C8.34391 12.8502 8.65858 12.9955 9.02191 13.1635C9.04547 13.1751 9.06991 13.1862 9.09524 13.1968L9.49191 13.3802C10.2752 13.7408 10.8099 13.9855 11.2119 14.1002C11.6072 14.2135 11.7286 14.1588 11.7939 14.1088C11.8679 14.0528 11.9606 13.9308 11.9806 13.4915C12.0006 13.0515 11.9419 12.4395 11.8559 11.5515L11.8119 11.1002L11.8052 11.0222C11.7639 10.6035 11.7299 10.2588 11.8319 9.93016C11.9346 9.5995 12.1586 9.33816 12.4272 9.02483L12.4772 8.96683L12.7666 8.62883C13.3359 7.96216 13.7259 7.50483 13.9566 7.13816C14.1839 6.77683 14.1832 6.61816 14.1506 6.5135C14.1199 6.4155 14.0399 6.29216 13.6592 6.14283C13.2692 5.98883 12.6999 5.85883 11.8632 5.6695L11.4392 5.5735L11.3632 5.55616C10.9726 5.46816 10.6366 5.39283 10.3612 5.1835C10.0879 4.97683 9.91924 4.67216 9.71858 4.3115L9.67991 4.24083L9.46124 3.8495C9.03058 3.0775 8.73458 2.54816 8.47191 2.2055C8.20924 1.86283 8.07591 1.8335 7.99991 1.8335C7.92391 1.8335 7.78991 1.86283 7.52791 2.2055ZM6.73458 1.5975C7.05124 1.18283 7.44391 0.833496 7.99991 0.833496C8.55591 0.833496 8.94791 1.18283 9.26591 1.5975C9.57791 2.0055 9.90924 2.5995 10.3139 3.3255L10.5532 3.75416C10.8146 4.2235 10.8819 4.3235 10.9659 4.3875C11.0459 4.44816 11.1506 4.48283 11.6592 4.59816L12.1259 4.7035C12.9099 4.88083 13.5559 5.02683 14.0259 5.21216C14.5139 5.40483 14.9412 5.68816 15.1059 6.21683C15.2686 6.74016 15.0859 7.2215 14.8032 7.67016C14.5286 8.10683 14.0899 8.62016 13.5539 9.24683L13.2372 9.61683C12.8926 10.0195 12.8206 10.1182 12.7866 10.2268C12.7526 10.3382 12.7552 10.4668 12.8079 11.0035L12.8552 11.4955C12.9366 12.3328 13.0026 13.0155 12.9792 13.5355C12.9559 14.0655 12.8359 14.5735 12.3992 14.9055C11.9539 15.2428 11.4359 15.2055 10.9359 15.0615C10.4512 14.9228 9.84724 14.6448 9.11391 14.3068L8.67658 14.1055C8.19791 13.8855 8.09591 13.8502 7.99991 13.8502C7.90391 13.8502 7.80191 13.8855 7.32324 14.1055L6.88658 14.3068C6.15258 14.6448 5.54858 14.9228 5.06391 15.0615C4.56391 15.2048 4.04591 15.2428 3.60124 14.9055C3.16391 14.5735 3.04391 14.0655 3.02058 13.5362C2.99724 13.0162 3.06324 12.3328 3.14458 11.4962L3.19258 11.0035C3.24458 10.4662 3.24724 10.3382 3.21258 10.2268C3.17924 10.1182 3.10724 10.0202 2.76258 9.61683L2.44591 9.24683C1.91058 8.62016 1.47191 8.10683 1.19724 7.67083C0.913911 7.2215 0.731244 6.74016 0.893911 6.21683C1.05858 5.68816 1.48591 5.40483 1.97391 5.21216C2.44391 5.02683 3.08991 4.88083 3.87391 4.7035L3.91591 4.69416L4.33991 4.59816C4.84924 4.48283 4.95324 4.44816 5.03391 4.38683C5.11791 4.3235 5.18524 4.2235 5.44724 3.75416L5.68591 3.3255C6.09058 2.59883 6.42191 2.0055 6.73391 1.5975" fill="white"/>
</g>
<defs>
<clipPath id="clip0_1426_4950">
<rect width="16" height="16" fill="white"/>
</clipPath>
</defs>
</svg>
