<svg width="28" height="28" viewBox="0 0 28 28" fill="none" xmlns="http://www.w3.org/2000/svg">
<rect width="28" height="28" rx="14" fill="#CB30E0"/>
<path d="M10.4197 19.0047H15.753V21.0047H10.4197V19.0047ZM16.5197 14.3381L14.3997 13.2314C14.3534 13.2311 14.3076 13.2404 14.2651 13.2588C14.2227 13.2771 14.1845 13.3041 14.153 13.3381L13.953 13.5447L14.3463 15.1581L13.693 15.3181L12.8997 12.0047L11.9197 12.4581L12.613 15.3181L11.9663 15.4714L11.2997 12.7314L10.9863 12.8714C10.653 13.0047 10.4197 13.3581 10.4197 13.7647V16.6714C10.4197 17.2047 10.9063 17.6714 11.4197 17.6714H15.753C16.013 17.6714 16.2463 17.5647 16.4197 17.3847L16.753 17.1114C16.753 17.1114 17.0863 16.8581 17.0863 16.5781V15.4714C17.0863 15.4714 17.0863 14.7114 16.5197 14.3381ZM17.0463 7.00474C16.6863 6.94474 16.333 7.1714 16.2597 7.53807L15.5463 11.6514C15.3997 11.6314 15.3397 11.5781 15.1397 11.5581L14.853 11.5914L14.0263 7.53807C13.9908 7.36541 13.8896 7.21329 13.7441 7.11379C13.5986 7.0143 13.4201 6.9752 13.2463 7.00474C12.8797 7.0914 12.6463 7.44474 12.7197 7.80474L13.5197 11.7447L13.753 12.7847C13.9397 12.6514 14.1597 12.5647 14.3997 12.5647H14.6263L16.6263 13.6381L17.5663 7.80474C17.6397 7.44474 17.4197 7.0914 17.0463 7.00474Z" fill="white"/>
</svg>
