<svg width="28" height="28" viewBox="0 0 28 28" fill="none" xmlns="http://www.w3.org/2000/svg">
<rect width="28" height="28" rx="14" fill="#FF383C"/>
<path d="M13.7107 20.0748C13.7952 20.1347 13.8961 20.1668 13.9997 20.1668C14.1032 20.1668 14.2042 20.1347 14.2887 20.0748L14 19.6668L14.2893 20.0748L14.2947 20.0708L14.3087 20.0608L14.362 20.0222C14.4082 19.9888 14.4738 19.9402 14.5587 19.8762C15.5493 19.1284 16.4844 18.3099 17.3567 17.4268C18.122 16.6482 18.9 15.7382 19.4893 14.7728C20.076 13.8128 20.5 12.7568 20.5 11.6982C20.5 10.4415 20.11 9.4595 19.42 8.79283C18.7333 8.13016 17.8067 7.8335 16.8333 7.8335C15.6833 7.8335 14.668 8.38883 14 9.24483C13.332 8.38883 12.316 7.8335 11.1667 7.8335C9.11333 7.8335 7.5 9.59283 7.5 11.6982C7.5 12.7568 7.92467 13.8122 8.51067 14.7728C9.1 15.7382 9.878 16.6482 10.6433 17.4275C11.5732 18.3683 12.5744 19.2357 13.638 20.0222L13.6913 20.0608L13.7053 20.0708L13.7107 20.0748Z" fill="white"/>
</svg>
