<svg width="28" height="28" viewBox="0 0 28 28" fill="none" xmlns="http://www.w3.org/2000/svg">
<rect width="28" height="28" rx="14" fill="#FF8D28"/>
<path d="M14.888 20.3497C16.972 19.9324 19.6667 18.433 19.6667 14.5564C19.6667 11.029 17.0847 8.67971 15.228 7.60038C14.8154 7.36038 14.3334 7.67571 14.3334 8.15238V9.37104C14.3334 10.3324 13.9294 12.087 12.8067 12.817C12.2334 13.1897 11.6134 12.6317 11.544 11.9517L11.4867 11.393C11.42 10.7437 10.7587 10.3497 10.24 10.7457C9.30737 11.4557 8.33337 12.7024 8.33337 14.5557C8.33337 19.2964 11.8594 20.4824 13.622 20.4824C13.7252 20.4824 13.8327 20.479 13.9447 20.4724C13.074 20.3984 11.6667 19.8584 11.6667 18.1117C11.6667 16.745 12.6634 15.8217 13.4207 15.3717C13.6247 15.2517 13.8627 15.4084 13.8627 15.645V16.0384C13.8627 16.3384 13.9794 16.8084 14.256 17.1297C14.5694 17.4937 15.0287 17.1124 15.0654 16.6337C15.0774 16.483 15.2294 16.387 15.36 16.463C15.7874 16.713 16.3334 17.2464 16.3334 18.1117C16.3334 19.477 15.5807 20.105 14.888 20.3497Z" fill="white"/>
</svg>
