<svg width="28" height="28" viewBox="0 0 28 28" fill="none" xmlns="http://www.w3.org/2000/svg">
<rect width="28" height="28" rx="14" fill="#AC7F5E"/>
<path fill-rule="evenodd" clip-rule="evenodd" d="M7.43984 14.6771C7.31445 14.5528 7.21606 14.4061 7.15028 14.2456C7.0845 14.0851 7.05262 13.9138 7.05646 13.7416C7.06031 13.5693 7.0998 13.3995 7.17268 13.2418C7.24556 13.084 7.35041 12.9415 7.48123 12.8223C7.61206 12.7031 7.7663 12.6095 7.93515 12.547C8.104 12.4845 8.28415 12.4542 8.46532 12.4578C8.64649 12.4615 8.82513 12.499 8.99103 12.5683C9.15694 12.6376 9.30687 12.7373 9.43226 12.8616L11.9766 15.3872C12.0184 15.4287 12.0512 15.4776 12.0731 15.5311C12.095 15.5846 12.1057 15.6417 12.1044 15.6991C12.1031 15.7565 12.0899 15.8131 12.0657 15.8657C12.0414 15.9183 12.0064 15.9658 11.9628 16.0055C11.9192 16.0453 11.8678 16.0764 11.8115 16.0973C11.7552 16.1181 11.6952 16.1282 11.6348 16.127C11.5744 16.1258 11.5148 16.1133 11.4595 16.0902C11.4042 16.0671 11.3543 16.0339 11.3125 15.9924L8.76812 13.4668C8.68371 13.3831 8.56777 13.3347 8.4458 13.3322C8.32384 13.3297 8.20585 13.3734 8.11778 13.4537C8.02971 13.5339 7.97877 13.6442 7.97619 13.7601C7.9736 13.8761 8.01957 13.9882 8.10398 14.072L10.6492 16.5976C10.7336 16.6813 10.7796 16.7935 10.777 16.9094C10.7744 17.0254 10.7235 17.1356 10.6354 17.2159C10.5474 17.2961 10.4294 17.3398 10.3074 17.3373C10.1854 17.3349 10.0695 17.2865 9.9851 17.2027L7.43984 14.6771Z" fill="white"/>
<path fill-rule="evenodd" clip-rule="evenodd" d="M8.13155 12.8355C8.00246 12.7118 7.90057 12.5649 7.83183 12.4034C7.76309 12.242 7.72888 12.0691 7.73119 11.8948C7.7335 11.7206 7.77229 11.5486 7.84529 11.3888C7.91829 11.229 8.02404 11.0847 8.15637 10.9641C8.28869 10.8436 8.44495 10.7494 8.61601 10.6869C8.78707 10.6244 8.96951 10.5949 9.15268 10.6002C9.33585 10.6055 9.51607 10.6454 9.68284 10.7176C9.84961 10.7898 9.99957 10.8929 10.124 11.0208L12.6692 13.5464C12.7536 13.6302 12.7996 13.7423 12.797 13.8583C12.7944 13.9742 12.7435 14.0845 12.6554 14.1647C12.5674 14.245 12.4494 14.2887 12.3274 14.2862C12.2054 14.2838 12.0895 14.2353 12.0051 14.1516L9.45984 11.6251C9.37543 11.5414 9.25949 11.493 9.13752 11.4905C9.01556 11.4881 8.89756 11.5318 8.80949 11.612C8.72142 11.6923 8.67049 11.8025 8.6679 11.9184C8.66532 12.0344 8.71128 12.1466 8.7957 12.2303L11.341 14.7559C11.4254 14.8396 11.4713 14.9518 11.4687 15.0678C11.4662 15.1837 11.4152 15.2939 11.3272 15.3742C11.2391 15.4544 11.1211 15.4981 10.9991 15.4957C10.8772 15.4932 10.7612 15.4448 10.6768 15.3611L8.13155 12.8355Z" fill="white"/>
<path fill-rule="evenodd" clip-rule="evenodd" d="M10.0964 12.2562C9.96521 12.133 9.86131 11.986 9.79088 11.824C9.72044 11.662 9.68489 11.4881 9.68632 11.3128C9.68776 11.1375 9.72615 10.9642 9.79923 10.8032C9.87231 10.6422 9.9786 10.4968 10.1118 10.3755C10.245 10.2543 10.4024 10.1596 10.5748 10.0972C10.7471 10.0348 10.9309 10.0058 11.1152 10.0121C11.2995 10.0183 11.4806 10.0596 11.6479 10.1335C11.8151 10.2075 11.965 10.3125 12.0888 10.4425L14.9551 13.2855C14.9969 13.3271 15.0297 13.376 15.0516 13.4296C15.0735 13.4831 15.0841 13.5403 15.0828 13.5977C15.0815 13.6552 15.0682 13.7118 15.0439 13.7644C15.0195 13.817 14.9845 13.8645 14.9409 13.9043C14.8972 13.944 14.8457 13.9752 14.7894 13.996C14.733 14.0168 14.6729 14.0269 14.6125 14.0256C14.5521 14.0244 14.4925 14.0118 14.4372 13.9887C14.3819 13.9655 14.3319 13.9322 14.2901 13.8907L11.4247 11.0468C11.3829 11.0053 11.3329 10.9721 11.2776 10.949C11.2223 10.9259 11.1628 10.9134 11.1024 10.9122C10.9804 10.9097 10.8624 10.9534 10.7744 11.0337C10.6863 11.1139 10.6354 11.2241 10.6328 11.3401C10.6302 11.456 10.6761 11.5682 10.7606 11.6519L13.3058 14.1767C13.3501 14.2176 13.3852 14.2667 13.4091 14.3208C13.4329 14.3749 13.4451 14.4331 13.4448 14.4918C13.4446 14.5505 13.4319 14.6086 13.4075 14.6626C13.3831 14.7165 13.3475 14.7652 13.3029 14.8058C13.2583 14.8464 13.2055 14.8781 13.1478 14.8988C13.09 14.9196 13.0285 14.9292 12.9668 14.9268C12.905 14.9245 12.8445 14.9104 12.7886 14.8853C12.7328 14.8603 12.6828 14.8248 12.6417 14.781L10.0964 12.2562Z" fill="white"/>
<path fill-rule="evenodd" clip-rule="evenodd" d="M13.8531 12.0796C13.7801 11.7443 13.8393 11.3952 14.0196 11.0987C14.1998 10.8022 14.4885 10.5791 14.8306 10.4719C15.1727 10.3648 15.5443 10.381 15.8746 10.5175C16.205 10.6539 16.471 10.9012 16.6219 11.2121L17.3118 12.6376C17.337 12.6898 17.3511 12.7463 17.3534 12.8037C17.3556 12.8612 17.3459 12.9185 17.3248 12.9723C17.3038 13.0262 17.2718 13.0756 17.2306 13.1177C17.1895 13.1599 17.14 13.1939 17.0851 13.2178C17.0301 13.2418 16.9707 13.2552 16.9103 13.2573C16.8499 13.2594 16.7896 13.2502 16.7329 13.2302C16.6763 13.2102 16.6243 13.1797 16.58 13.1406C16.5357 13.1015 16.4999 13.0545 16.4747 13.0022L15.7867 11.5759C15.7311 11.4588 15.6319 11.3654 15.5082 11.3136C15.3845 11.2619 15.245 11.2555 15.1167 11.2957C14.9883 11.3359 14.8801 11.4198 14.8129 11.5312C14.7457 11.6427 14.7243 11.7739 14.7528 11.8995L15.117 13.5541C15.1419 13.6676 15.1183 13.7859 15.0515 13.8829C14.9846 13.9799 14.88 14.0477 14.7606 14.0713C14.6412 14.095 14.5167 14.0726 14.4147 14.009C14.3127 13.9455 14.2414 13.846 14.2165 13.7325L13.8531 12.0796Z" fill="white"/>
<path fill-rule="evenodd" clip-rule="evenodd" d="M8.75243 17.8759C8.79604 17.8361 8.84745 17.805 8.90374 17.7841C8.96002 17.7633 9.02007 17.7532 9.08046 17.7544C9.14085 17.7556 9.2004 17.7681 9.2557 17.7912C9.31101 17.8143 9.36098 17.8475 9.40278 17.889L11.6206 20.0893C11.9499 20.4155 12.3454 20.6752 12.7833 20.8527L12.8145 20.8658C13.2518 21.0431 13.7232 21.1314 14.1985 21.1249C14.6738 21.1184 15.1424 21.0174 15.5741 20.8282L15.702 20.7723C16.1619 20.5711 16.5823 20.3 16.9466 19.9677L17.0634 19.8602C17.5539 19.4135 17.8929 18.8377 18.0368 18.2066C18.1807 17.5756 18.123 16.918 17.871 16.3184L16.4701 12.9865C16.4476 12.9331 16.4364 12.8761 16.4371 12.8186C16.4378 12.7612 16.4505 12.7044 16.4742 12.6516C16.498 12.5988 16.5325 12.5509 16.5758 12.5108C16.619 12.4706 16.6702 12.4389 16.7263 12.4176C16.7824 12.3962 16.8424 12.3856 16.9028 12.3863C16.9632 12.3869 17.0229 12.3989 17.0785 12.4215C17.1341 12.4442 17.1844 12.477 17.2266 12.5181C17.2689 12.5592 17.3022 12.6078 17.3246 12.6611L18.7247 15.993C19.0443 16.7547 19.1175 17.5897 18.9349 18.3911C18.7523 19.1925 18.3223 19.9239 17.6999 20.4916L17.5831 20.5982C17.1438 20.9974 16.6381 21.3248 16.0865 21.5672L15.9586 21.6232C15.4103 21.8632 14.8152 21.9915 14.2116 21.9996C13.6079 22.0077 13.0092 21.8956 12.454 21.6704L12.4227 21.6573C11.8702 21.4344 11.3713 21.1068 10.9564 20.6944L8.73956 18.4942C8.6977 18.4528 8.66483 18.4039 8.64282 18.3504C8.62081 18.297 8.6101 18.2399 8.6113 18.1825C8.61249 18.1251 8.62557 18.0684 8.64979 18.0158C8.674 17.9632 8.70888 17.9157 8.75243 17.8759Z" fill="white"/>
<path fill-rule="evenodd" clip-rule="evenodd" d="M7.38369 17.1503C7.13045 16.8991 6.99255 16.5625 7.00031 16.2147C7.00807 15.8668 7.16087 15.5362 7.42508 15.2954C7.68929 15.0547 8.04328 14.9236 8.40917 14.9309C8.77505 14.9383 9.12287 15.0836 9.37611 15.3348L10.6492 16.5976C10.7336 16.6813 10.7796 16.7935 10.777 16.9094C10.7744 17.0254 10.7235 17.1356 10.6354 17.2158C10.5473 17.2961 10.4293 17.3398 10.3074 17.3373C10.1854 17.3349 10.0695 17.2865 9.98506 17.2027L8.71197 15.9399C8.67017 15.8985 8.62019 15.8652 8.56489 15.8421C8.50959 15.819 8.45004 15.8065 8.38965 15.8053C8.32926 15.8041 8.26921 15.8142 8.21293 15.835C8.15665 15.8559 8.10523 15.8871 8.06162 15.9268C8.01802 15.9665 7.98307 16.0141 7.95877 16.0666C7.93448 16.1192 7.92132 16.1758 7.92003 16.2332C7.91875 16.2906 7.92938 16.3477 7.95131 16.4012C7.97323 16.4548 8.00603 16.5036 8.04783 16.5451L10.594 19.0707C10.6358 19.1122 10.6686 19.161 10.6905 19.2145C10.7125 19.268 10.7231 19.3251 10.7218 19.3826C10.7205 19.44 10.7074 19.4966 10.6831 19.5492C10.6588 19.6017 10.6238 19.6492 10.5802 19.689C10.5366 19.7287 10.4852 19.7599 10.4289 19.7807C10.3726 19.8016 10.3126 19.8117 10.2522 19.8105C10.1918 19.8092 10.1322 19.7967 10.0769 19.7736C10.0216 19.7505 9.97166 19.7173 9.92986 19.6759L7.38369 17.1503ZM12.063 11.6758C11.9339 11.5521 11.832 11.4053 11.7633 11.2438C11.6946 11.0823 11.6603 10.9094 11.6627 10.7352C11.665 10.561 11.7038 10.389 11.7768 10.2292C11.8498 10.0694 11.9555 9.92499 12.0878 9.80447C12.2202 9.68395 12.3764 9.58969 12.5475 9.52721C12.7185 9.46473 12.901 9.43527 13.0841 9.44054C13.2673 9.44582 13.4475 9.48574 13.6143 9.55795C13.7811 9.63017 13.931 9.73325 14.0554 9.86117L14.5007 10.3037C14.5449 10.3446 14.58 10.3937 14.6039 10.4478C14.6278 10.5019 14.64 10.5601 14.6397 10.6188C14.6394 10.6775 14.6267 10.7356 14.6023 10.7895C14.578 10.8435 14.5424 10.8922 14.4978 10.9328C14.4532 10.9734 14.4004 11.0051 14.3426 11.0258C14.2849 11.0466 14.2233 11.0562 14.1616 11.0538C14.0999 11.0515 14.0393 11.0374 13.9834 11.0123C13.9276 10.9873 13.8776 10.9518 13.8365 10.908L13.3913 10.4663C13.3069 10.3826 13.191 10.3342 13.069 10.3317C12.947 10.3293 12.829 10.373 12.741 10.4532C12.6529 10.5335 12.602 10.6437 12.5994 10.7596C12.5968 10.8756 12.6428 10.9878 12.7272 11.0715L13.9993 12.3343C14.0837 12.418 14.1297 12.5302 14.1271 12.6462C14.1245 12.7621 14.0736 12.8723 13.9855 12.9526C13.8975 13.0328 13.7795 13.0765 13.6575 13.0741C13.5355 13.0716 13.4196 13.0232 13.3352 12.9395L12.063 11.6758ZM15.9586 11.591C15.835 11.2663 15.8481 10.9087 15.9951 10.593C16.1422 10.2773 16.4119 10.0278 16.7479 9.8966C17.0839 9.76544 17.4602 9.76277 17.7982 9.88914C18.1362 10.0155 18.4098 10.2612 18.5619 10.5748L19.2784 12.0588C19.3036 12.1111 19.3177 12.1675 19.32 12.225C19.3222 12.2824 19.3125 12.3397 19.2915 12.3936C19.2704 12.4475 19.2384 12.4969 19.1972 12.539C19.1561 12.5811 19.1066 12.6151 19.0517 12.6391C18.9967 12.663 18.9373 12.6764 18.8769 12.6786C18.8165 12.6807 18.7562 12.6715 18.6996 12.6515C18.6429 12.6314 18.5909 12.601 18.5466 12.5619C18.5023 12.5228 18.4665 12.4758 18.4414 12.4235L17.7257 10.9394C17.6722 10.8319 17.5773 10.748 17.4606 10.7051C17.3439 10.6621 17.2143 10.6633 17.0986 10.7086C16.9828 10.7538 16.8898 10.8395 16.8385 10.948C16.7873 11.0565 16.7819 11.1796 16.8233 11.2919L17.3863 12.7637C17.428 12.8727 17.4224 12.993 17.3709 13.0981C17.3193 13.2032 17.2259 13.2846 17.1112 13.3243C16.9966 13.3639 16.87 13.3586 16.7595 13.3096C16.6489 13.2606 16.5633 13.1718 16.5216 13.0628L15.9586 11.591Z" fill="white"/>
<path fill-rule="evenodd" clip-rule="evenodd" d="M18.6934 11.8374C18.8066 11.7943 18.9332 11.7957 19.0453 11.8413C19.1574 11.8868 19.2459 11.9729 19.2913 12.0805L20.6913 15.4124C21.0111 16.1742 21.0844 17.0093 20.9019 17.8109C20.7193 18.6125 20.2892 19.344 19.6666 19.9118L19.5737 19.9966C19.1188 20.41 18.5951 20.7489 18.0237 20.9997L17.9115 21.0487C17.609 21.1805 17.2972 21.2899 16.9769 21.3757L15.9154 21.6608C15.8572 21.6764 15.7964 21.6809 15.7364 21.6741C15.6764 21.6673 15.6184 21.6494 15.5657 21.6213C15.513 21.5932 15.4666 21.5555 15.4293 21.5104C15.3919 21.4652 15.3642 21.4135 15.3478 21.3582C15.3315 21.3029 15.3267 21.2451 15.3339 21.1881C15.341 21.131 15.3599 21.0759 15.3894 21.0258C15.419 20.9757 15.4586 20.9316 15.5061 20.8961C15.5536 20.8605 15.608 20.8342 15.6661 20.8187L16.7267 20.5344C17.0021 20.461 17.2688 20.3677 17.527 20.2546L17.6392 20.2048C18.1175 19.9948 18.5561 19.7111 18.9371 19.3652L19.031 19.2804C19.521 18.8333 19.8595 18.2573 20.0032 17.6262C20.147 16.995 20.0893 16.3375 19.8377 15.7377L18.4367 12.4058C18.4143 12.3525 18.4032 12.2955 18.4039 12.238C18.4047 12.1806 18.4173 12.1238 18.4412 12.0711C18.465 12.0183 18.4995 11.9705 18.5428 11.9304C18.5861 11.8903 18.6373 11.8587 18.6934 11.8374ZM8.3155 6.51247C8.4164 6.44749 8.54031 6.42324 8.66 6.44505C8.7797 6.46685 8.8854 6.53293 8.95388 6.62878L10.0632 8.18367C10.1264 8.27961 10.148 8.39509 10.1234 8.50585C10.0989 8.6166 10.0301 8.71399 9.93158 8.77753C9.83306 8.84107 9.71245 8.86581 9.59513 8.84655C9.47781 8.8273 9.37292 8.76554 9.30251 8.67427L8.19224 7.12025C8.15825 7.07272 8.13445 7.01929 8.12221 6.96301C8.10996 6.90672 8.10951 6.8487 8.12087 6.79225C8.13223 6.7358 8.15519 6.68203 8.18843 6.63402C8.22166 6.58602 8.26545 6.54471 8.3155 6.51247ZM15.6808 6.48536C15.5723 6.43281 15.4462 6.42338 15.3303 6.45912C15.2144 6.49486 15.1181 6.57286 15.0627 6.676L14.2284 8.23001C14.1987 8.2813 14.1803 8.33772 14.174 8.39592C14.1677 8.45413 14.1738 8.51294 14.1919 8.56887C14.2099 8.6248 14.2396 8.67672 14.2792 8.72154C14.3187 8.76636 14.3674 8.80318 14.4222 8.82981C14.477 8.85645 14.5368 8.87235 14.5982 8.87659C14.6596 8.88083 14.7212 8.87331 14.7795 8.85449C14.8378 8.83566 14.8915 8.80591 14.9374 8.76699C14.9834 8.72807 15.0207 8.68078 15.0471 8.62792L15.8814 7.07303C15.9366 6.9698 15.9466 6.84994 15.909 6.73976C15.8714 6.62958 15.7893 6.53808 15.6808 6.48536ZM12.0777 6C12.1997 6 12.3167 6.04607 12.403 6.12807C12.4892 6.21007 12.5377 6.32129 12.5377 6.43726V7.99127C12.5377 8.10724 12.4892 8.21846 12.403 8.30046C12.3167 8.38246 12.1997 8.42853 12.0777 8.42853C11.9558 8.42853 11.8388 8.38246 11.7525 8.30046C11.6663 8.21846 11.6178 8.10724 11.6178 7.99127V6.43726C11.6178 6.32129 11.6663 6.21007 11.7525 6.12807C11.8388 6.04607 11.9558 6 12.0777 6Z" fill="white"/>
</svg>
