<svg width="28" height="28" viewBox="0 0 28 28" fill="none" xmlns="http://www.w3.org/2000/svg">
<rect width="28" height="28" rx="14" fill="#FFCC00"/>
<path d="M15 20.5H13C12.8674 20.5 12.7402 20.5527 12.6465 20.6465C12.5527 20.7402 12.5 20.8674 12.5 21C12.5 21.1326 12.5527 21.2598 12.6465 21.3536C12.7402 21.4473 12.8674 21.5 13 21.5H15C15.1326 21.5 15.2598 21.4473 15.3536 21.3536C15.4473 21.2598 15.5 21.1326 15.5 21C15.5 20.8674 15.4473 20.7402 15.3536 20.6465C15.2598 20.5527 15.1326 20.5 15 20.5ZM15.5 19H12.5C12.3674 19 12.2402 19.0527 12.1465 19.1465C12.0527 19.2402 12 19.3674 12 19.5C12 19.6326 12.0527 19.7598 12.1465 19.8536C12.2402 19.9473 12.3674 20 12.5 20H15.5C15.6326 20 15.7598 19.9473 15.8536 19.8536C15.9473 19.7598 16 19.6326 16 19.5C16 19.3674 15.9473 19.2402 15.8536 19.1465C15.7598 19.0527 15.6326 19 15.5 19ZM17.5444 7.95908C16.6047 7.01814 15.346 6.50001 14 6.50001C13.343 6.49845 12.6921 6.62671 12.0847 6.87743C11.4774 7.12815 10.9256 7.49638 10.461 7.96099C9.99638 8.42559 9.62815 8.97741 9.37743 9.58475C9.12671 10.1921 8.99845 10.843 9.00001 11.5C9.00001 12.9569 9.55845 14.3197 10.5313 15.2388L10.6675 15.3666C11.2303 15.8928 12 16.6138 12 17.25V18C12 18.1326 12.0527 18.2598 12.1465 18.3536C12.2402 18.4473 12.3674 18.5 12.5 18.5H13.25C13.3163 18.5 13.3799 18.4737 13.4268 18.4268C13.4737 18.3799 13.5 18.3163 13.5 18.25V14.5881C13.5 14.5376 13.4847 14.4882 13.4561 14.4465C13.4275 14.4049 13.3869 14.3728 13.3397 14.3547C13.051 14.2369 12.7767 14.0865 12.5222 13.9063C12.465 13.8697 12.4159 13.822 12.3777 13.7658C12.3396 13.7097 12.3133 13.6464 12.3004 13.5798C12.2875 13.5132 12.2883 13.4446 12.3028 13.3783C12.3172 13.312 12.345 13.2494 12.3845 13.1941C12.424 13.1389 12.4742 13.0923 12.5323 13.0572C12.5903 13.022 12.6549 12.9991 12.7221 12.9897C12.7893 12.9803 12.8577 12.9847 12.9232 13.0026C12.9886 13.0205 13.0498 13.0515 13.1028 13.0938C13.3341 13.2575 13.7794 13.5 14 13.5C14.2206 13.5 14.666 13.2569 14.8978 13.0938C15.0058 13.0259 15.1356 13.0018 15.2607 13.0265C15.3858 13.0512 15.4968 13.1228 15.5709 13.2266C15.645 13.3304 15.6766 13.4585 15.6593 13.5849C15.642 13.7112 15.5771 13.8262 15.4778 13.9063C15.2233 14.0861 14.949 14.2363 14.6603 14.3538C14.6131 14.3719 14.5726 14.4039 14.5439 14.4456C14.5153 14.4873 14.5 14.5366 14.5 14.5872V18.25C14.5 18.3163 14.5264 18.3799 14.5732 18.4268C14.6201 18.4737 14.6837 18.5 14.75 18.5H15.5C15.6326 18.5 15.7598 18.4473 15.8536 18.3536C15.9473 18.2598 16 18.1326 16 18V17.25C16 16.6288 16.7613 15.9085 17.3172 15.3822L17.4706 15.2366C18.4713 14.2813 19 12.9878 19 11.5C19.0033 10.8429 18.8764 10.1916 18.6265 9.58388C18.3767 8.97611 18.0089 8.42387 17.5444 7.95908Z" fill="white"/>
</svg>
