<svg width="28" height="28" viewBox="0 0 28 28" fill="none" xmlns="http://www.w3.org/2000/svg">
<rect width="28" height="28" rx="14" fill="#34C759"/>
<path d="M21.4375 8.03909L18.8569 10.4745L21.3254 14.6295L21.4375 14.4902V8.03909ZM6.5625 8.07463V15.1338C6.7025 15.152 6.87072 15.162 7.04047 15.1638C7.41141 15.1677 7.71716 15.1435 7.88891 15.128L9.53437 10.9644L6.5625 8.07463ZM18.7236 11.3515L18.5036 11.4939C18.4989 11.4969 18.336 11.5981 18.2882 11.6279L17.9567 11.8286L17.9614 11.8314C17.8079 11.9269 17.7652 11.9538 17.5909 12.062C17.5025 12.1169 17.5003 12.1182 17.4164 12.1703C16.7823 11.8294 16.0943 11.5675 15.2915 11.3615C14.2817 11.6665 13.212 12.108 12.1439 12.5222C12.5873 13.0561 13.0802 13.23 13.5766 13.2362C14.1522 13.2434 14.7406 12.9931 15.1459 12.7127L15.3771 12.5527L15.6092 12.888L19.2171 15.492L20.6268 14.5549L18.7236 11.3515ZM9.95241 11.4371L8.53469 15.0242L9.055 15.4243L10.0173 14.3335L10.0944 14.2462L10.2107 14.2389C10.2576 14.236 10.3038 14.2346 10.3494 14.2349C10.6686 14.2369 10.9539 14.3197 11.1679 14.5086C11.3264 14.6484 11.4318 14.8344 11.4929 15.0499L11.5641 15.0454C11.939 15.022 12.2767 15.0993 12.5213 15.3151C12.7659 15.531 12.8847 15.8565 12.9082 16.2314L12.9104 16.2651C13.1116 16.3031 13.2918 16.3824 13.4383 16.5116C13.6829 16.7274 13.8017 17.0529 13.8252 17.4278L13.8313 17.5253C13.8513 17.5316 13.8711 17.5385 13.8907 17.5458L13.9542 17.4567L14.1252 17.2168L14.2131 17.0933L14.4421 17.2565L16.2992 18.5795C16.5012 18.5297 16.6217 18.4522 16.6886 18.3581C16.7557 18.264 16.7897 18.1247 16.7706 17.9172L14.5438 16.3226L14.3151 16.1588L14.4773 15.9324L14.6858 15.6397L14.9148 15.8029L17.4253 17.5913C17.6273 17.5415 17.7478 17.4639 17.8147 17.3698C17.8818 17.2758 17.9157 17.1368 17.8968 16.9298L15.0093 14.8813L14.78 14.7185L15.1054 14.2598L15.3349 14.4225L18.2228 16.4714C18.425 16.4216 18.5455 16.3441 18.6126 16.2499C18.6797 16.1557 18.7136 16.0163 18.6945 15.8085L15.2432 13.3176C14.7852 13.5891 14.1994 13.8066 13.5696 13.7987C12.8325 13.7895 12.044 13.4373 11.464 12.5472C11.4411 12.512 11.4263 12.4721 11.4208 12.4304C11.4153 12.3888 11.4192 12.3464 11.4322 12.3065C11.4453 12.2665 11.4671 12.23 11.4961 12.1996C11.525 12.1691 11.5605 12.1456 11.5998 12.1307C12.0064 11.9762 12.4173 11.8129 12.8292 11.6509L9.95247 11.4373L9.95241 11.4371ZM10.3556 14.8003L8.86922 16.4849C8.89819 16.6958 8.96422 16.8269 9.05319 16.9054C9.14216 16.9839 9.28053 17.033 9.49331 17.0355L10.9797 15.3509C10.9507 15.14 10.8847 15.0088 10.7957 14.9303C10.7067 14.8518 10.5684 14.8027 10.3556 14.8003L10.3556 14.8003ZM11.709 15.6068L10.0304 17.5093C10.0594 17.7202 10.1254 17.8513 10.2144 17.9298C10.3034 18.0083 10.4417 18.0574 10.6545 18.0598L12.3331 16.1574C12.3041 15.9465 12.2381 15.8154 12.1491 15.7369C12.0601 15.6583 11.9218 15.6092 11.709 15.6068L11.709 15.6068ZM12.6258 16.8033L11.1396 18.4879C11.1686 18.6988 11.2346 18.8299 11.3236 18.9084C11.4126 18.9869 11.5509 19.036 11.7637 19.0385L13.25 17.354C13.221 17.1431 13.155 17.0119 13.066 16.9334C12.9771 16.8549 12.8387 16.8058 12.6259 16.8033L12.6258 16.8033ZM13.3978 18.0263L12.1855 19.41C12.2144 19.6213 12.2804 19.7526 12.3695 19.8312C12.4584 19.9096 12.5966 19.9587 12.8091 19.9613L14.0214 18.5775C13.9925 18.3663 13.9264 18.235 13.8374 18.1564C13.7485 18.0779 13.6103 18.0289 13.3978 18.0263L13.3978 18.0263ZM14.5022 18.176C14.5552 18.3203 14.5857 18.4803 14.5964 18.6507L14.6037 18.7665L14.345 19.0617L15.1801 19.6566C15.3821 19.6068 15.5025 19.5293 15.5695 19.4352C15.6365 19.3411 15.6705 19.2019 15.6516 18.9948L14.5022 18.176L14.5022 18.176Z" fill="white"/>
</svg>
