<svg width="21" height="22" viewBox="0 0 21 22" fill="none" xmlns="http://www.w3.org/2000/svg">
<rect width="21" height="21" transform="matrix(0 -1 1 0 0 21.5)" fill="white" fill-opacity="0.01"/>
<path fill-rule="evenodd" clip-rule="evenodd" d="M9.00638 14.2449C9.17167 14.4083 9.39474 14.5 9.6272 14.5C9.85965 14.5 10.0827 14.4083 10.248 14.2449L12.8424 11.6732C13.0305 11.4825 13.1241 11.2357 13.1241 10.9916C13.1241 10.7475 13.0305 10.5051 12.8424 10.3187L10.2568 7.75499C10.0914 7.59175 9.86833 7.50021 9.63595 7.50021C9.40356 7.50021 9.18053 7.59175 9.01513 7.75499C8.9336 7.83534 8.86885 7.93111 8.82466 8.03671C8.78046 8.14231 8.7577 8.25564 8.7577 8.37012C8.7577 8.48459 8.78046 8.59793 8.82466 8.70353C8.86885 8.80913 8.9336 8.90489 9.01513 8.98524L11.0425 10.996L9.00638 13.0146C8.92517 13.0951 8.8607 13.191 8.81671 13.2965C8.77271 13.4021 8.75006 13.5154 8.75006 13.6297C8.75006 13.7441 8.77271 13.8574 8.81671 13.9629C8.8607 14.0685 8.92517 14.1643 9.00638 14.2449Z" fill="#00011C"/>
</svg>
