<svg width="24" height="20" viewBox="0 0 24 20" fill="none" xmlns="http://www.w3.org/2000/svg">
<path d="M17.0323 7.58621C18.8802 7.58621 20.6525 8.24015 21.9592 9.40417C23.2659 10.5682 24 12.1469 24 13.7931C24 15.4393 23.2659 17.018 21.9592 18.182C20.6525 19.3461 18.8802 20 17.0323 20C15.1843 20 13.412 19.3461 12.1053 18.182C10.7986 17.018 10.0645 15.4393 10.0645 13.7931C10.0645 12.1469 10.7986 10.5682 12.1053 9.40417C13.412 8.24015 15.1843 7.58621 17.0323 7.58621ZM17.0323 10.3448C16.8269 10.3448 16.63 10.4175 16.4848 10.5468C16.3396 10.6762 16.2581 10.8516 16.2581 11.0345V13.1034H13.9355C13.7302 13.1034 13.5332 13.1761 13.388 13.3054C13.2429 13.4348 13.1613 13.6102 13.1613 13.7931C13.1613 13.976 13.2429 14.1514 13.388 14.2808C13.5332 14.4101 13.7302 14.4828 13.9355 14.4828H16.2581V16.5517C16.2581 16.7346 16.3396 16.91 16.4848 17.0394C16.63 17.1687 16.8269 17.2414 17.0323 17.2414C17.2376 17.2414 17.4345 17.1687 17.5797 17.0394C17.7249 16.91 17.8065 16.7346 17.8065 16.5517V14.4828H20.129C20.3344 14.4828 20.5313 14.4101 20.6765 14.2808C20.8217 14.1514 20.9032 13.976 20.9032 13.7931C20.9032 13.6102 20.8217 13.4348 20.6765 13.3054C20.5313 13.1761 20.3344 13.1034 20.129 13.1034H17.8065V11.0345C17.8065 10.8516 17.7249 10.6762 17.5797 10.5468C17.4345 10.4175 17.2376 10.3448 17.0323 10.3448ZM10.464 8.96552C9.20281 10.3232 8.51381 12.0308 8.51613 13.7931C8.51613 14.4621 8.61213 15.1103 8.79484 15.7269C8.19118 15.8178 7.57997 15.8631 6.96774 15.8621C5.14839 15.8621 3.4529 15.4869 2.18477 14.8C0.915097 14.1103 0 13.0552 0 11.7241C0 10.9925 0.326266 10.2908 0.907024 9.7735C1.48778 9.25616 2.27546 8.96552 3.09677 8.96552H10.464ZM6.96774 0C8.09705 0 9.18011 0.39963 9.97865 1.11097C10.7772 1.82232 11.2258 2.78711 11.2258 3.7931C11.2258 4.7991 10.7772 5.76389 9.97865 6.47523C9.18011 7.18658 8.09705 7.58621 6.96774 7.58621C5.83843 7.58621 4.75538 7.18658 3.95684 6.47523C3.15829 5.76389 2.70968 4.7991 2.70968 3.7931C2.70968 2.78711 3.15829 1.82232 3.95684 1.11097C4.75538 0.39963 5.83843 0 6.96774 0ZM17.0354 1.37517C17.4933 1.37481 17.9467 1.45486 18.3699 1.61075C18.793 1.76663 19.1775 1.9953 19.5014 2.28366C19.8252 2.57203 20.0821 2.91443 20.2573 3.2913C20.4325 3.66817 20.5225 4.0721 20.5223 4.48C20.5221 5.25077 20.1985 5.99363 19.615 6.56276C18.7797 6.32647 17.9086 6.20644 17.0323 6.2069C16.1565 6.20613 15.2859 6.3257 14.4511 6.56138C13.9999 6.11556 13.7033 5.56283 13.5973 4.97004C13.4913 4.37725 13.5804 3.7698 13.8538 3.22116C14.1271 2.67251 14.5731 2.20619 15.1378 1.87858C15.7024 1.55097 16.3615 1.37612 17.0354 1.37517Z" fill="#13E0A0"/>
</svg>
