<svg width="24" height="24" viewBox="0 0 24 24" fill="none" xmlns="http://www.w3.org/2000/svg">
<path d="M8.14342 4.28516C7.63689 4.28516 7.13532 4.38492 6.66735 4.57876C6.19938 4.7726 5.77417 5.05672 5.416 5.41489C5.05783 5.77306 4.77372 6.19826 4.57988 6.66623C4.38604 7.1342 4.28627 7.63577 4.28627 8.1423C4.28627 8.64883 4.38604 9.15039 4.57988 9.61836C4.77372 10.0863 5.05783 10.5115 5.416 10.8697C5.77417 11.2279 6.19938 11.512 6.66735 11.7058C7.13532 11.8997 7.63689 11.9994 8.14342 11.9994C9.16639 11.9994 10.1475 11.5931 10.8708 10.8697C11.5942 10.1464 12.0006 9.16528 12.0006 8.1423C12.0006 7.11932 11.5942 6.13824 10.8708 5.41489C10.1475 4.69153 9.16639 4.28516 8.14342 4.28516ZM5.57199 8.1423C5.57199 7.80461 5.6385 7.47024 5.76772 7.15826C5.89695 6.84628 6.08636 6.5628 6.32514 6.32402C6.56392 6.08525 6.84739 5.89584 7.15937 5.76661C7.47135 5.63738 7.80573 5.57087 8.14342 5.57087C8.4811 5.57087 8.81548 5.63738 9.12746 5.76661C9.43944 5.89584 9.72291 6.08525 9.96169 6.32402C10.2005 6.5628 10.3899 6.84628 10.5191 7.15826C10.6483 7.47024 10.7148 7.80461 10.7148 8.1423C10.7148 8.82428 10.4439 9.47834 9.96169 9.96057C9.47945 10.4428 8.8254 10.7137 8.14342 10.7137C7.46143 10.7137 6.80738 10.4428 6.32514 9.96057C5.8429 9.47834 5.57199 8.82428 5.57199 8.1423ZM17.1434 5.99944C16.3478 5.99944 15.5847 6.31551 15.0221 6.87812C14.4595 7.44073 14.1434 8.20379 14.1434 8.99944C14.1434 9.79509 14.4595 10.5582 15.0221 11.1208C15.5847 11.6834 16.3478 11.9994 17.1434 11.9994C17.9391 11.9994 18.7021 11.6834 19.2647 11.1208C19.8273 10.5582 20.1434 9.79509 20.1434 8.99944C20.1434 8.20379 19.8273 7.44073 19.2647 6.87812C18.7021 6.31551 17.9391 5.99944 17.1434 5.99944ZM15.4291 8.99944C15.4291 8.54479 15.6097 8.10875 15.9312 7.78726C16.2527 7.46577 16.6888 7.28516 17.1434 7.28516C17.5981 7.28516 18.0341 7.46577 18.3556 7.78726C18.6771 8.10875 18.8577 8.54479 18.8577 8.99944C18.8577 9.4541 18.6771 9.89013 18.3556 10.2116C18.0341 10.5331 17.5981 10.7137 17.1434 10.7137C16.6888 10.7137 16.2527 10.5331 15.9312 10.2116C15.6097 9.89013 15.4291 9.4541 15.4291 8.99944ZM1.71484 15.6423C1.71484 15.1308 1.91803 14.6403 2.27971 14.2786C2.64139 13.9169 3.13193 13.7137 3.64342 13.7137H12.6434C13.1549 13.7137 13.6454 13.9169 14.0071 14.2786C14.3688 14.6403 14.572 15.1308 14.572 15.6423V16.0974C14.5713 16.1668 14.5665 16.2361 14.5574 16.3049C14.5381 16.4817 14.5066 16.657 14.4631 16.8294C14.3211 17.3922 14.0685 17.9211 13.72 18.3852C12.8508 19.5449 11.1931 20.5709 8.14342 20.5709C5.0937 20.5709 3.43599 19.5449 2.56684 18.3852C2.21861 17.921 1.96628 17.3921 1.82456 16.8294C1.76846 16.6054 1.7326 16.3768 1.71742 16.1463L1.71484 16.0974V15.6423ZM3.00056 16.0666V16.082L3.00827 16.1677C3.01684 16.2483 3.03399 16.3692 3.0717 16.5174C3.17164 16.9139 3.34936 17.2865 3.59456 17.6137C4.17227 18.3826 5.40742 19.2852 8.14342 19.2852C10.8794 19.2852 12.1146 18.3826 12.6914 17.6137C12.9914 17.2143 13.1406 16.8149 13.2143 16.5174C13.2504 16.3746 13.2742 16.2289 13.2854 16.082L13.2863 16.0666V15.6423C13.2863 15.4718 13.2185 15.3083 13.098 15.1877C12.9774 15.0672 12.8139 14.9994 12.6434 14.9994H3.64342C3.47292 14.9994 3.30941 15.0672 3.18885 15.1877C3.06829 15.3083 3.00056 15.4718 3.00056 15.6423V16.0666ZM14.6577 18.5309C15.3203 18.734 16.138 18.8566 17.1417 18.8566C19.516 18.8566 20.8428 18.1743 21.5637 17.3514C21.8515 17.0255 22.065 16.6409 22.1894 16.2243C22.2381 16.0559 22.2694 15.883 22.2828 15.7083L22.2846 15.668V15.6423C22.2846 15.1308 22.0814 14.6403 21.7197 14.2786C21.358 13.9169 20.8675 13.7137 20.356 13.7137H14.6526C14.9903 14.066 15.2371 14.5074 15.3537 14.9994H20.3568C20.5259 14.9994 20.6881 15.066 20.8084 15.1847C20.9287 15.3034 20.9974 15.4647 20.9997 15.6337L20.9954 15.6732C20.9869 15.7378 20.9734 15.8017 20.9551 15.8643C20.8828 16.1012 20.76 16.3197 20.5951 16.5046C20.1914 16.9674 19.2691 17.5709 17.1417 17.5709C16.3351 17.5709 15.7017 17.4843 15.2037 17.3506C15.0724 17.7655 14.8889 18.1621 14.6577 18.5309Z" fill="#858585"/>
</svg>
