<svg width="44" height="44" viewBox="0 0 44 44" fill="none" xmlns="http://www.w3.org/2000/svg">
<rect width="44" height="44" rx="8" fill="#0088FF" fill-opacity="0.08"/>
<path d="M20.8702 20.2314C20.0502 20.2314 19.2638 20.5775 18.6839 21.1934C18.1041 21.8093 17.7783 22.6446 17.7783 23.5157C17.7783 24.3867 18.1041 25.2221 18.6839 25.838C19.2638 26.4539 20.0502 26.7999 20.8702 26.7999C21.6902 26.7999 22.4767 26.4539 23.0565 25.838C23.6364 25.2221 23.9621 24.3867 23.9621 23.5157C23.9621 22.6446 23.6364 21.8093 23.0565 21.1934C22.4767 20.5775 21.6902 20.2314 20.8702 20.2314Z" fill="#2859C5"/>
<path fill-rule="evenodd" clip-rule="evenodd" d="M16.5387 13.0544C18.0618 13.1833 19.6948 13.8563 21.3012 14.8885C21.4238 14.9673 21.5252 15.0783 21.5956 15.2108C21.6659 15.3434 21.7029 15.493 21.7029 15.6452C21.7029 15.7973 21.6659 15.9469 21.5956 16.0795C21.5252 16.212 21.4238 16.3231 21.3012 16.4018C19.9926 17.2431 18.6431 18.3875 17.3426 19.7689C16.1848 20.9997 15.2035 22.2705 14.4429 23.5159C15.2035 24.7614 16.1843 26.0322 17.3426 27.2625C18.5009 28.4928 19.6977 29.5352 20.8702 30.3426C22.0428 29.5352 23.2391 28.4933 24.3974 27.2625C25.6984 25.8811 26.7758 24.4482 27.5678 23.0582C27.6419 22.9281 27.7464 22.8205 27.8712 22.7458C27.9959 22.6711 28.1367 22.6319 28.2799 22.6319C28.423 22.6319 28.5638 22.6711 28.6885 22.7458C28.8133 22.8205 28.9178 22.9281 28.9919 23.0582C29.9642 24.7645 30.5974 26.499 30.7187 28.1164C30.8423 29.758 30.4361 31.2991 29.3168 32.4879C28.1976 33.6768 26.7468 34.1083 25.2013 33.9775C23.8142 33.8597 22.3363 33.2913 20.8702 32.4111C19.4037 33.2913 17.9258 33.8597 16.5387 33.9775C14.9937 34.1088 13.5429 33.6768 12.4236 32.4879C11.3044 31.2991 10.8977 29.758 11.0213 28.1164C11.1322 26.6435 11.6668 25.0732 12.4959 23.5159C11.6668 21.9582 11.1322 20.3883 11.0213 18.915C10.8977 17.2739 11.3044 15.7328 12.4236 14.5439C13.5429 13.355 14.9937 12.923 16.5387 13.0544ZM13.5291 21.8006C14.275 20.688 15.164 19.5824 16.1653 18.5184C17.1671 17.4548 18.2079 16.5104 19.2548 15.7182C18.2269 15.1937 17.2632 14.8895 16.4065 14.8173C15.2506 14.7193 14.3116 15.0391 13.6009 15.7945C12.8898 16.5493 12.5887 17.5462 12.681 18.7745C12.749 19.684 13.0354 20.7082 13.5291 21.8006ZM13.5291 25.2313C13.0354 26.3237 12.749 27.3474 12.681 28.2574C12.5887 29.4852 12.8898 30.482 13.6009 31.2374C14.3121 31.9928 15.2501 32.3126 16.4065 32.2146C17.2627 32.1418 18.2269 31.8382 19.2548 31.3137C18.2079 30.5215 17.1666 29.5771 16.1653 28.513C15.164 27.4494 14.275 26.3439 13.5291 25.2313ZM22.4852 31.3137C23.5136 31.8382 24.4773 32.1423 25.334 32.2146C26.4899 32.3126 27.4284 31.9923 28.1395 31.2374C28.8507 30.482 29.1518 29.4852 29.0595 28.2574C28.991 27.3474 28.7051 26.3237 28.2114 25.2313C27.4655 26.3439 26.5765 27.4494 25.5747 28.513C24.5734 29.5771 23.5326 30.5215 22.4852 31.3137Z" fill="#8FBFFA"/>
<path fill-rule="evenodd" clip-rule="evenodd" d="M28.8378 10.8842C28.8378 10.6497 28.7501 10.4248 28.594 10.259C28.4379 10.0932 28.2261 10 28.0053 10C27.7846 10 27.5728 10.0932 27.4167 10.259C27.2606 10.4248 27.1729 10.6497 27.1729 10.8842V12.155C24.8711 12.2575 23.0107 14.1907 23.0107 16.6948C23.0107 17.3264 23.0502 18.0645 23.094 18.6891C23.1791 19.8992 24.0282 20.9137 25.1989 21.0628C25.9304 21.1563 26.9037 21.2422 28.0053 21.2422C29.107 21.2422 30.0798 21.1563 30.8118 21.0628C31.9825 20.9137 32.8316 19.8992 32.9167 18.6891C32.9605 18.0645 33 17.3269 33 16.6948C33 14.1907 31.1396 12.2575 28.8378 12.155V10.8842Z" fill="#2859C5"/>
<path fill-rule="evenodd" clip-rule="evenodd" d="M26.9351 16.4423C26.9351 16.2078 26.8474 15.9829 26.6913 15.8171C26.5352 15.6513 26.3235 15.5581 26.1027 15.5581C25.8819 15.5581 25.6702 15.6513 25.5141 15.8171C25.358 15.9829 25.2703 16.2078 25.2703 16.4423V16.9476C25.2703 17.1821 25.358 17.407 25.5141 17.5728C25.6702 17.7386 25.8819 17.8318 26.1027 17.8318C26.3235 17.8318 26.5352 17.7386 26.6913 17.5728C26.8474 17.407 26.9351 17.1821 26.9351 16.9476V16.4423ZM30.7405 16.4423C30.7405 16.3262 30.719 16.2112 30.6772 16.1039C30.6353 15.9967 30.574 15.8992 30.4967 15.8171C30.4194 15.735 30.3277 15.6698 30.2267 15.6254C30.1257 15.581 30.0174 15.5581 29.9081 15.5581C29.7988 15.5581 29.6905 15.581 29.5896 15.6254C29.4886 15.6698 29.3968 15.735 29.3195 15.8171C29.2422 15.8992 29.1809 15.9967 29.139 16.1039C29.0972 16.2112 29.0757 16.3262 29.0757 16.4423V16.9476C29.0757 17.0637 29.0972 17.1787 29.139 17.286C29.1809 17.3932 29.2422 17.4907 29.3195 17.5728C29.3968 17.6549 29.4886 17.7201 29.5896 17.7645C29.6905 17.8089 29.7988 17.8318 29.9081 17.8318C30.0174 17.8318 30.1257 17.8089 30.2267 17.7645C30.3277 17.7201 30.4194 17.6549 30.4967 17.5728C30.574 17.4907 30.6353 17.3932 30.6772 17.286C30.719 17.1787 30.7405 17.0637 30.7405 16.9476V16.4423Z" fill="#8FBFFA"/>
</svg>
