<svg width="15" height="15" viewBox="0 0 15 15" fill="none" xmlns="http://www.w3.org/2000/svg">
<path opacity="0.4" d="M4.6475 3.97642L9.90917 2.22059C12.2717 1.43309 13.555 2.72225 12.7733 5.08475L11.0175 10.3464C9.83917 13.8873 7.9025 13.8873 6.72417 10.3464L6.205 8.78309L4.64167 8.26392C1.10667 7.09142 1.10667 5.16059 4.6475 3.97642Z" fill="#292D32"/>
<path d="M7.57001 7.284L9.79251 5.05566L7.57001 7.284Z" fill="#292D32"/>
<path d="M7.57001 7.72199C7.45918 7.72199 7.34835 7.68116 7.26085 7.59366C7.09168 7.42449 7.09168 7.14449 7.26085 6.97533L9.47751 4.74699C9.64668 4.57783 9.92668 4.57783 10.0958 4.74699C10.265 4.91616 10.265 5.19616 10.0958 5.36533L7.87918 7.59366C7.79168 7.67533 7.68085 7.72199 7.57001 7.72199Z" fill="#292D32"/>
</svg>
