<svg width="18" height="18" viewBox="0 0 18 18" fill="none" xmlns="http://www.w3.org/2000/svg">
<path d="M7.87988 9.61916C7.727 9.46656 7.54481 9.3465 7.34429 9.26622L1.00102 6.72251C0.925278 6.69212 0.860649 6.63929 0.815803 6.57111C0.770958 6.50293 0.748042 6.42266 0.750131 6.34108C0.752221 6.2595 0.779216 6.18051 0.827493 6.11472C0.87577 6.04892 0.943019 5.99947 1.02021 5.973L16.2185 0.773595C16.2893 0.747995 16.366 0.74311 16.4396 0.75951C16.5131 0.775911 16.5805 0.81292 16.6338 0.866207C16.6871 0.919493 16.7241 0.986854 16.7405 1.06041C16.7569 1.13396 16.752 1.21066 16.7264 1.28154L11.527 16.4798C11.5005 16.557 11.4511 16.6242 11.3853 16.6725C11.3195 16.7208 11.2405 16.7478 11.1589 16.7499C11.0773 16.752 10.9971 16.729 10.9289 16.6842C10.8607 16.6394 10.8079 16.5747 10.7775 16.499L8.23378 10.1541C8.15314 9.95373 8.03275 9.77176 7.87988 9.61916ZM7.87988 9.61916L16.6312 0.869584" stroke="#000E3A" stroke-width="1.5" stroke-linecap="round" stroke-linejoin="round"/>
</svg>
