<svg width="16" height="16" viewBox="0 0 16 16" fill="none" xmlns="http://www.w3.org/2000/svg">
<path d="M6.16672 14.6668L5.90005 12.5335C5.7556 12.4779 5.6196 12.4113 5.49205 12.3335C5.36449 12.2557 5.23938 12.1724 5.11672 12.0835L3.13338 12.9168L1.30005 9.75016L3.01672 8.45016C3.0056 8.37238 3.00005 8.2975 3.00005 8.2255V7.7755C3.00005 7.70305 3.0056 7.62794 3.01672 7.55016L1.30005 6.25016L3.13338 3.0835L5.11672 3.91683C5.23894 3.82794 5.36672 3.74461 5.50005 3.66683C5.63338 3.58905 5.76672 3.52238 5.90005 3.46683L6.16672 1.3335H9.83338L10.1 3.46683C10.2445 3.52238 10.3807 3.58905 10.5087 3.66683C10.6367 3.74461 10.7616 3.82794 10.8834 3.91683L12.8667 3.0835L14.7 6.25016L12.9834 7.55016C12.9945 7.62794 13 7.70305 13 7.7755V8.22483C13 8.29727 12.9889 8.37238 12.9667 8.45016L14.6834 9.75016L12.85 12.9168L10.8834 12.0835C10.7612 12.1724 10.6334 12.2557 10.5 12.3335C10.3667 12.4113 10.2334 12.4779 10.1 12.5335L9.83338 14.6668H6.16672ZM7.33338 13.3335H8.65005L8.88338 11.5668C9.22783 11.4779 9.54738 11.3475 9.84205 11.1755C10.1367 11.0035 10.406 10.7951 10.65 10.5502L12.3 11.2335L12.95 10.1002L11.5167 9.01683C11.5723 8.86127 11.6112 8.6975 11.6334 8.5255C11.6556 8.3535 11.6667 8.17838 11.6667 8.00016C11.6667 7.82194 11.6556 7.64705 11.6334 7.4755C11.6112 7.30394 11.5723 7.13994 11.5167 6.9835L12.95 5.90016L12.3 4.76683L10.65 5.46683C10.4056 5.21127 10.1363 4.9975 9.84205 4.8255C9.54783 4.6535 9.22827 4.52283 8.88338 4.4335L8.66672 2.66683H7.35005L7.11672 4.4335C6.77227 4.52238 6.45294 4.65305 6.15872 4.8255C5.86449 4.99794 5.59494 5.20616 5.35005 5.45016L3.70005 4.76683L3.05005 5.90016L4.48338 6.96683C4.42783 7.1335 4.38894 7.30016 4.36672 7.46683C4.34449 7.6335 4.33338 7.81127 4.33338 8.00016C4.33338 8.17794 4.34449 8.35016 4.36672 8.51683C4.38894 8.6835 4.42783 8.85016 4.48338 9.01683L3.05005 10.1002L3.70005 11.2335L5.35005 10.5335C5.59449 10.7891 5.86405 11.0031 6.15872 11.1755C6.45338 11.3479 6.77272 11.4784 7.11672 11.5668L7.33338 13.3335ZM8.03338 10.3335C8.67783 10.3335 9.22783 10.1057 9.68338 9.65016C10.1389 9.19461 10.3667 8.64461 10.3667 8.00016C10.3667 7.35572 10.1389 6.80572 9.68338 6.35016C9.22783 5.89461 8.67783 5.66683 8.03338 5.66683C7.37783 5.66683 6.82494 5.89461 6.37472 6.35016C5.92449 6.80572 5.6996 7.35572 5.70005 8.00016C5.70049 8.64461 5.9256 9.19461 6.37538 9.65016C6.82516 10.1057 7.37783 10.3335 8.03338 10.3335Z" fill="white"/>
</svg>
