<svg width="16" height="16" viewBox="0 0 16 16" fill="none" xmlns="http://www.w3.org/2000/svg">
<path d="M11.3334 12.0002C11.687 12.0002 12.0262 12.1406 12.2762 12.3907C12.5263 12.6407 12.6667 12.9799 12.6667 13.3335C12.6667 13.6871 12.5263 14.0263 12.2762 14.2763C12.0262 14.5264 11.687 14.6668 11.3334 14.6668C10.9798 14.6668 10.6407 14.5264 10.3906 14.2763C10.1406 14.0263 10.0001 13.6871 10.0001 13.3335C10.0001 12.5935 10.5934 12.0002 11.3334 12.0002ZM0.666748 1.3335H2.84675L3.47341 2.66683H13.3334C13.5102 2.66683 13.6798 2.73707 13.8048 2.86209C13.9298 2.98712 14.0001 3.15668 14.0001 3.3335C14.0001 3.44683 13.9667 3.56016 13.9201 3.66683L11.5334 7.98016C11.3067 8.38683 10.8667 8.66683 10.3667 8.66683H5.40008L4.80008 9.7535L4.78008 9.8335C4.78008 9.8777 4.79764 9.92009 4.8289 9.95135C4.86015 9.9826 4.90254 10.0002 4.94675 10.0002H12.6667V11.3335H4.66675C4.31313 11.3335 3.97399 11.193 3.72394 10.943C3.47389 10.6929 3.33341 10.3538 3.33341 10.0002C3.33341 9.76683 3.39341 9.54683 3.49341 9.36016L4.40008 7.72683L2.00008 2.66683H0.666748V1.3335ZM4.66675 12.0002C5.02037 12.0002 5.35951 12.1406 5.60956 12.3907C5.8596 12.6407 6.00008 12.9799 6.00008 13.3335C6.00008 13.6871 5.8596 14.0263 5.60956 14.2763C5.35951 14.5264 5.02037 14.6668 4.66675 14.6668C4.31313 14.6668 3.97399 14.5264 3.72394 14.2763C3.47389 14.0263 3.33341 13.6871 3.33341 13.3335C3.33341 12.5935 3.92675 12.0002 4.66675 12.0002ZM10.6667 7.3335L12.5201 4.00016H4.09341L5.66675 7.3335H10.6667Z" fill="white"/>
</svg>
