<svg width="33" height="32" viewBox="0 0 33 32" fill="none" xmlns="http://www.w3.org/2000/svg">
<g clip-path="url(#clip0_65_11037)">
<circle cx="16.5" cy="16" r="16" fill="#EFEFEF"/>
<path opacity="0.4" d="M22.95 11.7096L22.81 11.6296L21.42 10.8296L18.55 9.16961C17.67 8.65961 16.33 8.65961 15.45 9.16961L12.58 10.8296L11.19 11.6396L11.01 11.7396C9.22001 12.9396 9.10001 13.1596 9.10001 15.0896V19.6996C9.10001 21.6296 9.22001 21.8496 11.05 23.0796L15.45 25.6196C15.89 25.8796 16.44 25.9996 17 25.9996C17.55 25.9996 18.11 25.8796 18.55 25.6196L22.99 23.0496C24.78 21.8496 24.9 21.6296 24.9 19.6996V15.0896C24.9 13.1596 24.78 12.9396 22.95 11.7096Z" fill="#FCCD54"/>
<path d="M11.19 11.64L12.58 10.83L15.32 9.25L15.45 9.17C16.33 8.66 17.67 8.66 18.55 9.17L18.68 9.25L21.42 10.83L22.81 11.63V9.49C22.81 7.24 21.57 6 19.32 6H14.67C12.42 6 11.19 7.24 11.19 9.49V11.64Z" fill="#866102"/>
<path d="M19.84 17.3393L19.22 18.0993C19.12 18.2093 19.05 18.4293 19.06 18.5793L19.12 19.5593C19.16 20.1593 18.73 20.4693 18.17 20.2493L17.26 19.8893C17.12 19.8393 16.88 19.8393 16.74 19.8893L15.83 20.2493C15.27 20.4693 14.84 20.1593 14.88 19.5593L14.94 18.5793C14.95 18.4293 14.88 18.2093 14.78 18.0993L14.16 17.3393C13.77 16.8793 13.94 16.3693 14.52 16.2193L15.47 15.9793C15.62 15.9393 15.8 15.7993 15.88 15.6693L16.41 14.8493C16.74 14.3393 17.26 14.3393 17.59 14.8493L18.12 15.6693C18.2 15.7993 18.38 15.9393 18.53 15.9793L19.48 16.2193C20.06 16.3693 20.23 16.8793 19.84 17.3393Z" fill="#EEAC04"/>
</g>
<defs>
<clipPath id="clip0_65_11037">
<rect width="32" height="32" fill="white" transform="translate(0.5)"/>
</clipPath>
</defs>
</svg>
