<svg width="10" height="10" viewBox="0 0 10 10" fill="none" xmlns="http://www.w3.org/2000/svg">
<path d="M4.99994 8.26229L2.34048 9.94891C2.26233 9.98944 2.1898 10.0059 2.12289 9.99816C2.05646 9.98995 1.99174 9.96584 1.92874 9.92583C1.86524 9.88479 1.81738 9.82683 1.78514 9.75194C1.75291 9.67704 1.74998 9.59523 1.77635 9.50648L2.48407 6.34407L0.14331 4.21271C0.0773731 4.15628 0.0339035 4.08883 0.0129013 4.01034C-0.00810085 3.93186 -0.0034608 3.85671 0.0268214 3.7849C0.0571036 3.71308 0.0973984 3.65409 0.147706 3.60792C0.198502 3.5633 0.266881 3.53303 0.352843 3.51713L3.44163 3.23397L4.64608 0.239297C4.67929 0.154659 4.72715 0.0936157 4.78967 0.0561694C4.85219 0.0187231 4.92228 0 4.99994 0C5.0776 0 5.14793 0.0187231 5.21094 0.0561694C5.27394 0.0936157 5.32156 0.154659 5.3538 0.239297L6.55825 3.23397L9.6463 3.51713C9.73275 3.53252 9.80137 3.56304 9.85217 3.60869C9.90297 3.65383 9.94351 3.71257 9.97379 3.7849C10.0036 3.85671 10.008 3.93186 9.98697 4.01034C9.96597 4.08883 9.9225 4.15628 9.85657 4.21271L7.5158 6.34407L8.22353 9.50648C8.25088 9.5942 8.24819 9.67576 8.21547 9.75117C8.18274 9.82657 8.13463 9.88454 8.07114 9.92506C8.00862 9.9661 7.9439 9.99046 7.87699 9.99816C7.81056 10.0059 7.73828 9.98944 7.66013 9.94891L4.99994 8.26229Z" fill="#FFD900"/>
</svg>
