<svg width="16" height="16" viewBox="0 0 16 16" fill="none" xmlns="http://www.w3.org/2000/svg">
<path d="M8.00065 1.33398C11.6827 1.33398 14.6673 4.31865 14.6673 8.00065C14.6673 11.6827 11.6827 14.6673 8.00065 14.6673C4.31865 14.6673 1.33398 11.6827 1.33398 8.00065C1.33398 4.31865 4.31865 1.33398 8.00065 1.33398ZM8.00065 2.66732C6.58616 2.66732 5.22961 3.22922 4.22941 4.22941C3.22922 5.22961 2.66732 6.58616 2.66732 8.00065C2.66732 9.41514 3.22922 10.7717 4.22941 11.7719C5.22961 12.7721 6.58616 13.334 8.00065 13.334C9.41514 13.334 10.7717 12.7721 11.7719 11.7719C12.7721 10.7717 13.334 9.41514 13.334 8.00065C13.334 6.58616 12.7721 5.22961 11.7719 4.22941C10.7717 3.22922 9.41514 2.66732 8.00065 2.66732ZM8.00065 4.00065C8.16394 4.00067 8.32154 4.06062 8.44357 4.16913C8.56559 4.27763 8.64355 4.42715 8.66265 4.58932L8.66732 4.66732V7.72465L10.472 9.52932C10.5915 9.64929 10.661 9.81027 10.6661 9.97957C10.6713 10.1489 10.6118 10.3138 10.4998 10.4408C10.3878 10.5679 10.2316 10.6475 10.063 10.6636C9.89439 10.6796 9.72598 10.6309 9.59198 10.5273L9.52932 10.472L7.52932 8.47198C7.4257 8.36828 7.35916 8.23332 7.33998 8.08798L7.33398 8.00065V4.66732C7.33398 4.49051 7.40422 4.32094 7.52925 4.19591C7.65427 4.07089 7.82384 4.00065 8.00065 4.00065Z" fill="#ADADAD"/>
</svg>
