<svg width="95" height="73" viewBox="0 0 95 73" fill="none" xmlns="http://www.w3.org/2000/svg">
<g clip-path="url(#clip0_931_2928)">
<path d="M59.9398 6.67275L62.4935 10.589C63.2791 11.7782 64.3321 12.7672 65.5682 13.4766C66.8044 14.1861 68.1894 14.5964 69.6126 14.6747L74.2819 14.9107L74.3726 14.9121C74.7351 14.9392 75.0803 15.0783 75.3605 15.31C75.6407 15.5417 75.842 15.8546 75.9368 16.2056C76.0315 16.5566 76.015 16.9284 75.8895 17.2696C75.764 17.6108 75.5356 17.9047 75.236 18.1106L71.3198 20.6643C70.1294 21.4482 69.139 22.4997 68.4277 23.7349C67.7165 24.97 67.3042 26.3545 67.2238 27.7775L66.9867 32.4428C66.9596 32.8054 66.8205 33.1506 66.5888 33.4307C66.3571 33.7109 66.0442 33.9123 65.6932 34.007C65.3422 34.1018 64.9704 34.0853 64.6292 33.9597C64.288 33.8342 63.9941 33.6059 63.7882 33.3063L61.2316 29.3951C60.4487 28.202 59.3971 27.209 58.1611 26.4956C56.9241 25.7805 55.5366 25.3656 54.1101 25.2842L49.4407 25.0482C49.0782 25.0211 48.733 24.882 48.4528 24.6503C48.1726 24.4186 47.9713 24.1057 47.8765 23.7547C47.7818 23.4037 47.7983 23.0319 47.9238 22.6907C48.0493 22.3495 48.2777 22.0556 48.5773 21.8497L52.4935 19.296C53.6644 18.5049 54.6358 17.4528 55.3312 16.2227C56.0267 14.9925 56.4272 13.6178 56.5013 12.2066L56.7384 7.54129C56.7643 7.17757 56.9028 6.83094 57.1347 6.54952C57.3666 6.2681 57.6803 6.06584 58.0324 5.9708C58.3844 5.87577 58.7573 5.89268 59.0993 6.01918C59.4413 6.14568 59.7344 6.3715 59.9398 6.67275ZM88.1826 33.1586L84.844 32.9933C83.8282 32.9334 82.8404 32.6379 81.9585 32.1304C81.0767 31.6228 80.3249 30.9171 79.7628 30.069L77.9341 27.2772C77.7872 27.0629 77.5774 26.8995 77.3335 26.8096C77.0897 26.7197 76.824 26.7078 76.5731 26.7755C76.3222 26.8432 76.0986 26.9873 75.9331 27.1876C75.7677 27.388 75.6685 27.6348 75.6495 27.894L75.4821 31.2246C75.4272 32.2329 75.1402 33.2148 74.6436 34.094C74.147 34.9733 73.4541 35.7259 72.6189 36.2935L69.821 38.1152C69.6089 38.2635 69.4478 38.4735 69.3594 38.7167C69.271 38.9598 69.2598 39.2243 69.3272 39.4741C69.3947 39.7239 69.5375 39.9468 69.7362 40.1125C69.9349 40.2782 70.1799 40.3785 70.4377 40.3999L73.7734 40.5702C74.792 40.6296 75.7826 40.9257 76.6666 41.4351C77.5506 41.9445 78.3037 42.653 78.8658 43.5044L80.6865 46.2984C80.8334 46.5127 81.0433 46.6761 81.2871 46.766C81.5309 46.8559 81.7966 46.8678 82.0475 46.8001C82.2984 46.7323 82.522 46.5883 82.6875 46.388C82.853 46.1876 82.9521 45.9408 82.9712 45.6816L83.1426 42.3499C83.2018 41.3336 83.4968 40.345 84.0042 39.4624C84.5115 38.5798 85.2174 37.8274 86.0658 37.2648L88.8638 35.443C89.0758 35.2948 89.237 35.0848 89.3254 34.8416C89.4137 34.5984 89.425 34.3339 89.3575 34.0842C89.2901 33.8344 89.1473 33.6115 88.9486 33.4458C88.7498 33.2801 88.5049 33.1797 88.247 33.1584L88.1826 33.1586ZM73.5562 44.7356C73.8634 44.77 74.1631 44.8531 74.444 44.9819L59.7043 59.7073C58.1645 61.2457 56.2485 62.3537 54.1472 62.921C52.0458 63.4882 49.8325 63.4949 47.7278 62.9404L17.608 55.0053L22.6242 73.5873C22.7677 74.1188 22.6942 74.6856 22.4198 75.1629C22.1454 75.6402 21.6926 75.9889 21.1611 76.1324C20.6296 76.2759 20.0628 76.2024 19.5855 75.928C19.1082 75.6536 18.7595 75.2008 18.616 74.6693L12.665 52.6242C12.5672 52.2629 12.569 51.8819 12.67 51.5216C12.7711 51.1612 12.9677 50.8349 13.239 50.5771L37.7744 26.0689C39.4 24.4452 41.4432 23.3028 43.6778 22.7681C43.616 23.4621 43.6796 24.1616 43.8654 24.8332C44.19 26.0356 44.8548 27.0645 45.7959 27.8426C46.7369 28.6206 47.9056 29.1265 49.2162 29.2027L53.8517 29.4565C54.5081 29.4986 55.1558 29.6678 56.0504 30.1143C56.6103 30.4362 57.1117 30.8599 57.7224 31.6884L60.3469 35.6758C60.9781 36.5805 61.8723 37.3282 63.1828 37.8818C63.8522 38.1311 64.5291 38.2494 65.2137 38.2366C65.077 39.0046 65.1234 39.8134 65.3289 40.575C65.6211 41.6572 66.2242 42.6167 67.1046 43.3294C67.9879 44.037 69.0429 44.4403 70.2333 44.549L73.5562 44.7356ZM31.7226 75.4315L28.1141 62.0641L46.6687 66.9503C49.475 67.6897 52.4261 67.6808 55.2279 66.9245C58.0297 66.1681 60.5844 64.6908 62.6374 62.6396L76.2126 49.08L79.8211 62.4474C79.8926 62.7106 79.9116 62.9853 79.8769 63.2559C79.8422 63.5265 79.7546 63.7876 79.6189 64.0242L79.612 64.0304L79.6061 64.0406L79.5856 64.0762L79.5172 64.1893L79.2767 64.5725C78.9783 65.0224 78.6655 65.4626 78.3385 65.8922C77.1988 67.3875 75.9342 68.7834 74.5583 70.0648C70.0117 74.3082 64.4878 77.3637 58.4769 78.9599C52.4793 80.6054 46.1682 80.7448 40.1038 79.3657C38.2713 78.9503 36.4774 78.38 34.7413 77.6612C34.1029 77.395 33.4758 77.1023 32.8618 76.7839L32.7458 76.7206C32.4964 76.5868 32.2769 76.4035 32.101 76.1818C31.925 75.9601 31.7963 75.7048 31.7226 75.4315Z" fill="#002599" fill-opacity="0.2"/>
</g>
<defs>
<clipPath id="clip0_931_2928">
<rect width="83.0336" height="83.0336" fill="white" transform="translate(0 21.6406) rotate(-15.1069)"/>
</clipPath>
</defs>
</svg>
