<svg width="44" height="44" viewBox="0 0 44 44" fill="none" xmlns="http://www.w3.org/2000/svg">
<rect width="44" height="44" rx="8" fill="#34C759" fill-opacity="0.08"/>
<path d="M12.4 33C11.74 33 11.1752 32.7734 10.7056 32.3203C10.236 31.8672 10.0008 31.3218 10 30.6842V17.9474C10 17.3105 10.2352 16.7655 10.7056 16.3124C11.176 15.8593 11.7408 15.6324 12.4 15.6316H17.2V13.3158C17.2 12.6789 17.4352 12.134 17.9056 11.6808C18.376 11.2277 18.9408 11.0008 19.6 11H24.4C25.06 11 25.6252 11.2269 26.0956 11.6808C26.566 12.1347 26.8008 12.6797 26.8 13.3158V15.6316H31.6C32.26 15.6316 32.8252 15.8585 33.2956 16.3124C33.766 16.7663 34.0008 17.3113 34 17.9474V30.6842C34 31.3211 33.7652 31.8664 33.2956 32.3203C32.826 32.7742 32.2608 33.0008 31.6 33H12.4ZM19.6 15.6316H24.4V13.3158H19.6V15.6316ZM31.6 26.0526H25.6V28.3684H18.4V26.0526H12.4V30.6842H31.6V26.0526ZM20.8 26.0526H23.2V23.7368H20.8V26.0526ZM12.4 23.7368H18.4V21.4211H25.6V23.7368H31.6V17.9474H12.4V23.7368Z" fill="#34C759"/>
</svg>
