<svg width="141" height="103" viewBox="0 0 141 103" fill="none" xmlns="http://www.w3.org/2000/svg">
<path d="M128.114 51.5C128.114 63.16 124.228 73.97 117.715 82.65C114.143 87.32 109.836 91.45 104.899 94.63C96.9152 99.93 87.3562 103 77.0612 103C48.8032 102.89 25.9022 79.79 25.9022 51.39C25.9022 22.99 48.8032 0 76.9562 0C87.2512 0 96.8102 3.07002 104.794 8.27002C109.731 11.44 114.038 15.58 117.61 20.24C124.228 29.03 128.114 39.74 128.114 51.5Z" fill="#000268"/>
<path d="M139.25 35.7096C140.825 34.2296 140.93 31.7896 139.46 30.1996C137.989 28.6096 135.573 28.5096 133.892 29.9896C132.316 31.4696 132.211 33.9096 133.682 35.4996C135.258 37.0896 137.674 37.1896 139.25 35.7096Z" fill="#EAEEF9"/>
<path d="M138.514 18.5404C139.459 18.5404 140.195 17.8003 140.195 16.8503C140.195 15.9003 139.459 15.1504 138.514 15.1504C137.569 15.1504 136.833 15.9003 136.833 16.8503C136.833 17.8003 137.569 18.5404 138.514 18.5404Z" fill="#F6C0C9"/>
<path d="M80.6332 99.0798C81.8932 99.0798 82.9442 98.0199 82.9442 96.7499C82.9442 95.4799 81.8932 94.4199 80.6332 94.4199C79.3722 94.4199 78.3212 95.4799 78.3212 96.7499C78.3212 98.1299 79.3722 99.0798 80.6332 99.0798Z" fill="#2E3081"/>
<path d="M134.627 53.4095C135.573 53.4095 136.308 52.6695 136.308 51.7095C136.308 50.7595 135.573 50.0195 134.627 50.0195C133.682 50.0195 132.947 50.7595 132.947 51.7095C132.947 52.6695 133.682 53.4095 134.627 53.4095Z" fill="#2E3081"/>
<path d="M69.6017 12.3998C70.5477 12.3998 71.2828 11.6597 71.2828 10.6997C71.2828 9.74971 70.5477 9.00977 69.6017 9.00977C68.6567 9.00977 67.9218 9.74971 67.9218 10.6997C67.9218 11.6597 68.7617 12.3998 69.6017 12.3998Z" fill="#2E3081"/>
<path d="M123.072 36.9801L119.185 73.8601C119.185 74.0701 119.185 74.2801 119.08 74.3901L119.185 73.6501C118.87 76.8301 117.189 79.7902 114.773 81.8102C112.672 83.6102 109.941 84.6702 107.105 84.6702H40.609C38.508 84.6702 36.617 84.0301 35.042 83.0801C34.516 82.7601 33.991 82.3402 33.571 81.8102C32.625 80.8502 31.785 79.5801 31.365 78.2001C31.155 77.5701 31.05 77.0401 30.945 76.4001C30.945 76.4001 30.945 76.4002 30.945 76.3002C30.945 75.7702 30.84 75.1301 30.945 74.4901L35.567 29.9901C35.567 29.8801 35.567 29.8802 35.567 29.7802C36.092 27.9802 36.932 26.3901 38.088 25.0101C40.399 22.3601 43.655 20.6602 47.227 20.6602H113.828C117.399 20.6602 120.341 22.3601 122.127 25.1101C122.967 26.4901 123.597 28.0801 123.702 29.8801C123.702 30.0901 123.702 30.4101 123.702 30.6201C123.702 30.9401 123.702 31.3702 123.597 31.6802L123.072 36.9801Z" fill="#526DFF"/>
<path d="M123.597 31.5803L119.185 73.5404C118.87 76.7204 117.189 79.6903 114.773 81.7003C112.672 83.5003 109.941 84.5604 107.105 84.5604H40.609C38.508 84.5604 36.617 83.9303 35.042 82.9703C34.516 82.6503 33.991 82.2303 33.571 81.7003C32.625 80.7503 31.785 79.4803 31.365 78.1003C31.155 77.4603 31.05 76.9304 30.945 76.3004C30.945 76.3004 30.945 76.3003 30.945 76.1903C30.945 75.6603 30.84 75.0204 30.945 74.3904L35.567 29.8804C35.567 29.7804 35.567 29.7804 35.567 29.6704C36.092 27.8704 36.932 26.2804 38.088 24.9004L72.439 51.9204L72.754 52.1404L75.905 54.5703L77.166 53.7303L78.321 52.9803L122.127 24.9004C122.967 26.2804 123.597 27.8704 123.702 29.6704C123.702 29.8804 123.702 30.2004 123.702 30.4104C123.702 30.8404 123.597 31.2603 123.597 31.5803Z" fill="#738DFF"/>
<path d="M114.878 81.7003C112.777 83.5003 110.046 84.5604 107.21 84.5604H40.609C38.508 84.5604 36.617 83.9303 35.042 82.9703C34.516 82.6503 33.991 82.2303 33.571 81.7003C32.625 80.7503 31.785 79.4803 31.365 78.1003C31.155 77.4603 31.05 76.9304 30.945 76.3004C30.945 76.3004 30.945 76.3003 30.945 76.1903C30.945 75.6603 30.84 75.0204 30.945 74.3904L35.567 29.8804C35.567 29.7804 35.567 29.7804 35.567 29.6704C36.092 27.8704 36.932 26.2804 38.088 24.9004L41.87 27.7604L73.489 51.1804L77.0609 53.8303L78.111 54.5703L78.216 54.6804L81.368 57.0104L82.418 57.7504L86.62 60.8303L91.978 64.7504L95.234 67.1804L111.096 78.9503L114.878 81.7003Z" fill="#89D8EF"/>
<path d="M78.3206 53.0901L77.9006 56.6901L75.6946 58.0701L73.6986 59.3401L72.5436 60.0801L68.3416 62.6301L66.9756 63.4701L35.1466 82.9701C34.6206 82.6501 34.0957 82.2301 33.6757 81.7001C32.7297 80.7501 31.8896 79.4801 31.4696 78.1001L62.7736 58.0701L67.6066 55.0001L68.8666 54.1501L72.5436 51.8201L73.6986 51.0801L74.4346 51.6101L76.8506 53.5101L77.1656 53.6201H77.2706L78.3206 53.0901Z" fill="#C6F2FF"/>
<path d="M38.0878 25.0098L41.9747 27.7598L73.5938 51.1798L74.3298 51.7097L77.0607 53.8297H77.1658" stroke="#A6BDFF" stroke-width="0.4728" stroke-miterlimit="10"/>
<path d="M123.597 31.5797L119.185 73.5398C118.87 76.7198 117.189 79.6897 114.773 81.6997C112.672 83.4997 109.941 84.5598 107.105 84.5598H73.8572H40.6092C38.5082 84.5598 36.6172 83.9297 35.0422 82.9697C34.5162 82.6497 33.9912 82.2297 33.5712 81.6997L37.8782 78.9497L64.2452 61.9897L66.1362 60.8297L70.1282 58.2798L70.9682 57.7498L72.1242 57.0098L75.8002 54.6798L77.0612 53.8297L78.2162 53.0897L122.022 25.0098C122.862 26.3898 123.492 27.9798 123.597 29.7798C123.597 29.9898 123.597 30.3098 123.597 30.5198C123.702 30.8398 123.597 31.2597 123.597 31.5797Z" fill="#97DEF3"/>
<path d="M122.127 25.0098L78.3212 53.0897L77.1662 53.8297L75.9052 54.6798L72.2292 57.0098L70.9682 57.7498L70.1282 58.2798L66.2412 60.8297L64.3502 62.0997L37.9832 78.9497L33.5712 81.6997" stroke="#99B3FF" stroke-width="0.4728" stroke-miterlimit="10"/>
<path d="M113.092 63.9004H89.5621C89.0361 63.9004 88.6161 63.3703 88.6161 62.7303C88.7211 62.1003 89.246 61.5703 89.772 61.5703H113.198C113.723 61.5703 114.143 62.1003 114.143 62.7303C114.143 63.3703 113.618 63.9004 113.092 63.9004Z" fill="#C6F2FF"/>
<path d="M112.252 71.7401H88.8257C88.3007 71.7401 87.8807 71.2101 87.8807 70.5701C87.9857 69.9401 88.5108 69.4102 89.0358 69.4102H112.462C112.987 69.4102 113.408 69.9401 113.408 70.5701C113.303 71.2101 112.777 71.7401 112.252 71.7401Z" fill="#C6F2FF"/>
<path d="M123.597 29.7795C123.597 29.9895 123.597 30.3095 123.597 30.5195L82.5228 57.7495C80.6328 59.0195 78.6368 59.5496 76.5358 59.5496C75.5898 59.5496 74.6448 59.4495 73.8038 59.1295C73.6988 59.1295 73.6988 59.1295 73.5938 59.1295C73.4888 59.1295 73.2788 59.0196 73.1738 58.9196H73.0688C72.9638 58.9196 72.8588 58.8096 72.7538 58.8096C72.5438 58.6996 72.2288 58.5995 72.0188 58.4895C71.9138 58.3895 71.8078 58.3895 71.7028 58.2795C71.4928 58.1695 71.3878 58.0695 71.1778 57.9595C71.0728 57.9595 71.0728 57.8595 70.9678 57.8595L67.5018 55.0995L35.4618 30.5195V30.0895C35.4618 29.9895 35.4618 29.9895 35.4618 29.8795C35.9868 28.0795 36.8268 26.4895 37.9828 25.1095C40.2938 22.4595 43.5508 20.7695 47.1218 20.7695H113.723C117.294 20.7695 120.236 22.4595 122.022 25.2195C122.967 26.3795 123.492 27.9695 123.597 29.7795Z" fill="#D4DAE8"/>
<path d="M2.5329 39.1395H26.0579C27.2199 39.1395 28.0909 38.1595 28.0909 37.0795C28.0909 35.8995 27.1229 35.0195 26.0579 35.0195H2.5329C1.3709 35.0195 0.499878 35.9995 0.499878 37.0795C0.499878 38.2595 1.4679 39.1395 2.5329 39.1395Z" fill="#F8C0C8"/>
<path d="M10.7806 52.5302H24.9706C26.1696 52.5302 27.0686 51.5501 27.0686 50.4701C27.0686 49.2901 26.0696 48.4102 24.9706 48.4102H10.7806C9.58059 48.4102 8.68159 49.3901 8.68159 50.4701C8.58159 51.6501 9.58059 52.5302 10.7806 52.5302Z" fill="#97DEF3"/>
<path d="M20.023 65.9198H23.903C25.129 65.9198 26.047 64.9397 26.047 63.8597C26.047 62.6797 25.026 61.7998 23.903 61.7998H20.023C18.798 61.7998 17.879 62.7797 17.879 63.8597C17.777 65.0397 18.798 65.9198 20.023 65.9198Z" fill="#2E3081"/>
</svg>
