<svg width="44" height="44" viewBox="0 0 44 44" fill="none" xmlns="http://www.w3.org/2000/svg">
<rect width="44" height="44" rx="22" fill="#000E3A"/>
<path d="M19.5567 25.1627L28.0317 16.6877C28.2317 16.4877 28.465 16.3877 28.7317 16.3877C28.9984 16.3877 29.2317 16.4877 29.4317 16.6877C29.6317 16.8877 29.7317 17.1254 29.7317 17.4007C29.7317 17.676 29.6317 17.9134 29.4317 18.1127L20.2567 27.3127C20.0567 27.5127 19.8234 27.6127 19.5567 27.6127C19.29 27.6127 19.0567 27.5127 18.8567 27.3127L14.5567 23.0127C14.3567 22.8127 14.2607 22.5754 14.2687 22.3007C14.2767 22.026 14.381 21.7884 14.5817 21.5877C14.7824 21.387 15.02 21.287 15.2947 21.2877C15.5694 21.2884 15.8067 21.3884 16.0067 21.5877L19.5567 25.1627Z" fill="#13E0A0"/>
</svg>
