<svg width="24" height="24" viewBox="0 0 24 24" fill="none" xmlns="http://www.w3.org/2000/svg">
<g clip-path="url(#clip0_999_3927)">
<path d="M18.3234 13.9922C18.3234 13.9922 18.3234 13.9969 18.3281 13.9969C18.7594 14.9062 19.0031 15.9234 19.0031 16.9969C18.9984 20.8641 15.8672 24 12 24C8.13281 24 5.00156 20.8641 5.00156 17.0016C5.00156 15.9281 5.24531 14.9109 5.67656 14.0016C5.75625 13.8328 5.84531 13.6641 5.93906 13.5C6.14531 13.1438 6.37969 12.8109 6.64219 12.5016C7.92656 10.9734 9.85313 10.0031 12.0047 10.0031C13.5797 10.0031 15.0328 10.5234 16.2047 11.4047C16.6313 11.7281 17.0203 12.0937 17.3672 12.5062C17.6297 12.8156 17.8641 13.1531 18.0703 13.5047C18.1641 13.6641 18.2484 13.8328 18.3281 13.9969L18.3234 13.9922ZM19.5609 13.1109C18.15 10.3734 15.2953 8.49844 12 8.49844C8.70469 8.49844 5.85 10.3734 4.43906 13.1109L0 9.50156L12 0L24 9.50156L19.5609 13.1156V13.1109Z" fill="#000E3A"/>
</g>
<defs>
<clipPath id="clip0_999_3927">
<rect width="24" height="24" fill="white"/>
</clipPath>
</defs>
</svg>
