<svg width="24" height="24" viewBox="0 0 24 24" fill="none" xmlns="http://www.w3.org/2000/svg">
<g clip-path="url(#clip0_904_2312)">
<path d="M12.0049 11.0029C13.3554 11.003 14.599 11.4479 15.6035 12.2031C15.9726 12.4833 16.3057 12.7976 16.6016 13.1494L16.6045 13.1533C16.8253 13.4135 17.0274 13.7028 17.208 14.0107V14.0117C17.2772 14.1294 17.3442 14.2616 17.418 14.4131C17.4222 14.4222 17.425 14.4321 17.4297 14.4414C17.4323 14.4466 17.4357 14.4517 17.4385 14.457C17.7534 15.131 17.9489 15.8722 17.9932 16.6543L18.0029 16.9971C17.9982 20.3134 15.3133 23 12 23C8.68566 23 6.00216 20.3124 6.00195 17.002C6.00195 16.0814 6.21031 15.2094 6.58008 14.4297L6.58105 14.4287C6.64733 14.2884 6.72291 14.1443 6.80469 14.001C6.98144 13.6957 7.18103 13.4116 7.4043 13.1484L7.40723 13.1445C8.50947 11.8331 10.1607 11.0029 12.0049 11.0029ZM22.4023 9.51172L19.8242 11.6113C18.1122 9.12996 15.2489 7.49805 12 7.49805C8.75213 7.49805 5.88897 9.1284 4.17676 11.6084L1.59766 9.51172L12 1.27539L22.4023 9.51172Z" stroke="#858585" stroke-width="2"/>
</g>
<defs>
<clipPath id="clip0_904_2312">
<rect width="24" height="24" fill="white"/>
</clipPath>
</defs>
</svg>
