<svg width="16" height="16" viewBox="0 0 16 16" fill="none" xmlns="http://www.w3.org/2000/svg">
<path d="M13.7407 12.7929C14.1585 12.2328 14.4452 11.5861 14.5797 10.9005C14.7142 10.2148 14.693 9.50775 14.5176 8.8314C14.3423 8.15504 14.0173 7.52669 13.5667 6.99271C13.1161 6.45873 12.5513 6.03275 11.9141 5.74621C11.7753 4.94761 11.4562 4.19116 10.9813 3.53433C10.5063 2.8775 9.88787 2.33757 9.17295 1.95557C8.45804 1.57357 7.66546 1.35955 6.85543 1.32977C6.04541 1.3 5.23925 1.45524 4.49822 1.78372C3.75718 2.1122 3.10077 2.60526 2.57886 3.22545C2.05694 3.84563 1.68325 4.57663 1.48619 5.36288C1.28912 6.14913 1.27387 6.96996 1.44158 7.76299C1.60929 8.55602 1.95555 9.30039 2.45406 9.93955L1.52739 10.8595C1.43489 10.9533 1.37222 11.0723 1.34731 11.2017C1.32239 11.331 1.33634 11.4648 1.38739 11.5862C1.43741 11.708 1.52234 11.8122 1.63149 11.8857C1.74063 11.9593 1.86911 11.9989 2.00073 11.9995H5.79406C6.17182 12.7959 6.76742 13.4691 7.51189 13.941C8.25636 14.4129 9.11927 14.6644 10.0007 14.6662H14.0007C14.1323 14.6656 14.2608 14.626 14.37 14.5524C14.4791 14.4788 14.564 14.3746 14.6141 14.2529C14.6651 14.1315 14.6791 13.9977 14.6541 13.8683C14.6292 13.739 14.5666 13.62 14.4741 13.5262L13.7407 12.7929ZM5.33406 9.99955C5.3349 10.2228 5.35273 10.4457 5.38739 10.6662H3.60739L3.84073 10.4395C3.90321 10.3776 3.95281 10.3038 3.98665 10.2226C4.0205 10.1414 4.03793 10.0542 4.03793 9.96621C4.03793 9.87821 4.0205 9.79107 3.98665 9.70983C3.95281 9.62859 3.90321 9.55486 3.84073 9.49288C3.4671 9.12335 3.17089 8.68304 2.96943 8.1977C2.76796 7.71235 2.66528 7.19171 2.66739 6.66621C2.66739 5.60535 3.08882 4.58793 3.83897 3.83779C4.58911 3.08764 5.60653 2.66621 6.66739 2.66621C7.49518 2.66124 8.30372 2.9158 8.97935 3.39412C9.65497 3.87244 10.1637 4.55047 10.4341 5.33288H10.0007C8.76305 5.33288 7.57607 5.82455 6.7009 6.69972C5.82573 7.57489 5.33406 8.76187 5.33406 9.99955ZM12.3607 13.3329L12.3941 13.3662H10.0007C9.22962 13.3648 8.48284 13.0962 7.88761 12.6059C7.29237 12.1157 6.88551 11.4343 6.73632 10.6778C6.58714 9.92124 6.70486 9.13637 7.06944 8.45689C7.43402 7.77741 8.0229 7.24535 8.73576 6.95135C9.44862 6.65734 10.2414 6.61958 10.9789 6.8445C11.7165 7.06942 12.3533 7.5431 12.7808 8.18485C13.2083 8.8266 13.4001 9.59672 13.3235 10.364C13.2469 11.1313 12.9067 11.8483 12.3607 12.3929C12.2351 12.516 12.1632 12.6837 12.1607 12.8595C12.1611 12.9478 12.179 13.035 12.2133 13.1163C12.2476 13.1975 12.2977 13.2711 12.3607 13.3329Z" fill="#ADADAD"/>
</svg>
